<?xml version="1.0" encoding="utf-8"?>
<svg version="1.1" xmlns:xlink="http://www.w3.org/1999/xlink" width="20px" height="18px" xmlns="http://www.w3.org/2000/svg">
  <g transform="matrix(1 0 0 1 -316 -9 )">
    <path d="M 7.46534653465346 15.4386160714286  L 15.2871287128713 8.55803571428572  C 15.6897689768977 10.9419642857143  16.6732673267327 12.8035714285714  18.2376237623762 14.1428571428571  C 18.2376237623762 14.4910714285714  18.1122112211221 14.7924107142857  17.8613861386139 15.046875  C 17.6105610561056 15.3013392857143  17.3135313531353 15.4285714285714  16.970297029703 15.4285714285714  L 12.5346534653465 15.4285714285714  C 12.5346534653465 16.1383928571429  12.2871287128713 16.7444196428571  11.7920792079208 17.2466517857143  C 11.2970297029703 17.7488839285714  10.6996699669967 18  10 18  C 9.3003300330033 18  8.70462046204621 17.7505580357143  8.21287128712871 17.2516741071429  C 7.72112211221122 16.7527901785714  7.47194719471947 16.1484375  7.46534653465346 15.4386160714286  Z M 8.76732673267327 16.6791294642857  C 9.10726072607261 17.0239955357143  9.51815181518152 17.1964285714286  10 17.1964285714286  C 10.1056105610561 17.1964285714286  10.1584158415842 17.1428571428571  10.1584158415842 17.0357142857143  C 10.1584158415842 16.9285714285714  10.1056105610561 16.875  10 16.875  C 9.61056105610561 16.875  9.27557755775578 16.7327008928571  8.9950495049505 16.4481026785714  C 8.71452145214522 16.1635044642857  8.57425742574257 15.8236607142857  8.57425742574257 15.4285714285714  C 8.57425742574257 15.3214285714286  8.52145214521452 15.2678571428571  8.41584158415842 15.2678571428571  C 8.31023102310231 15.2678571428571  8.25742574257426 15.3214285714286  8.25742574257426 15.4285714285714  C 8.25742574257426 15.9174107142857  8.42739273927393 16.3342633928571  8.76732673267327 16.6791294642857  Z M 19.0891089108911 0.160714285714285  L 19.9207920792079 1.125  C 19.973597359736 1.19196428571428  19.9983498349835 1.27064732142857  19.9950495049505 1.36104910714286  C 19.9917491749175 1.45145089285714  19.957095709571 1.52678571428571  19.8910891089109 1.58705357142857  L 1.35643564356436 17.8794642857143  C 1.29042904290429 17.9330357142857  1.21287128712871 17.9564732142857  1.12376237623762 17.9497767857143  C 1.03465346534653 17.9430803571429  0.963696369636964 17.90625  0.910891089108911 17.8392857142857  L 0.0792079207920792 16.875  C 0.0264026402640264 16.8080357142857  0.00165016501650166 16.7293526785714  0.00495049504950495 16.6389508928571  C 0.00825082508250827 16.5485491071429  0.0429042904290429 16.4765625  0.108910891089109 16.4229910714286  L 1.95049504950495 14.8058035714286  C 1.82508250825082 14.5915178571429  1.76237623762376 14.3705357142857  1.76237623762376 14.1428571428571  C 2.09240924092409 13.8616071428571  2.39273927392739 13.5669642857143  2.66336633663366 13.2589285714286  C 2.93399339933993 12.9508928571429  3.21452145214522 12.55078125  3.5049504950495 12.05859375  C 3.7953795379538 11.56640625  4.04125412541254 11.0357142857143  4.24257425742574 10.4665178571429  C 4.44389438943894 9.89732142857143  4.60891089108911 9.20758928571429  4.73762376237624 8.39732142857143  C 4.86633663366337 7.58705357142857  4.93069306930693 6.71651785714286  4.93069306930693 5.78571428571428  C 4.93069306930693 4.76785714285714  5.31683168316832 3.82198660714286  6.08910891089109 2.94810267857143  C 6.86138613861386 2.07421875  7.87458745874588 1.54352678571428  9.12871287128713 1.35602678571429  C 9.07590759075908 1.22879464285714  9.04950495049505 1.09821428571429  9.04950495049505 0.964285714285715  C 9.04950495049505 0.696428571428571  9.14191419141914 0.468749999999999  9.32673267326733 0.28125  C 9.51155115511551 0.0937500000000007  9.73597359735974 0  10 0  C 10.2640264026403 0  10.4884488448845 0.0937500000000007  10.6732673267327 0.28125  C 10.8580858085809 0.468749999999999  10.950495049505 0.696428571428571  10.950495049505 0.964285714285715  C 10.950495049505 1.09821428571429  10.9240924092409 1.22879464285714  10.8712871287129 1.35602678571429  C 11.6897689768977 1.4765625  12.4125412541254 1.75279017857143  13.039603960396 2.18470982142857  C 13.6666666666667 2.61662946428571  14.1551155115512 3.14397321428571  14.5049504950495 3.76674107142857  L 18.6435643564356 0.120535714285715  C 18.7095709570957 0.0669642857142845  18.7871287128713 0.0435267857142858  18.8762376237624 0.0502232142857149  C 18.9653465346535 0.0569196428571419  19.036303630363 0.0937499999999987  19.0891089108911 0.160714285714285  Z " fill-rule="nonzero" fill="#333333" stroke="none" transform="matrix(1 0 0 1 316 9 )" />
  </g>
</svg>