<?xml version="1.0" encoding="utf-8"?>
<svg version="1.1" xmlns:xlink="http://www.w3.org/1999/xlink" width="23px" height="30px" xmlns="http://www.w3.org/2000/svg">
  <g transform="matrix(1 0 0 1 -22 -40 )">
    <path d="M 22.6048109965636 1.80360721442886  C 22.8682703321879 2.00400801603206  23 2.23446893787575  23 2.49498997995992  C 23 2.75551102204409  22.8682703321879 2.98597194388778  22.6048109965636 3.18637274549098  L 12.3129376033882 11.0149041319527  L 7.07388316151203 15  L 22.6048109965636 26.813627254509  C 22.8682703321879 27.0140280561122  23 27.2444889779559  23 27.5050100200401  C 23 27.7655310621243  22.8682703321879 27.9959919839679  22.6048109965636 28.1963927855711  L 20.6288659793814 29.6993987975952  C 20.3654066437572 29.8997995991984  20.0624284077892 30  19.7199312714777 30  C 19.3774341351661 30  19.0744558991982 29.8997995991984  18.8109965635739 29.6993987975952  L 0.395189003436425 15.6913827655311  C 0.131729667812142 15.4909819639279  0 15.2605210420842  0 15  C 0 14.7394789579158  0.131729667812142 14.5090180360721  0.395189003436425 14.3086172344689  L 18.8109965635739 0.300601202404813  C 19.0744558991982 0.100200400801604  19.3774341351661 0  19.7199312714777 0  C 20.0624284077892 0  20.3654066437572 0.100200400801604  20.6288659793814 0.300601202404813  L 22.6048109965636 1.80360721442886  Z " fill-rule="nonzero" fill="#d4d4d4" stroke="none" transform="matrix(1 0 0 1 22 40 )" />
  </g>
</svg>