<?xml version="1.0" encoding="utf-8"?>
<svg version="1.1" xmlns:xlink="http://www.w3.org/1999/xlink" width="24px" height="27px" xmlns="http://www.w3.org/2000/svg">
  <g transform="matrix(1 0 0 1 -24 -40 )">
    <path d="M 23.5876288659794 1.62324649298597  C 23.8625429553265 1.80360721442885  24 2.01102204408817  24 2.24549098196393  C 24 2.47995991983968  23.8625429553265 2.687374749499  23.5876288659794 2.86773547094188  L 7.38144329896907 13.5  L 23.5876288659794 24.1322645290581  C 23.8625429553265 24.312625250501  24 24.5200400801603  24 24.7545090180361  C 24 24.9889779559118  23.8625429553265 25.1963927855711  23.5876288659794 25.376753507014  L 21.5257731958763 26.7294589178357  C 21.2508591065292 26.9098196392786  20.9347079037801 27  20.5773195876289 27  C 20.2199312714777 27  19.9037800687285 26.9098196392786  19.6288659793814 26.7294589178357  L 0.412371134020619 14.122244488978  C 0.13745704467354 13.9418837675351  0 13.7344689378758  0 13.5  C 0 13.2655310621242  0.13745704467354 13.0581162324649  0.412371134020619 12.877755511022  L 19.6288659793814 0.270541082164329  C 19.9037800687285 0.090180360721442  20.2199312714777 0  20.5773195876289 0  C 20.9347079037801 0  21.2508591065292 0.090180360721442  21.5257731958763 0.270541082164329  L 23.5876288659794 1.62324649298597  Z " fill-rule="nonzero" fill="#d4d4d4" stroke="none" transform="matrix(1 0 0 1 24 40 )" />
  </g>
</svg>