<?xml version="1.0" encoding="utf-8"?>
<svg version="1.1" xmlns:xlink="http://www.w3.org/1999/xlink" width="26px" height="27px" xmlns="http://www.w3.org/2000/svg">
  <g transform="matrix(1 0 0 1 -396 -70 )">
    <path d="M 16.8932291666667 17.26171875  C 17.9314236111111 16.25390625  19.1614583333333 15.75  20.5833333333333 15.75  C 22.0842013888889 15.75  23.3621961805556 16.2978515625  24.4173177083333 17.3935546875  C 25.4724392361111 18.4892578125  26 19.81640625  26 21.375  C 26 22.93359375  25.4724392361111 24.2607421875  24.4173177083333 25.3564453125  C 23.3621961805556 26.4521484375  22.0842013888889 27  20.5833333333333 27  C 19.0824652777778 27  17.8044704861111 26.4521484375  16.7493489583333 25.3564453125  C 15.6942274305556 24.2607421875  15.1666666666667 22.93359375  15.1666666666667 21.375  C 15.1666666666667 21.234375  15.1779513888889 21.03515625  15.2005208333333 20.77734375  L 9.10677083333333 17.61328125  C 8.06857638888889 18.62109375  6.83854166666667 19.125  5.41666666666667 19.125  C 3.91579861111111 19.125  2.63780381944444 18.5771484375  1.58268229166667 17.4814453125  C 0.527560763888889 16.3857421875  0 15.05859375  0 13.5  C 0 11.94140625  0.527560763888889 10.6142578125  1.58268229166667 9.5185546875  C 2.63780381944444 8.4228515625  3.91579861111111 7.875  5.41666666666667 7.875  C 6.83854166666667 7.875  8.06857638888889 8.37890625  9.10677083333333 9.38671875  L 15.2005208333333 6.22265625  C 15.1779513888889 5.96484375  15.1666666666667 5.765625  15.1666666666667 5.625  C 15.1666666666667 4.06640625  15.6942274305556 2.7392578125  16.7493489583333 1.6435546875  C 17.8044704861111 0.547851562499998  19.0824652777778 0  20.5833333333333 0  C 22.0842013888889 0  23.3621961805556 0.547851562499998  24.4173177083333 1.6435546875  C 25.4724392361111 2.7392578125  26 4.06640625  26 5.625  C 26 7.18359375  25.4724392361111 8.5107421875  24.4173177083333 9.6064453125  C 23.3621961805556 10.7021484375  22.0842013888889 11.25  20.5833333333333 11.25  C 19.1614583333333 11.25  17.9314236111111 10.74609375  16.8932291666667 9.73828125  L 10.7994791666667 12.90234375  C 10.8220486111111 13.16015625  10.8333333333333 13.359375  10.8333333333333 13.5  C 10.8333333333333 13.640625  10.8220486111111 13.83984375  10.7994791666667 14.09765625  L 16.8932291666667 17.26171875  Z " fill-rule="nonzero" fill="#d7d7d7" stroke="none" fill-opacity="0.882352941176471" transform="matrix(1 0 0 1 396 70 )" />
  </g>
</svg>