<?xml version="1.0" encoding="utf-8"?>
<svg version="1.1" xmlns:xlink="http://www.w3.org/1999/xlink" width="18px" height="27px" xmlns="http://www.w3.org/2000/svg">
  <g transform="matrix(1 0 0 1 -25 -70 )">
    <path d="M 0.309278350515465 12.877755511022  C 0.103092783505152 13.0581162324649  0 13.2655310621242  0 13.5  C 0 13.7344689378758  0.103092783505152 13.9418837675351  0.309278350515465 14.122244488978  L 14.7216494845361 26.7294589178357  C 14.9278350515464 26.9098196392786  15.1649484536082 27  15.4329896907217 27  C 15.7010309278351 27  15.9381443298969 26.9098196392786  16.1443298969072 26.7294589178357  L 17.6907216494845 25.376753507014  C 17.8969072164948 25.1963927855711  18 24.9889779559118  18 24.7545090180361  C 18 24.5200400801603  17.8969072164948 24.312625250501  17.6907216494845 24.1322645290581  L 5.5360824742268 13.5  L 17.6907216494845 2.86773547094188  C 17.8969072164948 2.687374749499  18 2.47995991983968  18 2.24549098196393  C 18 2.01102204408817  17.8969072164948 1.80360721442885  17.6907216494845 1.62324649298597  L 16.1443298969072 0.270541082164329  C 15.9381443298969 0.090180360721442  15.7010309278351 0  15.4329896907217 0  C 15.1649484536082 0  14.9278350515464 0.090180360721442  14.7216494845361 0.270541082164329  L 0.309278350515465 12.877755511022  Z " fill-rule="nonzero" fill="#d7d7d7" stroke="none" fill-opacity="0.882352941176471" transform="matrix(1 0 0 1 25 70 )" />
  </g>
</svg>