<?xml version="1.0" encoding="utf-8"?>
<svg version="1.1" xmlns:xlink="http://www.w3.org/1999/xlink" width="23px" height="25px" xmlns="http://www.w3.org/2000/svg">
  <g transform="matrix(1 0 0 1 -407 -149 )">
    <path d="M 22.5807291666667 0.420673076923078  C 22.8602430555556 0.701121794871792  23 1.04166666666667  23 1.44230769230769  L 23 18.2692307692308  C 23 18.7700320512821  22.8302951388889 19.2157451923077  22.4908854166667 19.6063701923077  C 22.1514756944444 19.9969951923077  21.7222222222222 20.2999799679487  21.203125 20.5153245192308  C 20.6840277777778 20.7306690705128  20.1674262152778 20.8909254807692  19.6533203125 20.99609375  C 19.1392144097222 21.1012620192308  18.6575520833333 21.1538461538462  18.2083333333333 21.1538461538462  C 17.7591145833333 21.1538461538462  17.2774522569444 21.1012620192308  16.7633463541667 20.99609375  C 16.2492404513889 20.8909254807692  15.7326388888889 20.7306690705128  15.2135416666667 20.5153245192308  C 14.6944444444444 20.2999799679487  14.2651909722222 19.9969951923077  13.92578125 19.6063701923077  C 13.5863715277778 19.2157451923077  13.4166666666667 18.7700320512821  13.4166666666667 18.2692307692308  C 13.4166666666667 17.7684294871795  13.5863715277778 17.3227163461538  13.92578125 16.9320913461538  C 14.2651909722222 16.5414663461538  14.6944444444444 16.2384815705128  15.2135416666667 16.0231370192308  C 15.7326388888889 15.8077924679487  16.2492404513889 15.6475360576923  16.7633463541667 15.5423677884615  C 17.2774522569444 15.4371995192308  17.7591145833333 15.3846153846154  18.2083333333333 15.3846153846154  C 19.2565104166667 15.3846153846154  20.21484375 15.5799278846154  21.0833333333333 15.9705528846154  L 21.0833333333333 7.90264423076923  L 10 11.4633413461538  L 10 22.1153846153846  C 9.58333333333333 22.6161858974359  9.41362847222222 23.0618990384615  9.07421875 23.4525240384615  C 8.73480902777778 23.8431490384615  8.30555555555556 24.1461338141026  7.78645833333333 24.3614783653846  C 7.26736111111111 24.5768229166667  6.75075954861111 24.7370793269231  6.23665364583333 24.8422475961538  C 5.72254774305556 24.9474158653846  5.24088541666667 25  4.79166666666667 25  C 4.34244791666667 25  3.86078559027778 24.9474158653846  3.3466796875 24.8422475961538  C 2.83257378472222 24.7370793269231  2.31597222222222 24.5768229166667  1.796875 24.3614783653846  C 1.27777777777778 24.1461338141026  0.848524305555556 23.8431490384615  0.509114583333333 23.4525240384615  C 0.169704861111111 23.0618990384615  0 22.6161858974359  0 22.1153846153846  C 0 21.6145833333333  0.169704861111111 21.1688701923077  0.509114583333333 20.7782451923077  C 0.848524305555556 20.3876201923077  1.27777777777778 20.0846354166667  1.796875 19.8692908653846  C 2.31597222222222 19.6539463141026  2.83257378472222 19.4936899038462  3.3466796875 19.3885216346154  C 3.86078559027778 19.2833533653846  4.34244791666667 19.2307692307692  4.79166666666667 19.2307692307692  C 5.83984375 19.2307692307692  6.79817708333333 19.4260817307692  8 19.8167067307692  L 8 5.28846153846154  C 7.66666666666667 4.97796474358974  7.76150173611111 4.69501201923077  7.951171875 4.43960336538462  C 8.14084201388889 4.18419471153846  8.38541666666667 4.00641025641025  8.68489583333333 3.90625  L 21.1432291666667 0.0600961538461536  C 21.2630208333333 0.0200320512820512  21.4027777777778 0  21.5625 0  C 21.9618055555556 0  22.3012152777778 0.140224358974358  22.5807291666667 0.420673076923078  Z " fill-rule="nonzero" fill="#333333" stroke="none" transform="matrix(1 0 0 1 407 149 )" />
  </g>
</svg>