<?xml version="1.0" encoding="utf-8"?>
<svg version="1.1" xmlns:xlink="http://www.w3.org/1999/xlink" width="25px" height="33px" xmlns="http://www.w3.org/2000/svg">
  <g transform="matrix(1 0 0 1 -57 -262 )">
    <path d="M 15.2263875365141 32.77734375  C 15.0722168127231 32.92578125  14.8896462187601 33  14.6786757546251 33  L 10.491723466407 33  C 10.280753002272 33  10.098182408309 32.9296875  9.94401168451801 32.7890625  C 9.78984096072704 32.6484375  9.71275559883155 32.46875  9.71275559883155 32.25  L 9.71275559883155 24.515625  L 2.70204479065239 24.515625  C 2.49107432651736 24.515625  2.30850373255437 24.4453125  2.15433300876339 24.3046875  C 2.00016228497241 24.1640625  1.92307692307692 23.984375  1.92307692307692 23.765625  L 1.92307692307692 21.3515625  C 1.92307692307692 21.1484375  2.00016228497241 20.97265625  2.15433300876339 20.82421875  C 2.30850373255437 20.67578125  2.49107432651736 20.6015625  2.70204479065239 20.6015625  L 9.71275559883155 20.6015625  L 9.71275559883155 18.609375  L 2.70204479065239 18.609375  C 2.49107432651736 18.609375  2.30850373255437 18.5390625  2.15433300876339 18.3984375  C 2.00016228497241 18.2578125  1.92307692307692 18.078125  1.92307692307692 17.859375  L 1.92307692307692 15.421875  C 1.92307692307692 15.21875  2.00016228497241 15.04296875  2.15433300876339 14.89453125  C 2.30850373255437 14.74609375  2.49107432651736 14.671875  2.70204479065239 14.671875  L 7.91139240506329 14.671875  L 0.0973709834469328 1.125  C -0.032456994482311 0.874999999999999  -0.032456994482311 0.624999999999996  0.0973709834469328 0.375  C 0.259655955858488 0.125  0.486854917234664 0  0.778967867575463 0  L 5.5014605647517 0  C 5.80980201233366 0  6.04511522233041 0.140625  6.20740019474197 0.421875000000001  L 11.4410905550146 10.3828125  C 11.7494320025966 10.9765625  12.2038299253489 11.953125  12.8042843232717 13.3125  C 12.9665692956832 12.9375  13.2140538786108 12.40625  13.5467380720545 11.71875  C 13.8794222654982 11.03125  14.1025641025641 10.5546875  14.2161635832522 10.2890625  L 18.8656280428432 0.445312500000002  C 18.9954560207725 0.148437499999997  19.2307692307692 0  19.5715676728335 0  L 24.2210321324245 0  C 24.4969165855242 0  24.7160012982798 0.125  24.8782862706913 0.375  C 25.0243427458617 0.593749999999999  25.0324569944823 0.835937499999998  24.9026290165531 1.1015625  L 17.2833495618306 14.671875  L 22.5170399221032 14.671875  C 22.7280103862382 14.671875  22.9105809802012 14.74609375  23.0647517039922 14.89453125  C 23.2189224277832 15.04296875  23.2960077896787 15.21875  23.2960077896787 15.421875  L 23.2960077896787 17.859375  C 23.2960077896787 18.078125  23.2189224277832 18.2578125  23.0647517039922 18.3984375  C 22.9105809802012 18.5390625  22.7280103862382 18.609375  22.5170399221032 18.609375  L 15.4576436222006 18.609375  L 15.4576436222006 20.6015625  L 22.5170399221032 20.6015625  C 22.7280103862382 20.6015625  22.9105809802012 20.67578125  23.0647517039922 20.82421875  C 23.2189224277832 20.97265625  23.2960077896787 21.1484375  23.2960077896787 21.3515625  L 23.2960077896787 23.765625  C 23.2960077896787 23.984375  23.2189224277832 24.1640625  23.0647517039922 24.3046875  C 22.9105809802012 24.4453125  22.7280103862382 24.515625  22.5170399221032 24.515625  L 15.4576436222006 24.515625  L 15.4576436222006 32.25  C 15.4576436222006 32.453125  15.3805582603051 32.62890625  15.2263875365141 32.77734375  Z " fill-rule="nonzero" fill="#aaaaaa" stroke="none" transform="matrix(1 0 0 1 57 262 )" />
  </g>
</svg>