<?xml version="1.0" encoding="utf-8"?>
<svg version="1.1" xmlns:xlink="http://www.w3.org/1999/xlink" width="37px" height="19px" xmlns="http://www.w3.org/2000/svg">
  <g transform="matrix(1 0 0 1 -208 -489 )">
    <path d="M 36.6292585170341 1.95876288659794  C 36.876419505678 2.17640320733104  37 2.42668957617411  37 2.70962199312715  C 37 2.99255441008018  36.876419505678 3.24284077892325  36.6292585170341 3.46048109965636  L 19.3527054108216 18.6735395189003  C 19.1055444221777 18.8911798396334  18.8213092852371 19  18.5 19  C 18.1786907147629 19  17.8944555778223 18.8911798396334  17.6472945891784 18.6735395189003  L 0.370741482965932 3.46048109965636  C 0.123580494321978 3.24284077892325  0 2.99255441008018  0 2.70962199312715  C 0 2.42668957617411  0.123580494321978 2.17640320733104  0.370741482965932 1.95876288659794  L 2.22444889779559 0.326460481099657  C 2.47160988643955 0.10882016036655  2.75584502338009 0  3.07715430861723 0  C 3.39846359385438 0  3.68269873079492 0.10882016036655  3.92985971943888 0.326460481099657  L 18.5 13.1563573883162  L 33.0701402805611 0.326460481099657  C 33.3173012692051 0.10882016036655  33.6015364061456 0  33.9228456913828 0  C 34.2441549766199 0  34.5283901135605 0.10882016036655  34.7755511022044 0.326460481099657  L 36.6292585170341 1.95876288659794  Z " fill-rule="nonzero" fill="#cccccc" stroke="none" transform="matrix(1 0 0 1 208 489 )" />
  </g>
</svg>