<?xml version="1.0" encoding="utf-8"?>
<svg version="1.1" xmlns:xlink="http://www.w3.org/1999/xlink" width="140px" height="40px" xmlns="http://www.w3.org/2000/svg">
  <g transform="matrix(1 0 0 1 -155 -290 )">
    <path d="M 157 310  A 18 18 0 0 1 175 292 L 275 292  A 18 18 0 0 1 293 310 A 18 18 0 0 1 275 328 L 175 328  A 18 18 0 0 1 157 310 Z " fill-rule="nonzero" fill="#ffffff" stroke="none" />
    <path d="M 156 310  A 19 19 0 0 1 175 291 L 275 291  A 19 19 0 0 1 294 310 A 19 19 0 0 1 275 329 L 175 329  A 19 19 0 0 1 156 310 Z " stroke-width="2" stroke="#61a584" fill="none" stroke-opacity="0.996078431372549" />
  </g>
</svg>