<?xml version="1.0" encoding="utf-8"?>
<svg version="1.1" xmlns:xlink="http://www.w3.org/1999/xlink" width="25px" height="25px" xmlns="http://www.w3.org/2000/svg">
  <g transform="matrix(1 0 0 1 -65 -14 )">
    <path d="M 24.6907552083333 20.37109375  C 24.8969184027778 20.6184895833333  25 20.9114583333333  25 21.25  L 25 23.75  C 25 24.0885416666667  24.8969184027778 24.3815104166667  24.6907552083333 24.62890625  C 24.4845920138889 24.8763020833333  24.2404513888889 25  23.9583333333333 25  L 1.04166666666667 25  C 0.759548611111111 25  0.515407986111111 24.8763020833333  0.309244791666667 24.62890625  C 0.103081597222222 24.3815104166667  0 24.0885416666667  0 23.75  L 0 21.25  C 0 20.9114583333333  0.103081597222222 20.6184895833333  0.309244791666667 20.37109375  C 0.515407986111111 20.1236979166667  0.759548611111111 20  1.04166666666667 20  L 23.9583333333333 20  C 24.2404513888889 20  24.4845920138889 20.1236979166667  24.6907552083333 20.37109375  Z M 24.6907552083333 10.37109375  C 24.8969184027778 10.6184895833333  25 10.9114583333333  25 11.25  L 25 13.75  C 25 14.0885416666667  24.8969184027778 14.3815104166667  24.6907552083333 14.62890625  C 24.4845920138889 14.8763020833333  24.2404513888889 15  23.9583333333333 15  L 1.04166666666667 15  C 0.759548611111111 15  0.515407986111111 14.8763020833333  0.309244791666667 14.62890625  C 0.103081597222222 14.3815104166667  0 14.0885416666667  0 13.75  L 0 11.25  C 0 10.9114583333333  0.103081597222222 10.6184895833333  0.309244791666667 10.37109375  C 0.515407986111111 10.1236979166667  0.759548611111111 10  1.04166666666667 10  L 23.9583333333333 10  C 24.2404513888889 10  24.4845920138889 10.1236979166667  24.6907552083333 10.37109375  Z M 24.6907552083333 0.371093750000001  C 24.8969184027778 0.618489583333331  25 0.911458333333331  25 1.25  L 25 3.75  C 25 4.08854166666666  24.8969184027778 4.38151041666666  24.6907552083333 4.62890625  C 24.4845920138889 4.87630208333333  24.2404513888889 5  23.9583333333333 5  L 1.04166666666667 5  C 0.759548611111111 5  0.515407986111111 4.87630208333333  0.309244791666667 4.62890625  C 0.103081597222222 4.38151041666666  0 4.08854166666666  0 3.75  L 0 1.25  C 0 0.911458333333331  0.103081597222222 0.618489583333331  0.309244791666667 0.371093750000001  C 0.515407986111111 0.123697916666665  0.759548611111111 0  1.04166666666667 0  L 23.9583333333333 0  C 24.2404513888889 0  24.4845920138889 0.123697916666665  24.6907552083333 0.371093750000001  Z " fill-rule="nonzero" fill="#ffffff" stroke="none" transform="matrix(1 0 0 1 65 14 )" />
  </g>
</svg>