<?xml version="1.0" encoding="utf-8"?>
<svg version="1.1" xmlns:xlink="http://www.w3.org/1999/xlink" width="15px" height="15px" xmlns="http://www.w3.org/2000/svg">
  <g transform="matrix(1 0 0 1 -204 -763 )">
    <path d="M 211.5 763  C 215.7 763  219 766.3  219 770.5  C 219 774.7  215.7 778  211.5 778  C 207.3 778  204 774.7  204 770.5  C 204 766.3  207.3 763  211.5 763  Z " fill-rule="nonzero" fill="#ffffff" stroke="none" />
    <path d="M 211.5 763.5  C 215.42 763.5  218.5 766.58  218.5 770.5  C 218.5 774.42  215.42 777.5  211.5 777.5  C 207.58 777.5  204.5 774.42  204.5 770.5  C 204.5 766.58  207.58 763.5  211.5 763.5  Z " stroke-width="1" stroke="#797979" fill="none" />
  </g>
</svg>