<?xml version="1.0" encoding="utf-8"?>
<svg version="1.1" xmlns:xlink="http://www.w3.org/1999/xlink" width="38px" height="24px" xmlns="http://www.w3.org/2000/svg">
  <defs>
    <mask fill="white" id="clip40">
      <path d="M 37.1729910714286 0.693750000000001  C 37.7243303571429 0.906249999999999  38 1.275  38 1.8  L 38 22.2  C 38 22.725  37.7243303571429 23.09375  37.1729910714286 23.30625  C 36.9892113095238 23.36875  36.8125 23.4  36.6428571428571 23.4  C 36.2611607142857 23.4  35.9430803571429 23.28125  35.6886160714286 23.04375  L 27.1428571428571 15.4875  L 27.1428571428571 18.6  C 27.1428571428571 20.0875  26.5455729166667 21.359375  25.3510044642857 22.415625  C 24.1564360119048 23.471875  22.718005952381 24  21.0357142857143 24  L 6.10714285714286 24  C 4.42485119047619 24  2.98642113095238 23.471875  1.79185267857143 22.415625  C 0.597284226190476 21.359375  0 20.0875  0 18.6  L 0 5.4  C 0 3.9125  0.597284226190476 2.640625  1.79185267857143 1.584375  C 2.98642113095238 0.528124999999997  4.42485119047619 0  6.10714285714286 0  L 21.0357142857143 0  C 22.718005952381 0  24.1564360119048 0.528124999999997  25.3510044642857 1.584375  C 26.5455729166667 2.640625  27.1428571428571 3.9125  27.1428571428571 5.4  L 27.1428571428571 8.49375  L 35.6886160714286 0.956249999999999  C 35.9430803571429 0.718749999999999  36.2611607142857 0.600000000000001  36.6428571428571 0.600000000000001  C 36.8125 0.600000000000001  36.9892113095238 0.631249999999996  37.1729910714286 0.693750000000001  Z " fill-rule="evenodd" />
    </mask>
  </defs>
  <g transform="matrix(1 0 0 1 -314 -612 )">
    <path d="M 37.1729910714286 0.693750000000001  C 37.7243303571429 0.906249999999999  38 1.275  38 1.8  L 38 22.2  C 38 22.725  37.7243303571429 23.09375  37.1729910714286 23.30625  C 36.9892113095238 23.36875  36.8125 23.4  36.6428571428571 23.4  C 36.2611607142857 23.4  35.9430803571429 23.28125  35.6886160714286 23.04375  L 27.1428571428571 15.4875  L 27.1428571428571 18.6  C 27.1428571428571 20.0875  26.5455729166667 21.359375  25.3510044642857 22.415625  C 24.1564360119048 23.471875  22.718005952381 24  21.0357142857143 24  L 6.10714285714286 24  C 4.42485119047619 24  2.98642113095238 23.471875  1.79185267857143 22.415625  C 0.597284226190476 21.359375  0 20.0875  0 18.6  L 0 5.4  C 0 3.9125  0.597284226190476 2.640625  1.79185267857143 1.584375  C 2.98642113095238 0.528124999999997  4.42485119047619 0  6.10714285714286 0  L 21.0357142857143 0  C 22.718005952381 0  24.1564360119048 0.528124999999997  25.3510044642857 1.584375  C 26.5455729166667 2.640625  27.1428571428571 3.9125  27.1428571428571 5.4  L 27.1428571428571 8.49375  L 35.6886160714286 0.956249999999999  C 35.9430803571429 0.718749999999999  36.2611607142857 0.600000000000001  36.6428571428571 0.600000000000001  C 36.8125 0.600000000000001  36.9892113095238 0.631249999999996  37.1729910714286 0.693750000000001  Z " fill-rule="nonzero" fill="#ffffff" stroke="none" fill-opacity="0" transform="matrix(1 0 0 1 314 612 )" />
    <path d="M 37.1729910714286 0.693750000000001  C 37.7243303571429 0.906249999999999  38 1.275  38 1.8  L 38 22.2  C 38 22.725  37.7243303571429 23.09375  37.1729910714286 23.30625  C 36.9892113095238 23.36875  36.8125 23.4  36.6428571428571 23.4  C 36.2611607142857 23.4  35.9430803571429 23.28125  35.6886160714286 23.04375  L 27.1428571428571 15.4875  L 27.1428571428571 18.6  C 27.1428571428571 20.0875  26.5455729166667 21.359375  25.3510044642857 22.415625  C 24.1564360119048 23.471875  22.718005952381 24  21.0357142857143 24  L 6.10714285714286 24  C 4.42485119047619 24  2.98642113095238 23.471875  1.79185267857143 22.415625  C 0.597284226190476 21.359375  0 20.0875  0 18.6  L 0 5.4  C 0 3.9125  0.597284226190476 2.640625  1.79185267857143 1.584375  C 2.98642113095238 0.528124999999997  4.42485119047619 0  6.10714285714286 0  L 21.0357142857143 0  C 22.718005952381 0  24.1564360119048 0.528124999999997  25.3510044642857 1.584375  C 26.5455729166667 2.640625  27.1428571428571 3.9125  27.1428571428571 5.4  L 27.1428571428571 8.49375  L 35.6886160714286 0.956249999999999  C 35.9430803571429 0.718749999999999  36.2611607142857 0.600000000000001  36.6428571428571 0.600000000000001  C 36.8125 0.600000000000001  36.9892113095238 0.631249999999996  37.1729910714286 0.693750000000001  Z " stroke-width="4" stroke="#ffffff" fill="none" transform="matrix(1 0 0 1 314 612 )" mask="url(#clip40)" />
  </g>
</svg>