<?xml version="1.0" encoding="utf-8"?>
<svg version="1.1" xmlns:xlink="http://www.w3.org/1999/xlink" width="33px" height="30px" xmlns="http://www.w3.org/2000/svg">
  <defs>
    <mask fill="white" id="clip39">
      <path d="M 13.00234375 13.6388221153846  C 13.9705729166667 12.6231971153846  15.1364583333333 12.1153846153846  16.5 12.1153846153846  C 17.8635416666667 12.1153846153846  19.0294270833333 12.6231971153846  19.99765625 13.6388221153846  C 20.9658854166667 14.6544471153846  21.45 15.8774038461538  21.45 17.3076923076923  C 21.45 18.7379807692308  20.9658854166667 19.9609375  19.99765625 20.9765625  C 19.0294270833333 21.9921875  17.8635416666667 22.5  16.5 22.5  C 15.1364583333333 22.5  13.9705729166667 21.9921875  13.00234375 20.9765625  C 12.0341145833333 19.9609375  11.55 18.7379807692308  11.55 17.3076923076923  C 11.55 15.8774038461538  12.0341145833333 14.6544471153846  13.00234375 13.6388221153846  Z M 24.75 4.61538461538462  L 28.6 4.61538461538462  C 29.8145833333333 4.61538461538462  30.8515625 5.06610576923077  31.7109375 5.96754807692308  C 32.5703125 6.86899038461538  33 7.95673076923077  33 9.23076923076923  L 33 25.3846153846154  C 33 26.6586538461538  32.5703125 27.7463942307692  31.7109375 28.6478365384615  C 30.8515625 29.5492788461538  29.8145833333333 30  28.6 30  L 4.4 30  C 3.18541666666667 30  2.1484375 29.5492788461538  1.2890625 28.6478365384615  C 0.4296875 27.7463942307692  0 26.6586538461538  0 25.3846153846154  L 0 9.23076923076923  C 0 7.95673076923077  0.4296875 6.86899038461538  1.2890625 5.96754807692308  C 2.1484375 5.06610576923077  3.18541666666667 4.61538461538462  4.4 4.61538461538462  L 8.25 4.61538461538462  L 9.1265625 2.16346153846154  C 9.34427083333333 1.57451923076923  9.74244791666667 1.06670673076923  10.32109375 0.640024038461537  C 10.8997395833333 0.213341346153849  11.4927083333333 0  12.1 0  L 20.9 0  C 21.5072916666667 0  22.1002604166667 0.213341346153849  22.67890625 0.640024038461537  C 23.2575520833333 1.06670673076923  23.6557291666667 1.57451923076923  23.8734375 2.16346153846154  L 24.75 4.61538461538462  Z M 11.06015625 23.0138221153846  C 12.5669270833333 24.5943509615385  14.3802083333333 25.3846153846154  16.5 25.3846153846154  C 18.6197916666667 25.3846153846154  20.4330729166667 24.5943509615385  21.93984375 23.0138221153846  C 23.4466145833333 21.4332932692308  24.2 19.53125  24.2 17.3076923076923  C 24.2 15.0841346153846  23.4466145833333 13.1820913461538  21.93984375 11.6015625  C 20.4330729166667 10.0210336538462  18.6197916666667 9.23076923076923  16.5 9.23076923076923  C 14.3802083333333 9.23076923076923  12.5669270833333 10.0210336538462  11.06015625 11.6015625  C 9.55338541666667 13.1820913461538  8.8 15.0841346153846  8.8 17.3076923076923  C 8.8 19.53125  9.55338541666667 21.4332932692308  11.06015625 23.0138221153846  Z " fill-rule="evenodd" />
    </mask>
  </defs>
  <g transform="matrix(1 0 0 1 -91 -606 )">
    <path d="M 13.00234375 13.6388221153846  C 13.9705729166667 12.6231971153846  15.1364583333333 12.1153846153846  16.5 12.1153846153846  C 17.8635416666667 12.1153846153846  19.0294270833333 12.6231971153846  19.99765625 13.6388221153846  C 20.9658854166667 14.6544471153846  21.45 15.8774038461538  21.45 17.3076923076923  C 21.45 18.7379807692308  20.9658854166667 19.9609375  19.99765625 20.9765625  C 19.0294270833333 21.9921875  17.8635416666667 22.5  16.5 22.5  C 15.1364583333333 22.5  13.9705729166667 21.9921875  13.00234375 20.9765625  C 12.0341145833333 19.9609375  11.55 18.7379807692308  11.55 17.3076923076923  C 11.55 15.8774038461538  12.0341145833333 14.6544471153846  13.00234375 13.6388221153846  Z M 24.75 4.61538461538462  L 28.6 4.61538461538462  C 29.8145833333333 4.61538461538462  30.8515625 5.06610576923077  31.7109375 5.96754807692308  C 32.5703125 6.86899038461538  33 7.95673076923077  33 9.23076923076923  L 33 25.3846153846154  C 33 26.6586538461538  32.5703125 27.7463942307692  31.7109375 28.6478365384615  C 30.8515625 29.5492788461538  29.8145833333333 30  28.6 30  L 4.4 30  C 3.18541666666667 30  2.1484375 29.5492788461538  1.2890625 28.6478365384615  C 0.4296875 27.7463942307692  0 26.6586538461538  0 25.3846153846154  L 0 9.23076923076923  C 0 7.95673076923077  0.4296875 6.86899038461538  1.2890625 5.96754807692308  C 2.1484375 5.06610576923077  3.18541666666667 4.61538461538462  4.4 4.61538461538462  L 8.25 4.61538461538462  L 9.1265625 2.16346153846154  C 9.34427083333333 1.57451923076923  9.74244791666667 1.06670673076923  10.32109375 0.640024038461537  C 10.8997395833333 0.213341346153849  11.4927083333333 0  12.1 0  L 20.9 0  C 21.5072916666667 0  22.1002604166667 0.213341346153849  22.67890625 0.640024038461537  C 23.2575520833333 1.06670673076923  23.6557291666667 1.57451923076923  23.8734375 2.16346153846154  L 24.75 4.61538461538462  Z M 11.06015625 23.0138221153846  C 12.5669270833333 24.5943509615385  14.3802083333333 25.3846153846154  16.5 25.3846153846154  C 18.6197916666667 25.3846153846154  20.4330729166667 24.5943509615385  21.93984375 23.0138221153846  C 23.4466145833333 21.4332932692308  24.2 19.53125  24.2 17.3076923076923  C 24.2 15.0841346153846  23.4466145833333 13.1820913461538  21.93984375 11.6015625  C 20.4330729166667 10.0210336538462  18.6197916666667 9.23076923076923  16.5 9.23076923076923  C 14.3802083333333 9.23076923076923  12.5669270833333 10.0210336538462  11.06015625 11.6015625  C 9.55338541666667 13.1820913461538  8.8 15.0841346153846  8.8 17.3076923076923  C 8.8 19.53125  9.55338541666667 21.4332932692308  11.06015625 23.0138221153846  Z " fill-rule="nonzero" fill="#ffffff" stroke="none" fill-opacity="0" transform="matrix(1 0 0 1 91 606 )" />
    <path d="M 13.00234375 13.6388221153846  C 13.9705729166667 12.6231971153846  15.1364583333333 12.1153846153846  16.5 12.1153846153846  C 17.8635416666667 12.1153846153846  19.0294270833333 12.6231971153846  19.99765625 13.6388221153846  C 20.9658854166667 14.6544471153846  21.45 15.8774038461538  21.45 17.3076923076923  C 21.45 18.7379807692308  20.9658854166667 19.9609375  19.99765625 20.9765625  C 19.0294270833333 21.9921875  17.8635416666667 22.5  16.5 22.5  C 15.1364583333333 22.5  13.9705729166667 21.9921875  13.00234375 20.9765625  C 12.0341145833333 19.9609375  11.55 18.7379807692308  11.55 17.3076923076923  C 11.55 15.8774038461538  12.0341145833333 14.6544471153846  13.00234375 13.6388221153846  Z " stroke-width="4" stroke="#ffffff" fill="none" transform="matrix(1 0 0 1 91 606 )" mask="url(#clip39)" />
    <path d="M 24.75 4.61538461538462  L 28.6 4.61538461538462  C 29.8145833333333 4.61538461538462  30.8515625 5.06610576923077  31.7109375 5.96754807692308  C 32.5703125 6.86899038461538  33 7.95673076923077  33 9.23076923076923  L 33 25.3846153846154  C 33 26.6586538461538  32.5703125 27.7463942307692  31.7109375 28.6478365384615  C 30.8515625 29.5492788461538  29.8145833333333 30  28.6 30  L 4.4 30  C 3.18541666666667 30  2.1484375 29.5492788461538  1.2890625 28.6478365384615  C 0.4296875 27.7463942307692  0 26.6586538461538  0 25.3846153846154  L 0 9.23076923076923  C 0 7.95673076923077  0.4296875 6.86899038461538  1.2890625 5.96754807692308  C 2.1484375 5.06610576923077  3.18541666666667 4.61538461538462  4.4 4.61538461538462  L 8.25 4.61538461538462  L 9.1265625 2.16346153846154  C 9.34427083333333 1.57451923076923  9.74244791666667 1.06670673076923  10.32109375 0.640024038461537  C 10.8997395833333 0.213341346153849  11.4927083333333 0  12.1 0  L 20.9 0  C 21.5072916666667 0  22.1002604166667 0.213341346153849  22.67890625 0.640024038461537  C 23.2575520833333 1.06670673076923  23.6557291666667 1.57451923076923  23.8734375 2.16346153846154  L 24.75 4.61538461538462  Z " stroke-width="4" stroke="#ffffff" fill="none" transform="matrix(1 0 0 1 91 606 )" mask="url(#clip39)" />
    <path d="M 11.06015625 23.0138221153846  C 12.5669270833333 24.5943509615385  14.3802083333333 25.3846153846154  16.5 25.3846153846154  C 18.6197916666667 25.3846153846154  20.4330729166667 24.5943509615385  21.93984375 23.0138221153846  C 23.4466145833333 21.4332932692308  24.2 19.53125  24.2 17.3076923076923  C 24.2 15.0841346153846  23.4466145833333 13.1820913461538  21.93984375 11.6015625  C 20.4330729166667 10.0210336538462  18.6197916666667 9.23076923076923  16.5 9.23076923076923  C 14.3802083333333 9.23076923076923  12.5669270833333 10.0210336538462  11.06015625 11.6015625  C 9.55338541666667 13.1820913461538  8.8 15.0841346153846  8.8 17.3076923076923  C 8.8 19.53125  9.55338541666667 21.4332932692308  11.06015625 23.0138221153846  Z " stroke-width="4" stroke="#ffffff" fill="none" transform="matrix(1 0 0 1 91 606 )" mask="url(#clip39)" />
  </g>
</svg>