<?xml version="1.0" encoding="utf-8"?>
<svg version="1.1" xmlns:xlink="http://www.w3.org/1999/xlink" width="15px" height="15px" xmlns="http://www.w3.org/2000/svg">
  <g transform="matrix(1 0 0 1 -229 -764 )">
    <path d="M 236.5 764  C 240.7 764  244 767.3  244 771.5  C 244 775.7  240.7 779  236.5 779  C 232.3 779  229 775.7  229 771.5  C 229 767.3  232.3 764  236.5 764  Z " fill-rule="nonzero" fill="#868686" stroke="none" />
    <path d="M 236.5 764.5  C 240.42 764.5  243.5 767.58  243.5 771.5  C 243.5 775.42  240.42 778.5  236.5 778.5  C 232.58 778.5  229.5 775.42  229.5 771.5  C 229.5 767.58  232.58 764.5  236.5 764.5  Z " stroke-width="1" stroke="#797979" fill="none" />
  </g>
</svg>