<?xml version="1.0" encoding="utf-8"?>
<svg version="1.1" xmlns:xlink="http://www.w3.org/1999/xlink" width="25px" height="25px" xmlns="http://www.w3.org/2000/svg">
  <g transform="matrix(1 0 0 1 -20 -14 )">
    <path d="M 23.7193763919822 6.35516826923077  C 24.072011878248 6.35516826923077  24.3875278396437 6.43028846153846  24.6659242761693 6.58052884615385  C 25 6.78084935897436  25.0649591685226 7.00120192307692  24.8608017817372 7.24158653846154  L 9.82739420935412 24.6243990384615  C 9.58611729769859 24.8747996794872  9.19636228656273 25  8.65812917594655 25  C 8.58389012620639 25  8.4539717891611 24.989983974359  8.26837416481069 24.9699519230769  C 7.952858203415 24.9198717948718  7.71622123236823 24.8247195512821  7.55846325167038 24.6844951923077  C 7.40070527097253 24.5442708333333  7.35894580549369 24.3940304487179  7.43318485523385 24.2337740384615  L 12.9175946547884 12.0943509615385  L 1.61469933184855 13.6117788461538  C 1.54046028210839 13.6217948717949  1.42910170749814 13.6268028846154  1.28062360801782 13.6268028846154  C 0.946547884187082 13.6268028846154  0.65887156644395 13.5717147435897  0.417594654788419 13.4615384615385  C 0.0835189309576837 13.3112980769231  -0.0371195248700817 13.1159855769231  0.0556792873051225 12.8756009615385  L 5.65144766146993 0.480769230769232  C 5.7256867112101 0.340544871794871  5.87416481069042 0.225360576923078  6.09688195991091 0.135216346153846  C 6.3195991091314 0.0450721153846145  6.57943578322197 0  6.87639198218263 0  L 16.0077951002227 0  C 16.3604305864885 0  16.6573867854491 0.0626001602564069  16.8986636971047 0.187800480769232  C 17.1399406087602 0.313000801282051  17.260579064588 0.460737179487178  17.260579064588 0.631009615384615  C 17.260579064588 0.711137820512819  17.2141796585004 0.801282051282051  17.1213808463252 0.901442307692307  L 12.3608017817372 7.85757211538462  L 23.3853006681514 6.38521634615385  C 23.5337787676318 6.36518429487179  23.645137342242 6.35516826923077  23.7193763919822 6.35516826923077  Z " fill-rule="nonzero" fill="#ffffff" stroke="none" transform="matrix(1 0 0 1 20 14 )" />
  </g>
</svg>