<?xml version="1.0" encoding="utf-8"?>
<svg version="1.1" xmlns:xlink="http://www.w3.org/1999/xlink" width="20px" height="16px" xmlns="http://www.w3.org/2000/svg">
  <g transform="matrix(1 0 0 1 -287 -8 )">
    <path d="M 10.9470468431772 15.1569892473118  C 10.4514596062458 15.7189964157706  10.1357773251867 16  10 16  C 9.86422267481331 16  9.54854039375424 15.7189964157706  9.05295315682281 15.1569892473118  C 8.55736591989138 14.594982078853  8.30957230142566 14.2375149342891  8.30957230142566 14.0845878136201  C 8.30957230142566 13.8399044205496  8.52172437202987 13.6334528076464  8.94602851323829 13.4652329749104  C 9.37033265444671 13.2970131421744  9.72165648336728 13.2129032258065  10 13.2129032258065  C 10.2783435166327 13.2129032258065  10.6296673455533 13.2970131421744  11.0539714867617 13.4652329749104  C 11.4782756279701 13.6334528076464  11.6904276985743 13.8399044205496  11.6904276985743 14.0845878136201  C 11.6904276985743 14.2375149342891  11.4426340801086 14.594982078853  10.9470468431772 15.1569892473118  Z M 13.7016293279022 12.031541218638  C 13.1890699253225 12.605017921147  12.8716904276986 12.8917562724014  12.7494908350305 12.8917562724014  C 12.7359131025119 12.8917562724014  12.6001357773252 12.7961768219833  12.3421588594705 12.605017921147  C 12.0841819416157 12.4138590203106  11.7396469789545 12.2227001194743  11.3085539714868 12.031541218638  C 10.877460964019 11.8403823178017  10.4412763068568 11.7448028673835  10 11.7448028673835  C 9.55872369314325 11.7448028673835  9.12253903598099 11.8403823178017  8.69144602851324 12.031541218638  C 8.26035302104549 12.2227001194743  7.91751527494908 12.4138590203106  7.66293279022403 12.605017921147  C 7.40835030549898 12.7961768219833  7.27087576374745 12.8917562724014  7.25050916496945 12.8917562724014  C 7.12830957230143 12.8917562724014  6.81093007467753 12.605017921147  6.29837067209776 12.031541218638  C 5.78581126951799 11.458064516129  5.52953156822811 11.1025089605735  5.52953156822811 10.9648745519713  C 5.52953156822811 10.8654719235364  5.56347589952478 10.7775388291517  5.63136456211813 10.7010752688172  C 6.16089613034623 10.1123058542413  6.82620502376103 9.64970131421744  7.62729124236253 9.31326164874552  C 8.42837746096402 8.9768219832736  9.21928038017651 8.80860215053763  10 8.80860215053763  C 10.7807196198235 8.80860215053763  11.571622539036 8.9768219832736  12.3727087576375 9.31326164874552  C 13.173794976239 9.64970131421744  13.8391038696538 10.1123058542413  14.3686354378819 10.7010752688172  C 14.4365241004752 10.7775388291517  14.4704684317719 10.8654719235364  14.4704684317719 10.9648745519713  C 14.4704684317719 11.1025089605735  14.214188730482 11.458064516129  13.7016293279022 12.031541218638  Z M 16.4663951120163 8.91182795698925  C 15.9572301425662 9.48530465949821  15.6449422946368 9.77204301075269  15.5295315682281 9.77204301075269  C 15.4548540393754 9.77204301075269  15.3767820773931 9.74145758661887  15.2953156822811 9.68028673835125  C 14.3720298710115 8.87741935483871  13.5166327223354 8.28673835125448  12.7291242362525 7.90824372759857  C 11.9416157501697 7.52974910394265  11.0319076714189 7.3405017921147  10 7.3405017921147  C 9.42294636795655 7.3405017921147  8.84419551934827 7.42461170848268  8.26374745417515 7.59283154121864  C 7.68329938900204 7.7610513739546  7.1775288526816 7.9636798088411  6.74643584521385 8.20071684587814  C 6.3153428377461 8.43775388291517  5.93007467752885 8.67479091995221  5.59063136456212 8.91182795698925  C 5.25118805159538 9.14886499402628  4.98302783435166 9.35149342891278  4.78615071283096 9.51971326164875  C 4.58927359131025 9.68793309438471  4.48404616429056 9.77204301075269  4.47046843177189 9.77204301075269  C 4.3550577053632 9.77204301075269  4.04276985743381 9.48530465949821  3.53360488798371 8.91182795698925  C 3.02443991853361 8.33835125448029  2.76985743380855 7.98279569892473  2.76985743380855 7.84516129032258  C 2.76985743380855 7.75340501792115  2.80380176510523 7.66929510155317  2.87169042769857 7.59283154121864  C 3.76782077393075 6.58351254480287  4.85403937542431 5.79976105137395  6.13034623217923 5.2415770609319  C 7.40665308893415 4.68339307048984  8.69653767820774 4.40430107526882  10 4.40430107526882  C 11.3034623217923 4.40430107526882  12.5933469110659 4.68339307048984  13.8696537678208 5.2415770609319  C 15.1459606245757 5.79976105137395  16.2321792260692 6.58351254480287  17.1283095723014 7.59283154121864  C 17.1961982348948 7.66929510155317  17.2301425661915 7.75340501792115  17.2301425661914 7.84516129032258  C 17.2301425661915 7.98279569892473  16.9755600814664 8.33835125448029  16.4663951120163 8.91182795698925  Z M 19.2311608961303 5.80358422939068  C 18.7186014935506 6.37706093189964  18.4046164290563 6.66379928315412  18.2892057026477 6.66379928315412  C 18.214528173795 6.66379928315412  18.1398506449423 6.62939068100359  18.0651731160896 6.56057347670251  C 16.8499660556687 5.36009557945042  15.5889341479973 4.45591397849462  14.2820773930754 3.84802867383513  C 12.9752206381534 3.24014336917563  11.5478615071283 2.93620071684588  10 2.93620071684588  C 8.45213849287169 2.93620071684588  7.02477936184657 3.24014336917563  5.71792260692464 3.84802867383513  C 4.41106585200272 4.45591397849462  3.1500339443313 5.36009557945042  1.93482688391039 6.56057347670251  C 1.86014935505771 6.62939068100359  1.78547182620502 6.66379928315412  1.71079429735234 6.66379928315412  C 1.59538357094365 6.66379928315412  1.28139850644942 6.37706093189964  0.768839103869654 5.80358422939068  C 0.256279701289885 5.23010752688172  0 4.87455197132616  0 4.73691756272402  C 0 4.63751493428913  0.0339443312966735 4.54958183990442  0.10183299389002 4.47311827956989  C 1.37135098438561 3.05089605734767  2.88187372708758 1.94982078853047  4.63340122199593 1.16989247311828  C 6.38492871690428 0.389964157706093  8.17379497623897 0  10 0  C 11.826205023761 0  13.6150712830957 0.389964157706093  15.3665987780041 1.16989247311828  C 17.1181262729124 1.94982078853047  18.6286490156144 3.05089605734767  19.89816700611 4.47311827956989  C 19.9660556687033 4.54958183990442  20 4.63751493428913  20 4.73691756272402  C 20 4.87455197132616  19.7437202987101 5.23010752688172  19.2311608961303 5.80358422939068  Z " fill-rule="nonzero" fill="#333333" stroke="none" transform="matrix(1 0 0 1 287 8 )" />
  </g>
</svg>