<?xml version="1.0" encoding="utf-8"?>
<svg version="1.1" xmlns:xlink="http://www.w3.org/1999/xlink" width="80px" height="80px" xmlns="http://www.w3.org/2000/svg">
  <g transform="matrix(1 0 0 1 -185 -114 )">
    <path d="M 51.875 47.1875  C 55.3819444444445 49.7569444444444  57.7777777777778 53.1423611111111  59.0625 57.34375  C 59.3402777777778 58.2118055555556  59.2708333333333 59.0538194444444  58.8541666666667 59.8697916666667  C 58.4375 60.6857638888889  57.7951388888889 61.2326388888889  56.9270833333333 61.5104166666667  C 56.0590277777778 61.7881944444444  55.2083333333333 61.71875  54.375 61.3020833333333  C 53.5416666666667 60.8854166666667  52.9861111111111 60.2256944444444  52.7083333333333 59.3229166666667  C 51.8402777777778 56.5451388888889  50.234375 54.296875  47.890625 52.578125  C 45.546875 50.859375  42.9166666666667 50  40 50  C 37.0833333333333 50  34.453125 50.859375  32.109375 52.578125  C 29.765625 54.296875  28.1597222222222 56.5451388888889  27.2916666666667 59.3229166666667  C 27.0138888888889 60.2256944444444  26.4670138888889 60.8854166666667  25.6510416666667 61.3020833333333  C 24.8350694444444 61.71875  23.9930555555556 61.7881944444444  23.125 61.5104166666667  C 22.2222222222222 61.2326388888889  21.5625 60.6857638888889  21.1458333333333 59.8697916666667  C 20.7291666666667 59.0538194444444  20.6597222222222 58.2118055555556  20.9375 57.34375  C 22.2222222222222 53.1423611111111  24.6180555555556 49.7569444444444  28.125 47.1875  C 31.6319444444444 44.6180555555556  35.5902777777778 43.3333333333333  40 43.3333333333333  C 44.4097222222222 43.3333333333333  48.3680555555556 44.6180555555556  51.875 47.1875  Z M 31.3802083333333 21.953125  C 32.6822916666667 23.2552083333333  33.3333333333333 24.8263888888889  33.3333333333333 26.6666666666667  C 33.3333333333333 28.5069444444444  32.6822916666667 30.078125  31.3802083333333 31.3802083333333  C 30.078125 32.6822916666667  28.5069444444444 33.3333333333333  26.6666666666667 33.3333333333333  C 24.8263888888889 33.3333333333333  23.2552083333333 32.6822916666667  21.953125 31.3802083333333  C 20.6510416666667 30.078125  20 28.5069444444444  20 26.6666666666667  C 20 24.8263888888889  20.6510416666667 23.2552083333333  21.953125 21.953125  C 23.2552083333333 20.6510416666667  24.8263888888889 20  26.6666666666667 20  C 28.5069444444444 20  30.078125 20.6510416666667  31.3802083333333 21.953125  Z M 58.046875 21.953125  C 59.3489583333333 23.2552083333333  60 24.8263888888889  60 26.6666666666667  C 60 28.5069444444444  59.3489583333333 30.078125  58.046875 31.3802083333333  C 56.7447916666667 32.6822916666667  55.1736111111111 33.3333333333333  53.3333333333333 33.3333333333333  C 51.4930555555556 33.3333333333333  49.921875 32.6822916666667  48.6197916666667 31.3802083333333  C 47.3177083333333 30.078125  46.6666666666667 28.5069444444444  46.6666666666667 26.6666666666667  C 46.6666666666667 24.8263888888889  47.3177083333333 23.2552083333333  48.6197916666667 21.953125  C 49.921875 20.6510416666667  51.4930555555556 20  53.3333333333333 20  C 55.1736111111111 20  56.7447916666667 20.6510416666667  58.046875 21.953125  Z M 70.6770833333333 52.9427083333333  C 72.4479166666667 48.828125  73.3333333333333 44.5138888888889  73.3333333333333 40  C 73.3333333333333 35.4861111111111  72.4479166666667 31.171875  70.6770833333333 27.0572916666667  C 68.90625 22.9427083333333  66.5364583333333 19.4010416666667  63.5677083333333 16.4322916666667  C 60.5989583333333 13.4635416666667  57.0572916666667 11.09375  52.9427083333333 9.32291666666667  C 48.828125 7.55208333333333  44.5138888888889 6.66666666666667  40 6.66666666666667  C 35.4861111111111 6.66666666666667  31.171875 7.55208333333333  27.0572916666667 9.32291666666667  C 22.9427083333333 11.09375  19.4010416666667 13.4635416666667  16.4322916666667 16.4322916666667  C 13.4635416666667 19.4010416666667  11.09375 22.9427083333333  9.32291666666667 27.0572916666667  C 7.55208333333333 31.171875  6.66666666666667 35.4861111111111  6.66666666666667 40  C 6.66666666666667 44.5138888888889  7.55208333333333 48.828125  9.32291666666667 52.9427083333333  C 11.09375 57.0572916666667  13.4635416666667 60.5989583333333  16.4322916666667 63.5677083333333  C 19.4010416666667 66.5364583333333  22.9427083333333 68.90625  27.0572916666667 70.6770833333333  C 31.171875 72.4479166666667  35.4861111111111 73.3333333333333  40 73.3333333333333  C 44.5138888888889 73.3333333333333  48.828125 72.4479166666667  52.9427083333333 70.6770833333333  C 57.0572916666667 68.90625  60.5989583333333 66.5364583333333  63.5677083333333 63.5677083333333  C 66.5364583333333 60.5989583333333  68.90625 57.0572916666667  70.6770833333333 52.9427083333333  Z M 74.6354166666667 19.921875  C 78.2118055555555 26.0503472222222  80 32.7430555555555  80 40  C 80 47.2569444444444  78.2118055555555 53.9496527777778  74.6354166666667 60.078125  C 71.0590277777778 66.2065972222222  66.2065972222222 71.0590277777778  60.078125 74.6354166666667  C 53.9496527777778 78.2118055555556  47.2569444444444 80  40 80  C 32.7430555555556 80  26.0503472222222 78.2118055555556  19.921875 74.6354166666667  C 13.7934027777778 71.0590277777778  8.94097222222222 66.2065972222222  5.36458333333333 60.078125  C 1.78819444444444 53.9496527777778  0 47.2569444444444  0 40  C 0 32.7430555555555  1.78819444444444 26.0503472222222  5.36458333333333 19.921875  C 8.94097222222222 13.7934027777778  13.7934027777778 8.94097222222221  19.921875 5.36458333333333  C 26.0503472222222 1.78819444444444  32.7430555555556 0  40 0  C 47.2569444444444 0  53.9496527777778 1.78819444444444  60.078125 5.36458333333333  C 66.2065972222222 8.94097222222221  71.0590277777778 13.7934027777778  74.6354166666667 19.921875  Z " fill-rule="nonzero" fill="#61a584" stroke="none" transform="matrix(1 0 0 1 185 114 )" />
  </g>
</svg>