<?xml version="1.0" encoding="utf-8"?>
<svg version="1.1" xmlns:xlink="http://www.w3.org/1999/xlink" width="14px" height="20px" xmlns="http://www.w3.org/2000/svg">
  <g transform="matrix(1 0 0 1 -402 -127 )">
    <path d="M 0.240549828178693 1.20240480961924  C 0.0801832760595644 1.33600534402137  0 1.48964595858383  0 1.66332665330661  C 0 1.83700734802939  0.0801832760595644 1.99064796259185  0.240549828178693 2.12424849699399  L 6.50516841532894 7.3432694213018  L 9.69415807560137 10  L 0.240549828178693 17.875751503006  C 0.0801832760595644 18.0093520374081  0 18.1629926519706  0 18.3366733466934  C 0 18.5103540414162  0.0801832760595644 18.6639946559786  0.240549828178693 18.7975951903808  L 1.44329896907216 19.7995991983968  C 1.60366552119129 19.9331997327989  1.78808705612829 20  1.99656357388316 20  C 2.20504009163803 20  2.38946162657503 19.9331997327989  2.54982817869416 19.7995991983968  L 13.7594501718213 10.4609218436874  C 13.9198167239404 10.3273213092852  14 10.1736806947228  14 10  C 14 9.82631930527722  13.9198167239404 9.67267869071476  13.7594501718213 9.53907815631263  L 2.54982817869416 0.200400801603209  C 2.38946162657503 0.0668002672010696  2.20504009163803 0  1.99656357388316 0  C 1.78808705612829 0  1.60366552119129 0.0668002672010696  1.44329896907216 0.200400801603209  L 0.240549828178693 1.20240480961924  Z " fill-rule="nonzero" fill="#d4d4d4" stroke="none" transform="matrix(1 0 0 1 402 127 )" />
  </g>
</svg>