<?xml version="1.0" encoding="utf-8"?>
<svg version="1.1" xmlns:xlink="http://www.w3.org/1999/xlink" width="24px" height="30px" xmlns="http://www.w3.org/2000/svg">
  <g transform="matrix(1 0 0 1 -32 -40 )">
    <path d="M 23.5876288659794 1.80360721442886  C 23.8625429553265 2.00400801603206  24 2.23446893787575  24 2.49498997995992  C 24 2.75551102204409  23.8625429553265 2.98597194388778  23.5876288659794 3.18637274549098  L 12.848282716579 11.0149041319527  L 7.38144329896907 15  L 23.5876288659794 26.813627254509  C 23.8625429553265 27.0140280561122  24 27.2444889779559  24 27.5050100200401  C 24 27.7655310621243  23.8625429553265 27.9959919839679  23.5876288659794 28.1963927855711  L 21.5257731958763 29.6993987975952  C 21.2508591065292 29.8997995991984  20.9347079037801 30  20.5773195876289 30  C 20.2199312714777 30  19.9037800687285 29.8997995991984  19.6288659793814 29.6993987975952  L 0.412371134020617 15.6913827655311  C 0.137457044673539 15.4909819639279  0 15.2605210420842  0 15  C 0 14.7394789579158  0.137457044673539 14.5090180360721  0.412371134020617 14.3086172344689  L 19.6288659793814 0.300601202404813  C 19.9037800687285 0.100200400801604  20.2199312714777 0  20.5773195876289 0  C 20.9347079037801 0  21.2508591065292 0.100200400801604  21.5257731958763 0.300601202404813  L 23.5876288659794 1.80360721442886  Z " fill-rule="nonzero" fill="#d4d4d4" stroke="none" transform="matrix(1 0 0 1 32 40 )" />
  </g>
</svg>