<?xml version="1.0" encoding="utf-8"?>
<svg version="1.1" xmlns:xlink="http://www.w3.org/1999/xlink" width="28px" height="41px" xmlns="http://www.w3.org/2000/svg">
  <g transform="matrix(1 0 0 1 -22 -63 )">
    <path d="M 18.94921875 18.498046875  C 20.31640625 17.1634114583333  21 15.5529513888889  21 13.6666666666667  C 21 11.7803819444444  20.31640625 10.169921875  18.94921875 8.83528645833333  C 17.58203125 7.50065104166667  15.9322916666667 6.83333333333333  14 6.83333333333333  C 12.0677083333333 6.83333333333333  10.41796875 7.50065104166667  9.05078125 8.83528645833333  C 7.68359375 10.169921875  7 11.7803819444444  7 13.6666666666667  C 7 15.5529513888889  7.68359375 17.1634114583333  9.05078125 18.498046875  C 10.41796875 19.8326822916667  12.0677083333333 20.5  14 20.5  C 15.9322916666667 20.5  17.58203125 19.8326822916667  18.94921875 18.498046875  Z M 23.8984375 4.00390625  C 26.6328125 6.67317708333333  28 9.89409722222222  28 13.6666666666667  C 28 15.6063368055556  27.69921875 17.1990017361111  27.09765625 18.4446614583333  L 17.14453125 39.1048177083333  C 16.8528645833333 39.6920572916667  16.419921875 40.1547309027778  15.845703125 40.4928385416667  C 15.271484375 40.8309461805556  14.65625 41  14 41  C 13.34375 41  12.728515625 40.8309461805556  12.154296875 40.4928385416667  C 11.580078125 40.1547309027778  11.15625 39.6920572916667  10.8828125 39.1048177083333  L 0.90234375 18.4446614583333  C 0.30078125 17.1990017361111  0 15.6063368055556  0 13.6666666666667  C 0 9.89409722222222  1.3671875 6.67317708333333  4.1015625 4.00390625  C 6.8359375 1.33463541666667  10.1354166666667 0  14 0  C 17.8645833333333 0  21.1640625 1.33463541666667  23.8984375 4.00390625  Z " fill-rule="nonzero" fill="#fd8c07" stroke="none" transform="matrix(1 0 0 1 22 63 )" />
  </g>
</svg>