<?xml version="1.0" encoding="utf-8"?>
<svg version="1.1" xmlns:xlink="http://www.w3.org/1999/xlink" width="50px" height="19px" xmlns="http://www.w3.org/2000/svg">
  <g transform="matrix(1 0 0 1 -200 -489 )">
    <path d="M 49.498997995992 1.95876288659794  C 49.8329993319973 2.17640320733104  50 2.42668957617411  50 2.70962199312715  C 50 2.99255441008018  49.8329993319973 3.24284077892325  49.498997995992 3.46048109965636  L 26.1523046092184 18.6735395189003  C 25.8183032732131 18.8911798396334  25.4342017368069 19  25 19  C 24.5657982631931 19  24.1816967267869 18.8911798396334  23.8476953907816 18.6735395189003  L 0.501002004008016 3.46048109965636  C 0.167000668002672 3.24284077892325  0 2.99255441008018  0 2.70962199312715  C 0 2.42668957617411  0.167000668002672 2.17640320733104  0.501002004008016 1.95876288659794  L 3.0060120240481 0.326460481099657  C 3.34001336005344 0.10882016036655  3.72411489645959 0  4.15831663326653 0  C 4.59251837007348 0  4.97661990647963 0.10882016036655  5.31062124248497 0.326460481099657  L 25 13.1563573883162  L 44.689378757515 0.326460481099657  C 45.0233800935204 0.10882016036655  45.4074816299265 0  45.8416833667335 0  C 46.2758851035404 0  46.6599866399466 0.10882016036655  46.9939879759519 0.326460481099657  L 49.498997995992 1.95876288659794  Z " fill-rule="nonzero" fill="#cccccc" stroke="none" transform="matrix(1 0 0 1 200 489 )" />
  </g>
</svg>