<?xml version="1.0" encoding="utf-8"?>
<svg version="1.1" xmlns:xlink="http://www.w3.org/1999/xlink" width="30px" height="25px" xmlns="http://www.w3.org/2000/svg">
  <g transform="matrix(1 0 0 1 -30 -210 )">
    <path d="M 10.0864955357143 8.94368489583333  C 10.5050223214286 9.3505859375  10.7142857142857 9.84157986111111  10.7142857142857 10.4166666666667  C 10.7142857142857 10.9917534722222  10.5050223214286 11.4827473958333  10.0864955357143 11.8896484375  C 9.66796875 12.2965494791667  9.16294642857143 12.5  8.57142857142857 12.5  C 7.97991071428572 12.5  7.47488839285714 12.2965494791667  7.05636160714286 11.8896484375  C 6.63783482142857 11.4827473958333  6.42857142857143 10.9917534722222  6.42857142857143 10.4166666666667  C 6.42857142857143 9.84157986111111  6.63783482142857 9.3505859375  7.05636160714286 8.94368489583333  C 7.47488839285714 8.53678385416667  7.97991071428572 8.33333333333333  8.57142857142857 8.33333333333333  C 9.16294642857143 8.33333333333333  9.66796875 8.53678385416667  10.0864955357143 8.94368489583333  Z M 16.5150669642857 8.94368489583333  C 16.93359375 9.3505859375  17.1428571428571 9.84157986111111  17.1428571428571 10.4166666666667  C 17.1428571428571 10.9917534722222  16.93359375 11.4827473958333  16.5150669642857 11.8896484375  C 16.0965401785714 12.2965494791667  15.5915178571429 12.5  15 12.5  C 14.4084821428571 12.5  13.9034598214286 12.2965494791667  13.4849330357143 11.8896484375  C 13.06640625 11.4827473958333  12.8571428571429 10.9917534722222  12.8571428571429 10.4166666666667  C 12.8571428571429 9.84157986111111  13.06640625 9.3505859375  13.4849330357143 8.94368489583333  C 13.9034598214286 8.53678385416667  14.4084821428571 8.33333333333333  15 8.33333333333333  C 15.5915178571429 8.33333333333333  16.0965401785714 8.53678385416667  16.5150669642857 8.94368489583333  Z M 22.9436383928571 8.94368489583333  C 23.3621651785714 9.3505859375  23.5714285714286 9.84157986111111  23.5714285714286 10.4166666666667  C 23.5714285714286 10.9917534722222  23.3621651785714 11.4827473958333  22.9436383928571 11.8896484375  C 22.5251116071429 12.2965494791667  22.0200892857143 12.5  21.4285714285714 12.5  C 20.8370535714286 12.5  20.33203125 12.2965494791667  19.9135044642857 11.8896484375  C 19.4949776785714 11.4827473958333  19.2857142857143 10.9917534722222  19.2857142857143 10.4166666666667  C 19.2857142857143 9.84157986111111  19.4949776785714 9.3505859375  19.9135044642857 8.94368489583333  C 20.33203125 8.53678385416667  20.8370535714286 8.33333333333333  21.4285714285714 8.33333333333333  C 22.0200892857143 8.33333333333333  22.5251116071429 8.53678385416667  22.9436383928571 8.94368489583333  Z M 21.38671875 3.21451822916667  C 19.4056919642857 2.46039496527778  17.2767857142857 2.08333333333333  15 2.08333333333333  C 12.7232142857143 2.08333333333333  10.5943080357143 2.46039496527778  8.61328125 3.21451822916667  C 6.63225446428571 3.96864149305556  5.05859375 4.98589409722222  3.89229910714286 6.26627604166667  C 2.72600446428571 7.54665798611111  2.14285714285714 8.93012152777778  2.14285714285714 10.4166666666667  C 2.14285714285714 11.6319444444444  2.54185267857143 12.7902560763889  3.33984375 13.8916015625  C 4.13783482142857 14.9929470486111  5.26227678571429 15.9450954861111  6.71316964285714 16.748046875  L 8.16964285714286 17.5618489583333  L 7.71763392857143 19.1243489583333  C 7.44977678571429 20.1117621527778  7.05915178571429 21.044921875  6.54575892857143 21.923828125  C 8.2421875 21.240234375  9.77678571428572 20.3125  11.1495535714286 19.140625  L 11.8694196428571 18.5221354166667  L 12.8236607142857 18.6197916666667  C 13.59375 18.7065972222222  14.3191964285714 18.75  15 18.75  C 17.2767857142857 18.75  19.4056919642857 18.3729383680556  21.38671875 17.6188151041667  C 23.3677455357143 16.8646918402778  24.94140625 15.8474392361111  26.1077008928571 14.5670572916667  C 27.2739955357143 13.2866753472222  27.8571428571429 11.9032118055556  27.8571428571429 10.4166666666667  C 27.8571428571429 8.93012152777778  27.2739955357143 7.54665798611111  26.1077008928571 6.26627604166667  C 24.94140625 4.98589409722222  23.3677455357143 3.96864149305556  21.38671875 3.21451822916667  Z M 28.8113839285714 6.3720703125  C 29.6037946428571 7.65787760416667  30 9.00607638888889  30 10.4166666666667  C 30 12.3046875  29.3303571428571 14.0489366319444  27.9910714285714 15.6494140625  C 26.6517857142857 17.2498914930556  24.8325892857143 18.5139973958333  22.5334821428571 19.4417317708333  C 20.234375 20.3694661458333  17.7232142857143 20.8333333333333  15 20.8333333333333  C 14.21875 20.8333333333333  13.4095982142857 20.7899305555556  12.5725446428571 20.703125  C 10.3627232142857 22.6019965277778  7.79575892857143 23.9149305555556  4.87165178571429 24.6419270833333  C 4.32477678571429 24.7938368055556  3.68861607142857 24.9131944444444  2.96316964285714 25  L 2.87946428571429 25  C 2.71205357142857 25  2.56138392857143 24.9430338541667  2.42745535714286 24.8291015625  C 2.29352678571429 24.7151692708333  2.20424107142857 24.5659722222222  2.15959821428571 24.3815104166667  L 2.15959821428571 24.365234375  C 2.12611607142857 24.3218315972222  2.12332589285714 24.2567274305556  2.15122767857143 24.169921875  C 2.17912946428571 24.0831163194444  2.19029017857143 24.0288628472222  2.18470982142857 24.0071614583333  C 2.17912946428571 23.9854600694444  2.20424107142857 23.9339192708333  2.26004464285714 23.8525390625  L 2.36049107142857 23.7060546875  C 2.36049107142857 23.7060546875  2.39955357142857 23.6599392361111  2.47767857142857 23.5677083333333  C 2.55580357142857 23.4754774305556  2.60044642857143 23.4266493055556  2.61160714285714 23.4212239583333  C 2.68973214285714 23.3344184027778  2.86272321428571 23.1472439236111  3.13058035714286 22.8597005208333  C 3.3984375 22.5721571180556  3.59095982142857 22.3659939236111  3.70814732142857 22.2412109375  C 3.82533482142857 22.1164279513889  3.99832589285714 21.9021267361111  4.22712053571429 21.5983072916667  C 4.45591517857143 21.2944878472222  4.63727678571429 21.0177951388889  4.77120535714286 20.7682291666667  C 4.90513392857143 20.5186631944444  5.05580357142857 20.1985677083333  5.22321428571429 19.8079427083333  C 5.390625 19.4173177083333  5.53571428571429 19.0049913194444  5.65848214285714 18.5709635416667  C 3.90625 17.6052517361111  2.52511160714286 16.4116753472222  1.51506696428571 14.990234375  C 0.505022321428571 13.5687934027778  0 12.0442708333333  0 10.4166666666667  C 0 9.00607638888889  0.396205357142857 7.65787760416667  1.18861607142857 6.3720703125  C 1.98102678571429 5.08626302083333  3.046875 3.97677951388889  4.38616071428571 3.04361979166667  C 5.72544642857143 2.11046006944444  7.32142857142857 1.36990017361111  9.17410714285714 0.821940104166666  C 11.0267857142857 0.273980034722221  12.96875 0  15 0  C 17.03125 0  18.9732142857143 0.273980034722221  20.8258928571429 0.821940104166666  C 22.6785714285714 1.36990017361111  24.2745535714286 2.11046006944444  25.6138392857143 3.04361979166667  C 26.953125 3.97677951388889  28.0189732142857 5.08626302083333  28.8113839285714 6.3720703125  Z " fill-rule="nonzero" fill="#7f7f7f" stroke="none" transform="matrix(1 0 0 1 30 210 )" />
  </g>
</svg>