<?xml version="1.0" encoding="utf-8"?>
<svg version="1.1" xmlns:xlink="http://www.w3.org/1999/xlink" width="30px" height="25px" xmlns="http://www.w3.org/2000/svg">
  <g transform="matrix(1 0 0 1 -30 -265 )">
    <path d="M 14.28955078125 10.6689453125  C 13.19091796875 11.8896484375  11.865234375 12.5  10.3125 12.5  C 8.759765625 12.5  7.43408203125 11.8896484375  6.33544921875 10.6689453125  C 5.23681640625 9.4482421875  4.6875 7.97526041666667  4.6875 6.25  C 4.6875 4.52473958333333  5.23681640625 3.0517578125  6.33544921875 1.8310546875  C 7.43408203125 0.6103515625  8.759765625 0  10.3125 0  C 11.865234375 0  13.19091796875 0.6103515625  14.28955078125 1.8310546875  C 15.38818359375 3.0517578125  15.9375 4.52473958333333  15.9375 6.25  C 15.9375 7.97526041666667  15.38818359375 9.4482421875  14.28955078125 10.6689453125  Z M 24.375 8.85416666666667  L 24.375 14.5833333333333  L 29.53125 14.5833333333333  C 29.658203125 14.5833333333333  29.76806640625 14.6348741319444  29.86083984375 14.7379557291667  C 29.95361328125 14.8410373263889  30 14.9631076388889  30 15.1041666666667  L 30 18.2291666666667  C 30 18.3702256944444  29.95361328125 18.4922960069444  29.86083984375 18.5953776041667  C 29.76806640625 18.6984592013889  29.658203125 18.75  29.53125 18.75  L 24.375 18.75  L 24.375 24.4791666666667  C 24.375 24.6202256944444  24.32861328125 24.7422960069444  24.23583984375 24.8453776041667  C 24.14306640625 24.9484592013889  24.033203125 25  23.90625 25  L 21.09375 25  C 20.966796875 25  20.85693359375 24.9484592013889  20.76416015625 24.8453776041667  C 20.67138671875 24.7422960069444  20.625 24.6202256944444  20.625 24.4791666666667  L 20.625 18.75  L 15.46875 18.75  C 15.341796875 18.75  15.23193359375 18.6984592013889  15.13916015625 18.5953776041667  C 15.04638671875 18.4922960069444  15 18.3702256944444  15 18.2291666666667  L 15 15.1041666666667  C 15 14.9631076388889  15.04638671875 14.8410373263889  15.13916015625 14.7379557291667  C 15.23193359375 14.6348741319444  15.341796875 14.5833333333333  15.46875 14.5833333333333  L 20.625 14.5833333333333  L 20.625 8.85416666666667  C 20.625 8.71310763888889  20.67138671875 8.59103732638889  20.76416015625 8.48795572916667  C 20.85693359375 8.38487413194444  20.966796875 8.33333333333333  21.09375 8.33333333333333  L 23.90625 8.33333333333333  C 24.033203125 8.33333333333333  24.14306640625 8.38487413194444  24.23583984375 8.48795572916667  C 24.32861328125 8.59103732638889  24.375 8.71310763888889  24.375 8.85416666666667  Z M 13.59375 15.1041666666667  L 13.59375 18.2291666666667  C 13.59375 18.7934027777778  13.779296875 19.2816840277778  14.150390625 19.6940104166667  C 14.521484375 20.1063368055556  14.9609375 20.3125  15.46875 20.3125  L 19.21875 20.3125  L 19.21875 24.1861979166667  C 18.5546875 24.7287326388889  17.7197265625 25  16.7138671875 25  L 3.9111328125 25  C 2.7294921875 25  1.7822265625 24.6256510416667  1.0693359375 23.876953125  C 0.3564453125 23.1282552083333  0 22.0974392361111  0 20.7845052083333  C 0 20.2094184027778  0.01708984375 19.6478949652778  0.05126953125 19.0999348958333  C 0.08544921875 18.5519748263889  0.15380859375 17.9606119791667  0.25634765625 17.3258463541667  C 0.35888671875 16.6910807291667  0.48828125 16.1024305555556  0.64453125 15.5598958333333  C 0.80078125 15.0173611111111  1.0107421875 14.4883897569444  1.2744140625 13.9729817708333  C 1.5380859375 13.4575737847222  1.8408203125 13.0181206597222  2.1826171875 12.6546223958333  C 2.5244140625 12.2911241319444  2.94189453125 12.0008680555556  3.43505859375 11.7838541666667  C 3.92822265625 11.5668402777778  4.47265625 11.4583333333333  5.068359375 11.4583333333333  C 5.25390625 11.4583333333333  5.4443359375 11.5505642361111  5.6396484375 11.7350260416667  C 6.4111328125 12.3969184027778  7.16552734375 12.8933376736111  7.90283203125 13.2242838541667  C 8.64013671875 13.5552300347222  9.443359375 13.720703125  10.3125 13.720703125  C 11.181640625 13.720703125  11.98486328125 13.5552300347222  12.72216796875 13.2242838541667  C 13.45947265625 12.8933376736111  14.2138671875 12.3969184027778  14.9853515625 11.7350260416667  C 15.1806640625 11.5505642361111  15.37109375 11.4583333333333  15.556640625 11.4583333333333  C 16.845703125 11.4583333333333  17.9052734375 11.9791666666667  18.7353515625 13.0208333333333  L 15.46875 13.0208333333333  C 14.9609375 13.0208333333333  14.521484375 13.2269965277778  14.150390625 13.6393229166667  C 13.779296875 14.0516493055556  13.59375 14.5399305555556  13.59375 15.1041666666667  Z " fill-rule="nonzero" fill="#7f7f7f" stroke="none" transform="matrix(1 0 0 1 30 265 )" />
  </g>
</svg>