<?xml version="1.0" encoding="utf-8"?>
<svg version="1.1" xmlns:xlink="http://www.w3.org/1999/xlink" width="30px" height="25px" xmlns="http://www.w3.org/2000/svg">
  <g transform="matrix(1 0 0 1 -30 -380 )">
    <path d="M 12 15.625  L 12 17.5  L 18 17.5  L 18 15.625  L 16 15.625  L 16 6.875  L 14.21875 6.875  L 11.90625 9.55078125  L 13.109375 11.11328125  C 13.546875 10.6315104166667  13.8333333333333 10.2604166666667  13.96875 10  L 14 10  L 14 15.625  L 12 15.625  Z M 19.671875 9.7265625  C 19.890625 10.6640625  20 11.5885416666667  20 12.5  C 20 13.4114583333333  19.890625 14.3359375  19.671875 15.2734375  C 19.453125 16.2109375  19.1432291666667 17.0833333333333  18.7421875 17.890625  C 18.3411458333333 18.6979166666667  17.8125 19.35546875  17.15625 19.86328125  C 16.5 20.37109375  15.78125 20.625  15 20.625  C 14.21875 20.625  13.5 20.37109375  12.84375 19.86328125  C 12.1875 19.35546875  11.6588541666667 18.6979166666667  11.2578125 17.890625  C 10.8567708333333 17.0833333333333  10.546875 16.2109375  10.328125 15.2734375  C 10.109375 14.3359375  10 13.4114583333333  10 12.5  C 10 11.5885416666667  10.109375 10.6640625  10.328125 9.7265625  C 10.546875 8.7890625  10.8567708333333 7.91666666666667  11.2578125 7.109375  C 11.6588541666667 6.30208333333333  12.1875 5.64453125  12.84375 5.13671875  C 13.5 4.62890625  14.21875 4.375  15 4.375  C 15.78125 4.375  16.5 4.62890625  17.15625 5.13671875  C 17.8125 5.64453125  18.3411458333333 6.30208333333333  18.7421875 7.109375  C 19.1432291666667 7.91666666666667  19.453125 8.7890625  19.671875 9.7265625  Z M 25.171875 18.96484375  C 25.953125 17.98828125  26.8958333333333 17.5  28 17.5  L 28 7.5  C 26.8958333333333 7.5  25.953125 7.01171875  25.171875 6.03515625  C 24.390625 5.05859375  24 3.88020833333333  24 2.5  L 6 2.5  C 6 3.88020833333333  5.609375 5.05859375  4.828125 6.03515625  C 4.046875 7.01171875  3.10416666666667 7.5  2 7.5  L 2 17.5  C 3.10416666666667 17.5  4.046875 17.98828125  4.828125 18.96484375  C 5.609375 19.94140625  6 21.1197916666667  6 22.5  L 24 22.5  C 24 21.1197916666667  24.390625 19.94140625  25.171875 18.96484375  Z M 29.703125 0.371093750000001  C 29.9010416666667 0.618489583333331  30 0.911458333333331  30 1.25  L 30 23.75  C 30 24.0885416666667  29.9010416666667 24.3815104166667  29.703125 24.62890625  C 29.5052083333333 24.8763020833333  29.2708333333333 25  29 25  L 1 25  C 0.729166666666667 25  0.494791666666667 24.8763020833333  0.296875 24.62890625  C 0.0989583333333333 24.3815104166667  0 24.0885416666667  0 23.75  L 0 1.25  C 0 0.911458333333331  0.0989583333333333 0.618489583333331  0.296875 0.371093750000001  C 0.494791666666667 0.123697916666665  0.729166666666667 0  1 0  L 29 0  C 29.2708333333333 0  29.5052083333333 0.123697916666665  29.703125 0.371093750000001  Z " fill-rule="nonzero" fill="#7f7f7f" stroke="none" transform="matrix(1 0 0 1 30 380 )" />
  </g>
</svg>