<?xml version="1.0" encoding="utf-8"?>
<svg version="1.1" xmlns:xlink="http://www.w3.org/1999/xlink" width="30px" height="25px" xmlns="http://www.w3.org/2000/svg">
  <g transform="matrix(1 0 0 1 -30 -317 )">
    <path d="M 17.7734375 22.367931547619  C 18.0078125 22.2005208333333  18.125 21.9618055555556  18.125 21.6517857142857  L 18.125 20.610119047619  L 18.125 11.9047619047619  L 18.125 8.33333333333333  L 11.875 8.33333333333333  L 11.875 11.9047619047619  L 11.875 20.610119047619  L 11.875 21.6517857142857  C 11.875 21.9618055555556  11.9921875 22.2005208333333  12.2265625 22.367931547619  C 12.4609375 22.5353422619048  12.7604166666667 22.6190476190476  13.125 22.6190476190476  L 16.875 22.6190476190476  C 17.2395833333333 22.6190476190476  17.5390625 22.5353422619048  17.7734375 22.367931547619  Z M 7.890625 5.43154761904762  C 8.25520833333334 5.77876984126984  8.69791666666667 5.95238095238095  9.21875 5.95238095238095  L 13.02734375 5.95238095238095  L 10.56640625 2.95758928571428  C 10.2278645833333 2.57316468253968  9.77864583333333 2.38095238095238  9.21875 2.38095238095238  C 8.69791666666667 2.38095238095238  8.25520833333334 2.55456349206349  7.890625 2.90178571428572  C 7.52604166666667 3.24900793650793  7.34375 3.67063492063492  7.34375 4.16666666666667  C 7.34375 4.66269841269841  7.52604166666667 5.0843253968254  7.890625 5.43154761904762  Z M 22.109375 5.43154761904762  C 22.4739583333333 5.0843253968254  22.65625 4.66269841269841  22.65625 4.16666666666667  C 22.65625 3.67063492063492  22.4739583333333 3.24900793650793  22.109375 2.90178571428572  C 21.7447916666667 2.55456349206349  21.3020833333333 2.38095238095238  20.78125 2.38095238095238  C 20.2213541666667 2.38095238095238  19.7721354166667 2.57316468253968  19.43359375 2.95758928571428  L 16.9921875 5.95238095238095  L 20.78125 5.95238095238095  C 21.3020833333333 5.95238095238095  21.7447916666667 5.77876984126984  22.109375 5.43154761904762  Z M 29.82421875 8.50074404761905  C 29.94140625 8.61235119047619  30 8.75496031746032  30 8.92857142857143  L 30 14.8809523809524  C 30 15.0545634920635  29.94140625 15.1971726190476  29.82421875 15.3087797619048  C 29.70703125 15.4203869047619  29.5572916666667 15.4761904761905  29.375 15.4761904761905  L 27.5 15.4761904761905  L 27.5 23.2142857142857  C 27.5 23.7103174603175  27.3177083333333 24.1319444444444  26.953125 24.4791666666667  C 26.5885416666667 24.8263888888889  26.1458333333333 25  25.625 25  L 4.375 25  C 3.85416666666667 25  3.41145833333333 24.8263888888889  3.046875 24.4791666666667  C 2.68229166666667 24.1319444444444  2.5 23.7103174603175  2.5 23.2142857142857  L 2.5 15.4761904761905  L 0.625 15.4761904761905  C 0.442708333333333 15.4761904761905  0.29296875 15.4203869047619  0.17578125 15.3087797619048  C 0.05859375 15.1971726190476  0 15.0545634920635  0 14.8809523809524  L 0 8.92857142857143  C 0 8.75496031746032  0.05859375 8.61235119047619  0.17578125 8.50074404761905  C 0.29296875 8.3891369047619  0.442708333333333 8.33333333333333  0.625 8.33333333333333  L 9.21875 8.33333333333333  C 8.0078125 8.33333333333333  6.97591145833333 7.92720734126984  6.123046875 7.11495535714286  C 5.27018229166667 6.30270337301587  4.84375 5.31994047619048  4.84375 4.16666666666667  C 4.84375 3.01339285714286  5.27018229166667 2.03062996031746  6.123046875 1.21837797619048  C 6.97591145833333 0.406125992063491  8.0078125 0  9.21875 0  C 10.6119791666667 0  11.7057291666667 0.477430555555552  12.5 1.43229166666667  L 15 4.5014880952381  L 17.5 1.43229166666667  C 18.2942708333333 0.477430555555552  19.3880208333333 0  20.78125 0  C 21.9921875 0  23.0240885416667 0.406125992063491  23.876953125 1.21837797619048  C 24.7298177083333 2.03062996031746  25.15625 3.01339285714286  25.15625 4.16666666666667  C 25.15625 5.31994047619048  24.7298177083333 6.30270337301587  23.876953125 7.11495535714286  C 23.0240885416667 7.92720734126984  21.9921875 8.33333333333333  20.78125 8.33333333333333  L 29.375 8.33333333333333  C 29.5572916666667 8.33333333333333  29.70703125 8.3891369047619  29.82421875 8.50074404761905  Z " fill-rule="nonzero" fill="#7f7f7f" stroke="none" transform="matrix(1 0 0 1 30 317 )" />
  </g>
</svg>