<?xml version="1.0" encoding="utf-8"?>
<svg version="1.1" xmlns:xlink="http://www.w3.org/1999/xlink" width="20px" height="19px" xmlns="http://www.w3.org/2000/svg">
  <g transform="matrix(1 0 0 1 -316 -9 )">
    <path d="M 7.46534653465346 16.2963169642857  L 15.2871287128713 9.03348214285714  C 15.6897689768977 11.5498511904762  16.6732673267327 13.514880952381  18.2376237623762 14.9285714285714  C 18.2376237623762 15.296130952381  18.1122112211221 15.6142113095238  17.8613861386139 15.8828125  C 17.6105610561056 16.1514136904762  17.3135313531353 16.2857142857143  16.970297029703 16.2857142857143  L 12.5346534653465 16.2857142857143  C 12.5346534653465 17.0349702380952  12.2871287128713 17.6746651785714  11.7920792079208 18.2047991071429  C 11.2970297029703 18.7349330357143  10.6996699669967 19  10 19  C 9.3003300330033 19  8.70462046204621 18.7367001488095  8.21287128712871 18.2101004464286  C 7.72112211221122 17.6835007440476  7.47194719471947 17.0455729166667  7.46534653465346 16.2963169642857  Z M 8.76732673267327 17.6057477678571  C 9.10726072607261 17.9697730654762  9.51815181518152 18.1517857142857  10 18.1517857142857  C 10.1056105610561 18.1517857142857  10.1584158415842 18.0952380952381  10.1584158415842 17.9821428571429  C 10.1584158415842 17.8690476190476  10.1056105610561 17.8125  10 17.8125  C 9.61056105610561 17.8125  9.27557755775578 17.6622953869048  8.9950495049505 17.3618861607143  C 8.71452145214522 17.0614769345238  8.57425742574257 16.7027529761905  8.57425742574257 16.2857142857143  C 8.57425742574257 16.172619047619  8.52145214521452 16.1160714285714  8.41584158415842 16.1160714285714  C 8.31023102310231 16.1160714285714  8.25742574257426 16.172619047619  8.25742574257426 16.2857142857143  C 8.25742574257426 16.8017113095238  8.42739273927393 17.2417224702381  8.76732673267327 17.6057477678571  Z M 19.0891089108911 0.169642857142857  L 19.9207920792079 1.1875  C 19.973597359736 1.25818452380952  19.9983498349835 1.34123883928572  19.9950495049505 1.43666294642857  C 19.9917491749175 1.53208705357143  19.957095709571 1.61160714285714  19.8910891089109 1.67522321428572  L 1.35643564356436 18.8727678571429  C 1.29042904290429 18.9293154761905  1.21287128712871 18.9540550595238  1.12376237623762 18.9469866071429  C 1.03465346534653 18.9399181547619  0.963696369636964 18.9010416666667  0.910891089108911 18.8303571428571  L 0.0792079207920792 17.8125  C 0.0264026402640264 17.7418154761905  0.00165016501650166 17.6587611607143  0.00495049504950495 17.5633370535714  C 0.00825082508250827 17.4679129464286  0.0429042904290429 17.3919270833333  0.108910891089109 17.3353794642857  L 1.95049504950495 15.6283482142857  C 1.82508250825082 15.4021577380952  1.76237623762376 15.1688988095238  1.76237623762376 14.9285714285714  C 2.09240924092409 14.6316964285714  2.39273927392739 14.3206845238095  2.66336633663366 13.9955357142857  C 2.93399339933993 13.6703869047619  3.21452145214522 13.248046875  3.5049504950495 12.728515625  C 3.7953795379538 12.208984375  4.04125412541254 11.6488095238095  4.24257425742574 11.0479910714286  C 4.44389438943894 10.4471726190476  4.60891089108911 9.71912202380953  4.73762376237624 8.86383928571428  C 4.86633663366337 8.00855654761905  4.93069306930693 7.08965773809524  4.93069306930693 6.10714285714286  C 4.93069306930693 5.03273809523809  5.31683168316832 4.03431919642857  6.08910891089109 3.11188616071428  C 6.86138613861386 2.189453125  7.87458745874588 1.62927827380952  9.12871287128713 1.43136160714286  C 9.07590759075908 1.29706101190476  9.04950495049505 1.15922619047619  9.04950495049505 1.01785714285714  C 9.04950495049505 0.735119047619047  9.14191419141914 0.494791666666666  9.32673267326733 0.296875  C 9.51155115511551 0.098958333333334  9.73597359735974 0  10 0  C 10.2640264026403 0  10.4884488448845 0.098958333333334  10.6732673267327 0.296875  C 10.8580858085809 0.494791666666666  10.950495049505 0.735119047619047  10.950495049505 1.01785714285714  C 10.950495049505 1.15922619047619  10.9240924092409 1.29706101190476  10.8712871287129 1.43136160714286  C 11.6897689768977 1.55859375  12.4125412541254 1.85016741071428  13.039603960396 2.30608258928572  C 13.6666666666667 2.76199776785714  14.1551155115512 3.31863839285714  14.5049504950495 3.97600446428572  L 18.6435643564356 0.127232142857143  C 18.7095709570957 0.0706845238095225  18.7871287128713 0.0459449404761906  18.8762376237624 0.0530133928571435  C 18.9653465346535 0.0600818452380942  19.036303630363 0.0989583333333319  19.0891089108911 0.169642857142857  Z " fill-rule="nonzero" fill="#333333" stroke="none" transform="matrix(1 0 0 1 316 9 )" />
  </g>
</svg>