<?xml version="1.0" encoding="utf-8"?>
<svg version="1.1" xmlns:xlink="http://www.w3.org/1999/xlink" width="20px" height="19px" xmlns="http://www.w3.org/2000/svg">
  <g transform="matrix(1 0 0 1 -288 -9 )">
    <path d="M 10.9470468431772 17.9989247311828  C 10.4514596062458 18.6663082437276  10.1357773251867 19  10 19  C 9.86422267481331 19  9.54854039375424 18.6663082437276  9.05295315682281 17.9989247311828  C 8.55736591989138 17.331541218638  8.30957230142566 16.9070489844683  8.30957230142566 16.7254480286738  C 8.30957230142566 16.4348864994026  8.52172437202987 16.18972520908  8.94602851323829 15.9899641577061  C 9.37033265444671 15.7902031063321  9.72165648336728 15.6903225806452  10 15.6903225806452  C 10.2783435166327 15.6903225806452  10.6296673455533 15.7902031063321  11.0539714867617 15.9899641577061  C 11.4782756279701 16.18972520908  11.6904276985743 16.4348864994026  11.6904276985743 16.7254480286738  C 11.6904276985743 16.9070489844683  11.4426340801086 17.331541218638  10.9470468431772 17.9989247311828  Z M 13.7016293279022 14.2874551971326  C 13.1890699253225 14.968458781362  12.8716904276986 15.3089605734767  12.7494908350305 15.3089605734767  C 12.7359131025119 15.3089605734767  12.6001357773252 15.1954599761051  12.3421588594705 14.968458781362  C 12.0841819416157 14.7414575866189  11.7396469789545 14.5144563918757  11.3085539714868 14.2874551971326  C 10.877460964019 14.0604540023895  10.4412763068568 13.9469534050179  10 13.9469534050179  C 9.55872369314325 13.9469534050179  9.12253903598099 14.0604540023895  8.69144602851324 14.2874551971326  C 8.26035302104549 14.5144563918757  7.91751527494908 14.7414575866189  7.66293279022403 14.968458781362  C 7.40835030549898 15.1954599761051  7.27087576374745 15.3089605734767  7.25050916496945 15.3089605734767  C 7.12830957230143 15.3089605734767  6.81093007467753 14.968458781362  6.29837067209776 14.2874551971326  C 5.78581126951799 13.6064516129032  5.52953156822811 13.184229390681  5.52953156822811 13.020788530466  C 5.52953156822811 12.9027479091995  5.56347589952478 12.7983273596177  5.63136456211813 12.7075268817204  C 6.16089613034623 12.0083632019116  6.82620502376103 11.4590203106332  7.62729124236253 11.0594982078853  C 8.42837746096402 10.6599761051374  9.21928038017651 10.4602150537634  10 10.4602150537634  C 10.7807196198235 10.4602150537634  11.571622539036 10.6599761051374  12.3727087576375 11.0594982078853  C 13.173794976239 11.4590203106332  13.8391038696538 12.0083632019116  14.3686354378819 12.7075268817204  C 14.4365241004752 12.7983273596177  14.4704684317719 12.9027479091995  14.4704684317719 13.020788530466  C 14.4704684317719 13.184229390681  14.214188730482 13.6064516129032  13.7016293279022 14.2874551971326  Z M 16.4663951120163 10.5827956989247  C 15.9572301425662 11.2637992831541  15.6449422946368 11.6043010752688  15.5295315682281 11.6043010752688  C 15.4548540393754 11.6043010752688  15.3767820773931 11.5679808841099  15.2953156822811 11.4953405017921  C 14.3720298710115 10.541935483871  13.5166327223354 9.8405017921147  12.7291242362525 9.3910394265233  C 11.9416157501697 8.9415770609319  11.0319076714189 8.7168458781362  10 8.7168458781362  C 9.42294636795655 8.7168458781362  8.84419551934827 8.81672640382318  8.26374745417515 9.01648745519713  C 7.68329938900204 9.21624850657109  7.1775288526816 9.4568697729988  6.74643584521385 9.73835125448029  C 6.3153428377461 10.0198327359618  5.93007467752885 10.3013142174432  5.59063136456212 10.5827956989247  C 5.25118805159538 10.8642771804062  4.98302783435166 11.1048984468339  4.78615071283096 11.3046594982079  C 4.58927359131025 11.5044205495818  4.48404616429056 11.6043010752688  4.47046843177189 11.6043010752688  C 4.3550577053632 11.6043010752688  4.04276985743381 11.2637992831541  3.53360488798371 10.5827956989247  C 3.02443991853361 9.90179211469534  2.76985743380855 9.47956989247312  2.76985743380855 9.31612903225806  C 2.76985743380855 9.20716845878136  2.80380176510523 9.10728793309439  2.87169042769857 9.01648745519713  C 3.76782077393075 7.8179211469534  4.85403937542431 6.88721624850657  6.13034623217923 6.22437275985663  C 7.40665308893415 5.56152927120669  8.69653767820774 5.23010752688172  10 5.23010752688172  C 11.3034623217923 5.23010752688172  12.5933469110659 5.56152927120669  13.8696537678208 6.22437275985663  C 15.1459606245757 6.88721624850657  16.2321792260692 7.8179211469534  17.1283095723014 9.01648745519713  C 17.1961982348948 9.10728793309439  17.2301425661915 9.20716845878136  17.2301425661914 9.31612903225806  C 17.2301425661915 9.47956989247312  16.9755600814664 9.90179211469534  16.4663951120163 10.5827956989247  Z M 19.2311608961303 6.89175627240143  C 18.7186014935506 7.57275985663082  18.4046164290563 7.91326164874552  18.2892057026477 7.91326164874552  C 18.214528173795 7.91326164874552  18.1398506449423 7.87240143369176  18.0651731160896 7.79068100358423  C 16.8499660556687 6.36511350059737  15.5889341479973 5.29139784946236  14.2820773930754 4.56953405017921  C 12.9752206381534 3.84767025089606  11.5478615071283 3.48673835125448  10 3.48673835125448  C 8.45213849287169 3.48673835125448  7.02477936184657 3.84767025089606  5.71792260692464 4.56953405017921  C 4.41106585200272 5.29139784946236  3.1500339443313 6.36511350059737  1.93482688391039 7.79068100358423  C 1.86014935505771 7.87240143369176  1.78547182620502 7.91326164874552  1.71079429735234 7.91326164874552  C 1.59538357094365 7.91326164874552  1.28139850644942 7.57275985663082  0.768839103869654 6.89175627240143  C 0.256279701289885 6.21075268817204  0 5.78853046594982  0 5.62508960573477  C 0 5.50704898446834  0.0339443312966735 5.4026284348865  0.10183299389002 5.31182795698925  C 1.37135098438561 3.62293906810036  2.88187372708758 2.31541218637993  4.63340122199593 1.38924731182796  C 6.38492871690428 0.463082437275985  8.17379497623897 0  10 0  C 11.826205023761 0  13.6150712830957 0.463082437275985  15.3665987780041 1.38924731182796  C 17.1181262729124 2.31541218637993  18.6286490156144 3.62293906810036  19.89816700611 5.31182795698925  C 19.9660556687033 5.4026284348865  20 5.50704898446834  20 5.62508960573477  C 20 5.78853046594982  19.7437202987101 6.21075268817204  19.2311608961303 6.89175627240143  Z " fill-rule="nonzero" fill="#333333" stroke="none" transform="matrix(1 0 0 1 288 9 )" />
  </g>
</svg>