<?xml version="1.0" encoding="utf-8"?>
<svg version="1.1" xmlns:xlink="http://www.w3.org/1999/xlink" width="80px" height="80px" xmlns="http://www.w3.org/2000/svg">
  <g transform="matrix(1 0 0 1 -181 -64 )">
    <path d="M 221 64  C 243.4 64  261 81.6  261 104  C 261 126.4  243.4 144  221 144  C 198.6 144  181 126.4  181 104  C 181 81.6  198.6 64  221 64  Z " fill-rule="nonzero" fill="#ffffff" stroke="none" />
    <path d="M 221 64.5  C 243.12 64.5  260.5 81.88  260.5 104  C 260.5 126.12  243.12 143.5  221 143.5  C 198.88 143.5  181.5 126.12  181.5 104  C 181.5 81.88  198.88 64.5  221 64.5  Z " stroke-width="1" stroke="#797979" fill="none" />
  </g>
</svg>