<?xml version="1.0" encoding="utf-8"?>
<svg version="1.1" xmlns:xlink="http://www.w3.org/1999/xlink" width="28px" height="26px" xmlns="http://www.w3.org/2000/svg">
  <g transform="matrix(1 0 0 1 -258 -755 )">
    <path d="M 14.6875 25.6953125  C 14.5 25.8984375  14.2708333333333 26  14 26  C 13.7291666666667 26  13.5 25.8984375  13.3125 25.6953125  L 3.5625 15.5052083333333  C 3.45833333333333 15.4149305555556  3.31510416666667 15.2682291666667  3.1328125 15.0651041666667  C 2.95052083333333 14.8619791666667  2.66145833333333 14.4924045138889  2.265625 13.9563802083333  C 1.86979166666667 13.4203559027778  1.515625 12.8702256944444  1.203125 12.3059895833333  C 0.890625 11.7417534722222  0.611979166666667 11.0590277777778  0.3671875 10.2578125  C 0.122395833333333 9.45659722222222  0 8.67795138888889  0 7.921875  C 0 5.43923611111111  0.661458333333333 3.49826388888889  1.984375 2.09895833333333  C 3.30729166666667 0.699652777777777  5.13541666666667 0  7.46875 0  C 8.11458333333333 0  8.7734375 0.121310763888887  9.4453125 0.363932291666668  C 10.1171875 0.606553819444442  10.7421875 0.933810763888887  11.3203125 1.345703125  C 11.8984375 1.75759548611111  12.3958333333333 2.14409722222222  12.8125 2.50520833333333  C 13.2291666666667 2.86631944444444  13.625 3.25  14 3.65625  C 14.375 3.25  14.7708333333333 2.86631944444444  15.1875 2.50520833333333  C 15.6041666666667 2.14409722222222  16.1015625 1.75759548611111  16.6796875 1.345703125  C 17.2578125 0.933810763888887  17.8828125 0.606553819444442  18.5546875 0.363932291666668  C 19.2265625 0.121310763888887  19.8854166666667 0  20.53125 0  C 22.8645833333333 0  24.6927083333333 0.699652777777777  26.015625 2.09895833333333  C 27.3385416666667 3.49826388888889  28 5.43923611111111  28 7.921875  C 28 10.4157986111111  26.8072916666667 12.9548611111111  24.421875 15.5390625  L 14.6875 25.6953125  Z " fill-rule="nonzero" fill="#ff3300" stroke="none" transform="matrix(1 0 0 1 258 755 )" />
  </g>
</svg>