<?xml version="1.0" encoding="utf-8"?>
<svg version="1.1" xmlns:xlink="http://www.w3.org/1999/xlink" width="24px" height="24px" xmlns="http://www.w3.org/2000/svg">
  <g transform="matrix(1 0 0 1 -145 -757 )">
    <path d="M 18.0625 0.910714285714286  L 22.9375 5.08928571428571  C 23.2291666666667 5.33928571428571  23.4791666666667 5.67857142857143  23.6875 6.10714285714286  C 23.8958333333333 6.53571428571429  24 6.92857142857143  24 7.28571428571429  L 24 22.7142857142857  C 24 23.0714285714286  23.8541666666667 23.375  23.5625 23.625  C 23.2708333333333 23.875  22.9166666666667 24  22.5 24  L 1.5 24  C 1.08333333333333 24  0.729166666666667 23.875  0.4375 23.625  C 0.145833333333333 23.375  0 23.0714285714286  0 22.7142857142857  L 0 1.28571428571429  C 0 0.928571428571428  0.145833333333333 0.624999999999999  0.4375 0.375  C 0.729166666666667 0.125000000000001  1.08333333333333 0  1.5 0  L 15.5 0  C 15.9166666666667 0  16.375 0.0892857142857153  16.875 0.267857142857143  C 17.375 0.446428571428571  17.7708333333333 0.660714285714285  18.0625 0.910714285714286  Z M 16.640625 2.11607142857143  C 16.515625 2.00892857142857  16.3020833333333 1.91071428571428  16 1.82142857142857  L 16 6.85714285714286  L 21.875 6.85714285714286  C 21.7708333333333 6.59821428571428  21.65625 6.41517857142857  21.53125 6.30803571428571  L 16.640625 2.11607142857143  Z M 2 22  L 22 22  L 22 8.57142857142857  L 15.5 8.57142857142857  C 15.0833333333333 8.57142857142857  14.7291666666667 8.44642857142857  14.4375 8.19642857142857  C 14.1458333333333 7.94642857142857  14 7.64285714285714  14 7.28571428571429  L 14 2  L 2 2  L 2 22  Z M 6 11.5714285714286  L 6 10.7142857142857  C 6 10.5892857142857  6.046875 10.4866071428571  6.140625 10.40625  C 6.234375 10.3258928571429  6.35416666666667 10.2857142857143  6.5 10.2857142857143  L 17.5 10.2857142857143  C 17.6458333333333 10.2857142857143  17.765625 10.3258928571429  17.859375 10.40625  C 17.953125 10.4866071428571  18 10.5892857142857  18 10.7142857142857  L 18 11.5714285714286  C 18 11.6964285714286  17.953125 11.7991071428571  17.859375 11.8794642857143  C 17.765625 11.9598214285714  17.6458333333333 12  17.5 12  L 6.5 12  C 6.35416666666667 12  6.234375 11.9598214285714  6.140625 11.8794642857143  C 6.046875 11.7991071428571  6 11.6964285714286  6 11.5714285714286  Z M 6.5 13.7142857142857  L 17.5 13.7142857142857  C 17.6458333333333 13.7142857142857  17.765625 13.7544642857143  17.859375 13.8348214285714  C 17.953125 13.9151785714286  18 14.0178571428571  18 14.1428571428571  L 18 15  C 18 15.125  17.953125 15.2276785714286  17.859375 15.3080357142857  C 17.765625 15.3883928571429  17.6458333333333 15.4285714285714  17.5 15  L 6.5 15  C 6.35416666666667 15.4285714285714  6.234375 15.3883928571429  6.140625 15.3080357142857  C 6.046875 15.2276785714286  6 15.125  6 15  L 6 14.1428571428571  C 6 14.0178571428571  6.046875 13.9151785714286  6.140625 13.8348214285714  C 6.234375 13.7544642857143  6.35416666666667 13.7142857142857  6.5 13.7142857142857  Z M 6.5 17  L 17.5 17  C 17.6458333333333 17.1428571428571  17.765625 17.1830357142857  17.859375 17.2633928571429  C 17.953125 17.34375  18 17.4464285714286  18 17.5714285714286  L 18 18.4285714285714  C 18 18.5535714285714  17.953125 18.65625  17.859375 18.7366071428571  C 17.765625 18.8169642857143  17.6458333333333 18.8571428571429  17.5 18.8571428571429  L 6.5 18.8571428571429  C 6.35416666666667 18.8571428571429  6.234375 18.8169642857143  6.140625 18.7366071428571  C 6.046875 18.65625  6 18.5535714285714  6 18.4285714285714  L 6 17.5714285714286  C 6 17.4464285714286  6.046875 17.34375  6.140625 17.2633928571429  C 6.234375 17.1830357142857  6.35416666666667 17.1428571428571  6.5 17  Z " fill-rule="nonzero" fill="#333333" stroke="none" transform="matrix(1 0 0 1 145 757 )" />
  </g>
</svg>