<?xml version="1.0" encoding="utf-8"?>
<svg version="1.1" xmlns:xlink="http://www.w3.org/1999/xlink" width="128px" height="40px" xmlns="http://www.w3.org/2000/svg">
  <g transform="matrix(1 0 0 1 -162 -182 )">
    <path d="M 164 202  A 18 18 0 0 1 182 184 L 270 184  A 18 18 0 0 1 288 202 A 18 18 0 0 1 270 220 L 182 220  A 18 18 0 0 1 164 202 Z " fill-rule="nonzero" fill="#169bd5" stroke="none" fill-opacity="0" />
    <path d="M 163 202  A 19 19 0 0 1 182 183 L 270 183  A 19 19 0 0 1 289 202 A 19 19 0 0 1 270 221 L 182 221  A 19 19 0 0 1 163 202 Z " stroke-width="2" stroke="#61a584" fill="none" stroke-opacity="0.996078431372549" />
  </g>
</svg>