<?xml version="1.0" encoding="utf-8"?>
<svg version="1.1" xmlns:xlink="http://www.w3.org/1999/xlink" width="15px" height="17px" xmlns="http://www.w3.org/2000/svg">
  <g transform="matrix(1 0 0 1 -233 -572 )">
    <path d="M 9.13583252190847 16.8852982954545  C 9.04333008763389 16.9617660984848  8.93378773125609 17  8.80720545277507 17  L 6.29503407984421 17  C 6.16845180136319 17  6.0589094449854 16.9637784090909  5.96640701071081 16.8913352272727  C 5.87390457643622 16.8188920454545  5.82765335929893 16.7263257575758  5.82765335929893 16.6136363636364  L 5.82765335929893 12.6292613636364  L 1.62122687439143 12.6292613636364  C 1.49464459591042 12.6292613636364  1.38510223953262 12.5930397727273  1.29259980525803 12.5205965909091  C 1.20009737098345 12.4481534090909  1.15384615384615 12.3555871212121  1.15384615384615 12.2428977272727  L 1.15384615384615 10.9992897727273  C 1.15384615384615 10.8946496212121  1.20009737098345 10.8040956439394  1.29259980525803 10.7276278409091  C 1.38510223953262 10.6511600378788  1.49464459591042 10.6129261363636  1.62122687439143 10.6129261363636  L 5.82765335929893 10.6129261363636  L 5.82765335929893 9.58664772727273  L 1.62122687439143 9.58664772727273  C 1.49464459591042 9.58664772727273  1.38510223953262 9.55042613636364  1.29259980525803 9.47798295454546  C 1.20009737098345 9.40553977272727  1.15384615384615 9.31297348484848  1.15384615384615 9.20028409090909  L 1.15384615384615 7.94460227272727  C 1.15384615384615 7.83996212121212  1.20009737098345 7.74940814393939  1.29259980525803 7.67294034090909  C 1.38510223953262 7.59647253787879  1.49464459591042 7.55823863636364  1.62122687439143 7.55823863636364  L 4.74683544303798 7.55823863636364  L 0.0584225900681597 0.579545454545454  C -0.0194741966893866 0.450757575757575  -0.0194741966893866 0.321969696969695  0.0584225900681597 0.193181818181818  C 0.155793573515093 0.0643939393939393  0.292112950340798 0  0.467380720545278 0  L 3.30087633885102 0  C 3.4858812074002 0  3.62706913339825 0.072443181818182  3.72444011684518 0.217329545454546  L 6.86465433300876 5.34872159090909  C 7.04965920155794 5.6545928030303  7.32229795520935 6.15767045454545  7.682570593963 6.85795454545455  C 7.77994157740993 6.66477272727273  7.9284323271665 6.39109848484848  8.12804284323272 6.03693181818182  C 8.32765335929893 5.68276515151515  8.46153846153846 5.43726325757576  8.52969814995132 5.30042613636364  L 11.3193768257059 0.22940340909091  C 11.3972736124635 0.0764678030303014  11.5384615384615 0  11.7429406037001 0  L 14.5326192794547 0  C 14.6981499513145 0  14.8296007789679 0.0643939393939393  14.9269717624148 0.193181818181818  C 15.014605647517 0.305871212121211  15.0194741966894 0.430634469696969  14.9415774099318 0.56747159090909  L 10.3700097370983 7.55823863636364  L 13.5102239532619 7.55823863636364  C 13.6368062317429 7.55823863636364  13.7463485881207 7.59647253787879  13.8388510223953 7.67294034090909  C 13.9313534566699 7.74940814393939  13.9776046738072 7.83996212121212  13.9776046738072 7.94460227272727  L 13.9776046738072 9.20028409090909  C 13.9776046738072 9.31297348484848  13.9313534566699 9.40553977272727  13.8388510223953 9.47798295454546  C 13.7463485881207 9.55042613636364  13.6368062317429 9.58664772727273  13.5102239532619 9.58664772727273  L 9.27458617332035 9.58664772727273  L 9.27458617332035 10.6129261363636  L 13.5102239532619 10.6129261363636  C 13.6368062317429 10.6129261363636  13.7463485881207 10.6511600378788  13.8388510223953 10.7276278409091  C 13.9313534566699 10.8040956439394  13.9776046738072 10.8946496212121  13.9776046738072 10.9992897727273  L 13.9776046738072 12.2428977272727  C 13.9776046738072 12.3555871212121  13.9313534566699 12.4481534090909  13.8388510223953 12.5205965909091  C 13.7463485881207 12.5930397727273  13.6368062317429 12.6292613636364  13.5102239532619 12.6292613636364  L 9.27458617332035 12.6292613636364  L 9.27458617332035 16.6136363636364  C 9.27458617332035 16.7182765151515  9.22833495618306 16.8088304924242  9.13583252190847 16.8852982954545  Z " fill-rule="nonzero" fill="#f59a23" stroke="none" transform="matrix(1 0 0 1 233 572 )" />
  </g>
</svg>