<?xml version="1.0" encoding="utf-8"?>
<svg version="1.1" xmlns:xlink="http://www.w3.org/1999/xlink" width="27px" height="30px" xmlns="http://www.w3.org/2000/svg">
  <g transform="matrix(1 0 0 1 -407 -47 )">
    <path d="M 17.54296875 19.1796875  C 18.62109375 18.0598958333333  19.8984375 17.5  21.375 17.5  C 22.93359375 17.5  24.2607421875 18.1087239583333  25.3564453125 19.326171875  C 26.4521484375 20.5436197916667  27 22.0182291666667  27 23.75  C 27 25.4817708333333  26.4521484375 26.9563802083333  25.3564453125 28.173828125  C 24.2607421875 29.3912760416667  22.93359375 30  21.375 30  C 19.81640625 30  18.4892578125 29.3912760416667  17.3935546875 28.173828125  C 16.2978515625 26.9563802083333  15.75 25.4817708333333  15.75 23.75  C 15.75 23.59375  15.76171875 23.3723958333333  15.78515625 23.0859375  L 9.45703125 19.5703125  C 8.37890625 20.6901041666667  7.1015625 21.25  5.625 21.25  C 4.06640625 21.25  2.7392578125 20.6412760416667  1.6435546875 19.423828125  C 0.5478515625 18.2063802083333  0 16.7317708333333  0 15  C 0 13.2682291666667  0.5478515625 11.7936197916667  1.6435546875 10.576171875  C 2.7392578125 9.35872395833333  4.06640625 8.75  5.625 8.75  C 7.1015625 8.75  8.37890625 9.30989583333333  9.45703125 10.4296875  L 15.78515625 6.9140625  C 15.76171875 6.62760416666667  15.75 6.40625  15.75 6.25  C 15.75 4.51822916666667  16.2978515625 3.04361979166666  17.3935546875 1.826171875  C 18.4892578125 0.608723958333331  19.81640625 0  21.375 0  C 22.93359375 0  24.2607421875 0.608723958333331  25.3564453125 1.826171875  C 26.4521484375 3.04361979166666  27 4.51822916666667  27 6.25  C 27 7.98177083333333  26.4521484375 9.45638020833333  25.3564453125 10.673828125  C 24.2607421875 11.8912760416667  22.93359375 12.5  21.375 12.5  C 19.8984375 12.5  18.62109375 11.9401041666667  17.54296875 10.8203125  L 11.21484375 14.3359375  C 11.23828125 14.6223958333333  11.25 14.84375  11.25 15  C 11.25 15.15625  11.23828125 15.3776041666667  11.21484375 15.6640625  L 17.54296875 19.1796875  Z " fill-rule="nonzero" fill="#d4d4d4" stroke="none" transform="matrix(1 0 0 1 407 47 )" />
  </g>
</svg>