<?xml version="1.0" encoding="utf-8"?>
<svg version="1.1" xmlns:xlink="http://www.w3.org/1999/xlink" width="128px" height="40px" xmlns="http://www.w3.org/2000/svg">
  <g transform="matrix(1 0 0 1 -65 -220 )">
    <path d="M 67 240  A 18 18 0 0 1 85 222 L 173 222  A 18 18 0 0 1 191 240 A 18 18 0 0 1 173 258 L 85 258  A 18 18 0 0 1 67 240 Z " fill-rule="nonzero" fill="#61a584" stroke="none" fill-opacity="0" />
    <path d="M 66 240  A 19 19 0 0 1 85 221 L 173 221  A 19 19 0 0 1 192 240 A 19 19 0 0 1 173 259 L 85 259  A 19 19 0 0 1 66 240 Z " stroke-width="2" stroke="#61a584" fill="none" stroke-opacity="0.996078431372549" />
  </g>
</svg>