<?xml version="1.0" encoding="utf-8"?>
<svg version="1.1" xmlns:xlink="http://www.w3.org/1999/xlink" width="27px" height="26px" xmlns="http://www.w3.org/2000/svg">
  <g transform="matrix(1 0 0 1 -465 -755 )">
    <path d="M 26.9328835227273 19.8639322916667  C 26.9776278409091 20.4338107638889  27 21.0177951388889  27 21.6158854166667  C 27 22.9700520833333  26.5333806818182 24.0392795138889  25.6001420454545 24.8235677083333  C 24.6669034090909 25.6078559027778  23.4268465909091 26  21.8799715909091 26  L 5.12002840909091 26  C 3.57315340909091 26  2.33309659090909 25.6078559027778  1.39985795454545 24.8235677083333  C 0.466619318181818 24.0392795138889  0 22.9700520833333  0 21.6158854166667  C 0 21.0177951388889  0.0223721590909091 20.4338107638889  0.0671164772727273 19.8639322916667  C 0.111860795454545 19.2940538194444  0.201349431818182 18.6790364583333  0.335582386363636 18.0188802083333  C 0.469815340909091 17.3587239583333  0.639204545454546 16.7465277777778  0.84375 16.1822916666667  C 1.04829545454545 15.6180555555556  1.32315340909091 15.0679253472222  1.66832386363636 14.5319010416667  C 2.01349431818182 13.9958767361111  2.40980113636364 13.5388454861111  2.85724431818182 13.1608072916667  C 3.3046875 12.7827690972222  3.85120738636364 12.4809027777778  4.49680397727273 12.2552083333333  C 5.14240056818182 12.0295138888889  5.85511363636364 11.9166666666667  6.63494318181818 11.9166666666667  C 6.75 11.9166666666667  7.01846590909091 12.0379774305556  7.44034090909091 12.2805989583333  C 7.86221590909091 12.5232204861111  8.33842329545455 12.7940538194444  8.86896306818182 13.0930989583333  C 9.39950284090909 13.3921440972222  10.08984375 13.6629774305556  10.9399857954545 13.9055989583333  C 11.7901278409091 14.1482204861111  12.6434659090909 14.26953125  13.5 14.26953125  C 14.3565340909091 14.26953125  15.2098721590909 14.1482204861111  16.0600142045455 13.9055989583333  C 16.91015625 13.6629774305556  17.6004971590909 13.3921440972222  18.1310369318182 13.0930989583333  C 18.6615767045455 12.7940538194444  19.1377840909091 12.5232204861111  19.5596590909091 12.2805989583333  C 19.9815340909091 12.0379774305556  20.25 11.9166666666667  20.3650568181818 11.9166666666667  C 21.1448863636364 11.9166666666667  21.8575994318182 12.0295138888889  22.5031960227273 12.2552083333333  C 23.1487926136364 12.4809027777778  23.6953125 12.7827690972222  24.1427556818182 13.1608072916667  C 24.5901988636364 13.5388454861111  24.9865056818182 13.9958767361111  25.3316761363636 14.5319010416667  C 25.6768465909091 15.0679253472222  25.9517045454546 15.6180555555556  26.15625 16.1822916666667  C 26.3607954545455 16.7465277777778  26.5301846590909 17.3587239583333  26.6644176136364 18.0188802083333  C 26.7986505681818 18.6790364583333  26.8881392045455 19.2940538194444  26.9328835227273 19.8639322916667  Z M 18.7063210227273 1.904296875  C 20.14453125 3.173828125  20.8636363636364 4.70572916666667  20.8636363636364 6.5  C 20.8636363636364 8.29427083333333  20.14453125 9.826171875  18.7063210227273 11.095703125  C 17.2681107954545 12.365234375  15.5326704545455 13  13.5 13  C 11.4673295454545 13  9.73188920454545 12.365234375  8.29367897727273 11.095703125  C 6.85546875 9.826171875  6.13636363636364 8.29427083333333  6.13636363636364 6.5  C 6.13636363636364 4.70572916666667  6.85546875 3.173828125  8.29367897727273 1.904296875  C 9.73188920454545 0.634765625  11.4673295454545 0  13.5 0  C 15.5326704545455 0  17.2681107954545 0.634765625  18.7063210227273 1.904296875  Z " fill-rule="nonzero" fill="#ff3366" stroke="none" transform="matrix(1 0 0 1 465 755 )" />
  </g>
</svg>