<?xml version="1.0" encoding="utf-8"?>
<svg version="1.1" xmlns:xlink="http://www.w3.org/1999/xlink" width="37px" height="34px" xmlns="http://www.w3.org/2000/svg">
  <g transform="matrix(1 0 0 1 -143 -477 )">
    <path d="M 22.8600260416667 21.0065104166667  C 24.064453125 19.8997395833333  24.6666666666667 18.5642361111111  24.6666666666667 17  C 24.6666666666667 15.4357638888889  24.064453125 14.1002604166667  22.8600260416667 12.9934895833333  C 21.6555989583333 11.88671875  20.2022569444444 11.3333333333333  18.5 11.3333333333333  C 16.7977430555556 11.3333333333333  15.3444010416667 11.88671875  14.1399739583333 12.9934895833333  C 12.935546875 14.1002604166667  12.3333333333333 15.4357638888889  12.3333333333333 17  C 12.3333333333333 18.5642361111111  12.935546875 19.8997395833333  14.1399739583333 21.0065104166667  C 15.3444010416667 22.11328125  16.7977430555556 22.6666666666667  18.5 22.6666666666667  C 20.2022569444444 22.6666666666667  21.6555989583333 22.11328125  22.8600260416667 21.0065104166667  Z M 36.8072916666667 14.0670572916667  C 36.9357638888889 14.2220052083333  37 14.3953993055556  37 14.5872395833333  L 37 19.5013020833333  C 37 19.6783854166667  36.9357638888889 19.8480902777778  36.8072916666667 20.0104166666667  C 36.6788194444445 20.1727430555556  36.5182291666667 20.2686631944444  36.3255208333333 20.2981770833333  L 31.869140625 20.91796875  C 31.5640190972222 21.71484375  31.2508680555556 22.3862847222222  30.9296875 22.9322916666667  C 31.4917534722222 23.6701388888889  32.3509114583333 24.6883680555556  33.5071614583333 25.9869791666667  C 33.6677517361111 26.1640625  33.748046875 26.3485243055556  33.748046875 26.5403645833333  C 33.748046875 26.7322048611111  33.67578125 26.9019097222222  33.53125 27.0494791666667  C 33.09765625 27.5954861111111  32.302734375 28.3923611111111  31.146484375 29.4401041666667  C 29.990234375 30.4878472222222  29.2354600694444 31.01171875  28.8821614583333 31.01171875  C 28.689453125 31.01171875  28.4806857638889 30.9453125  28.255859375 30.8125  L 24.931640625 28.421875  C 24.2250434027778 28.7612847222222  23.4943576388889 29.0416666666667  22.7395833333333 29.2630208333333  C 22.4826388888889 31.2699652777778  22.2497829861111 32.6423611111111  22.041015625 33.3802083333333  C 21.9286024305556 33.7934027777778  21.6395399305556 34  21.173828125 34  L 15.826171875 34  C 15.6013454861111 34  15.4046223958333 33.9372829861111  15.2360026041667 33.8118489583333  C 15.0673828125 33.6864149305556  14.9750434027778 33.5277777777778  14.958984375 33.3359375  L 14.2845052083333 29.2630208333333  C 13.4976128472222 29.0269097222222  12.7749565972222 28.75390625  12.1165364583333 28.4440104166667  L 8.72005208333333 30.8125  C 8.55946180555556 30.9453125  8.35872395833333 31.01171875  8.11783854166667 31.01171875  C 7.89301215277778 31.01171875  7.69227430555556 30.9305555555556  7.515625 30.7682291666667  C 5.4921875 29.0859375  4.16731770833333 27.8463541666667  3.541015625 27.0494791666667  C 3.42860243055556 26.9019097222222  3.37239583333333 26.7322048611111  3.37239583333333 26.5403645833333  C 3.37239583333333 26.36328125  3.43663194444445 26.1935763888889  3.56510416666667 26.03125  C 3.80598958333333 25.7213541666667  4.21549479166667 25.2306857638889  4.79361979166667 24.5592447916667  C 5.37174479166667 23.8878038194444  5.80533854166667 23.3676215277778  6.09440104166667 22.9986979166667  C 5.66080729166667 22.2608506944444  5.33159722222222 21.5303819444444  5.10677083333333 20.8072916666667  L 0.698567708333333 20.2096354166667  C 0.489800347222222 20.1801215277778  0.321180555555556 20.087890625  0.192708333333333 19.9329427083333  C 0.0642361111111111 19.7779947916667  0 19.6046006944444  0 19.4127604166667  L 0 14.4986979166667  C 0 14.3216145833333  0.0642361111111111 14.1519097222222  0.192708333333333 13.9895833333333  C 0.321180555555556 13.8272569444444  0.473741319444444 13.7313368055556  0.650390625 13.7018229166667  L 5.130859375 13.08203125  C 5.35568576388889 12.4032118055556  5.66883680555556 11.7243923611111  6.0703125 11.0455729166667  C 5.42795138888889 10.2044270833333  4.56879340277778 9.18619791666667  3.49283854166667 7.99088541666667  C 3.33224826388889 7.81380208333333  3.251953125 7.63671875  3.251953125 7.45963541666667  C 3.251953125 7.31206597222222  3.32421875 7.14236111111111  3.46875 6.95052083333333  C 3.88628472222222 6.41927083333333  4.67719184027778 5.62608506944444  5.84147135416667 4.57096354166667  C 7.00575086805556 3.51584201388889  7.76453993055556 2.98828125  8.11783854166667 2.98828125  C 8.32660590277778 2.98828125  8.53537326388889 3.06206597222222  8.744140625 3.20963541666667  L 12.068359375 5.578125  C 12.7749565972222 5.23871527777778  13.5056423611111 4.95833333333333  14.2604166666667 4.73697916666667  C 14.5173611111111 2.73003472222222  14.7502170138889 1.35763888888889  14.958984375 0.619791666666665  C 15.0713975694444 0.206597222222221  15.3604600694444 0  15.826171875 0  L 21.173828125 0  C 21.3986545138889 0  21.5953776041667 0.062717013888886  21.7639973958333 0.188151041666665  C 21.9326171875 0.313585069444441  22.0249565972222 0.472222222222221  22.041015625 0.6640625  L 22.7154947916667 4.73697916666667  C 23.5023871527778 4.97309027777778  24.2250434027778 5.24609375  24.8834635416667 5.55598958333333  L 28.3040364583333 3.1875  C 28.4485677083333 3.0546875  28.6412760416667 2.98828125  28.8821614583333 2.98828125  C 29.0909288194444 2.98828125  29.2916666666667 3.06206597222222  29.484375 3.20963541666667  C 31.5559895833333 4.96571180555556  32.880859375 6.22005208333333  33.458984375 6.97265625  C 33.5713975694445 7.09071180555556  33.6276041666667 7.25303819444444  33.6276041666667 7.45963541666667  C 33.6276041666667 7.63671875  33.5633680555556 7.80642361111111  33.4348958333333 7.96875  C 33.1940104166667 8.27864583333333  32.7845052083333 8.76931423611111  32.2063802083333 9.44075520833333  C 31.6282552083333 10.1121961805556  31.1946614583333 10.6323784722222  30.9055989583333 11.0013020833333  C 31.3231336805556 11.7391493055556  31.65234375 12.4622395833333  31.8932291666667 13.1705729166667  L 36.3014322916667 13.7903645833333  C 36.5101996527778 13.8198784722222  36.6788194444445 13.912109375  36.8072916666667 14.0670572916667  Z " fill-rule="nonzero" fill="#333333" stroke="none" transform="matrix(1 0 0 1 143 477 )" />
  </g>
</svg>