<?xml version="1.0" encoding="utf-8"?>
<svg version="1.1" xmlns:xlink="http://www.w3.org/1999/xlink" width="37px" height="36px" xmlns="http://www.w3.org/2000/svg">
  <g transform="matrix(1 0 0 1 -143 -528 )">
    <path d="M 36.9211647727273 27.8948863636364  C 36.9737215909091 28.0142045454545  37 28.1931818181818  37 28.4318181818182  C 37 28.8920454545455  36.9124053030303 29.4928977272727  36.7372159090909 30.234375  C 36.5620265151515 30.9758522727273  36.3780776515152 31.5596590909091  36.1853693181818 31.9857954545455  C 35.8174715909091 32.8380681818182  34.7488162878788 33.7414772727273  32.9794034090909 34.6960227272727  C 31.3326231060606 35.5653409090909  29.7033617424242 36  28.0916193181818 36  C 27.6186079545455 36  27.1587357954545 35.9701704545455  26.7120028409091 35.9105113636364  C 26.2652698863636 35.8508522727273  25.7616003787879 35.7443181818182  25.2009943181818 35.5909090909091  C 24.6403882575758 35.4375  24.2243134469697 35.3139204545455  23.9527698863636 35.2201704545455  C 23.6812263257576 35.1264204545455  23.1950757575758 34.9517045454545  22.4943181818182 34.6960227272727  C 21.7935606060606 34.4403409090909  21.3643465909091 34.2869318181818  21.2066761363636 34.2357954545455  C 19.4898200757576 33.6392045454545  17.9569128787879 32.9318181818182  16.6079545454545 32.1136363636364  C 14.3655303030303 30.7670454545455  12.0486505681818 28.9303977272727  9.65731534090909 26.6036931818182  C 7.26598011363636 24.2769886363636  5.37831439393939 22.0227272727273  3.99431818181818 19.8409090909091  C 3.15340909090909 18.5284090909091  2.42637310606061 17.0369318181818  1.81321022727273 15.3664772727273  C 1.76065340909091 15.2130681818182  1.60298295454545 14.7954545454545  1.34019886363636 14.1136363636364  C 1.07741477272727 13.4318181818182  0.897845643939394 12.9588068181818  0.801491477272727 12.6946022727273  C 0.705137310606061 12.4303977272727  0.578125 12.0255681818182  0.420454545454545 11.4801136363636  C 0.262784090909091 10.9346590909091  0.15329071969697 10.4446022727273  0.0919744318181818 10.0099431818182  C 0.0306581439393939 9.57528409090909  0 9.12784090909091  0 8.66761363636363  C 0 7.09943181818182  0.446732954545455 5.51420454545454  1.34019886363636 3.91193181818182  C 2.32125946969697 2.1903409090909  3.24976325757576 1.15056818181818  4.12571022727273 0.792613636363635  C 4.56368371212121 0.605113636363634  5.16370738636364 0.42613636363636  5.92578125 0.255681818181817  C 6.68785511363636 0.0852272727272712  7.30539772727273 0  7.77840909090909 0  C 8.02367424242424 0  8.20762310606061 0.0255681818181825  8.33025568181818 0.0767045454545436  C 8.64559659090909 0.178977272727274  9.10984848484848 0.826704545454545  9.72301136363636 2.01988636363637  C 9.9157196969697 2.34374999999999  10.1785037878788 2.80397727272727  10.5113636363636 3.40056818181818  C 10.8442234848485 3.99715909090909  11.1508049242424 4.53835227272727  11.4311079545455 5.02414772727273  C 11.7114109848485 5.50994318181818  11.9829545454545 5.96590909090909  12.2457386363636 6.39204545454546  C 12.2982954545455 6.46022727272727  12.4515861742424 6.67329545454546  12.7056107954545 7.03125  C 12.9596354166667 7.38920454545454  13.1479640151515 7.69176136363636  13.2705965909091 7.93892045454546  C 13.3932291666667 8.18607954545454  13.4545454545455 8.42897727272727  13.4545454545455 8.66761363636363  C 13.4545454545455 9.00852272727272  13.2049005681818 9.43465909090909  12.7056107954545 9.94602272727273  C 12.2063210227273 10.4573863636364  11.6632339015152 10.9261363636364  11.0763494318182 11.3522727272727  C 10.4894649621212 11.7784090909091  9.94637784090909 12.2301136363636  9.44708806818182 12.7073863636364  C 8.94779829545455 13.1846590909091  8.69815340909091 13.5767045454545  8.69815340909091 13.8835227272727  C 8.69815340909091 14.0369318181818  8.74195075757576 14.2286931818182  8.82954545454546 14.4588068181818  C 8.91714015151515 14.6889204545455  8.99159564393939 14.8636363636364  9.05291193181818 14.9829545454545  C 9.11422821969697 15.1022727272727  9.23686079545455 15.3068181818182  9.42080965909091 15.5965909090909  C 9.60475852272727 15.8863636363636  9.70549242424243 16.0482954545455  9.72301136363636 16.0823863636364  C 11.0544507575758 18.4176136363636  12.5785984848485 20.4204545454545  14.2954545454545 22.0909090909091  C 16.0123106060606 23.7613636363636  18.0707859848485 25.2443181818182  20.4708806818182 26.5397727272727  C 20.5059185606061 26.5568181818182  20.6723484848485 26.6548295454545  20.9701704545455 26.8338068181818  C 21.2679924242424 27.0127840909091  21.4782196969697 27.1321022727273  21.6008522727273 27.1917613636364  C 21.7234848484849 27.2514204545455  21.9030539772727 27.3238636363636  22.1395596590909 27.4090909090909  C 22.3760653409091 27.4943181818182  22.5731534090909 27.5369318181818  22.7308238636364 27.5369318181818  C 23.0461647727273 27.5369318181818  23.4491003787879 27.2940340909091  23.9396306818182 26.8082386363636  C 24.4301609848485 26.3224431818182  24.8944128787879 25.7940340909091  25.3323863636364 25.2230113636364  C 25.7703598484849 24.6519886363636  26.2521306818182 24.1235795454545  26.7776988636364 23.6377840909091  C 27.3032670454545 23.1519886363636  27.741240530303 22.9090909090909  28.0916193181818 22.9090909090909  C 28.336884469697 22.9090909090909  28.5865293560606 22.96875  28.8405539772727 23.0880681818182  C 29.0945785984849 23.2073863636364  29.4055397727273 23.390625  29.7734375 23.6377840909091  C 30.1413352272727 23.8849431818182  30.360321969697 24.0340909090909  30.4303977272727 24.0852272727273  C 30.8683712121212 24.3409090909091  31.3370028409091 24.6051136363636  31.8362926136364 24.8778409090909  C 32.3355823863636 25.1505681818182  32.8918087121212 25.4488636363636  33.5049715909091 25.7727272727273  C 34.118134469697 26.0965909090909  34.5911458333333 26.3522727272727  34.9240056818182 26.5397727272727  C 36.1503314393939 27.1363636363636  36.8160511363636 27.5880681818182  36.9211647727273 27.8948863636364  Z " fill-rule="nonzero" fill="#333333" stroke="none" transform="matrix(1 0 0 1 143 528 )" />
  </g>
</svg>