<?xml version="1.0" encoding="utf-8"?>
<svg version="1.1" xmlns:xlink="http://www.w3.org/1999/xlink" width="14px" height="50px" xmlns="http://www.w3.org/2000/svg">
  <g transform="matrix(1 0 0 1 -191 -418 )">
    <path d="M 12.9791666666667 37.3579545454545  C 13.6597222222222 38.0208333333333  14 38.8257575757576  14 39.7727272727273  L 14 46.5909090909091  C 14 47.5378787878788  13.6597222222222 48.342803030303  12.9791666666667 49.0056818181818  C 12.2986111111111 49.6685606060606  11.4722222222222 50  10.5 50  L 3.5 50  C 2.52777777777778 50  1.70138888888889 49.6685606060606  1.02083333333333 49.0056818181818  C 0.340277777777778 48.342803030303  0 47.5378787878788  0 46.5909090909091  L 0 39.7727272727273  C 0 38.8257575757576  0.340277777777778 38.0208333333333  1.02083333333333 37.3579545454545  C 1.70138888888889 36.6950757575758  2.52777777777778 36.3636363636364  3.5 36.3636363636364  L 10.5 36.3636363636364  C 11.4722222222222 36.3636363636364  12.2986111111111 36.6950757575758  12.9791666666667 37.3579545454545  Z M 12.9791666666667 19.1761363636364  C 13.6597222222222 19.8390151515151  14 20.6439393939394  14 21.5909090909091  L 14 28.4090909090909  C 14 29.3560606060606  13.6597222222222 30.1609848484848  12.9791666666667 30.8238636363636  C 12.2986111111111 31.4867424242424  11.4722222222222 31.8181818181818  10.5 31.8181818181818  L 3.5 31.8181818181818  C 2.52777777777778 31.8181818181818  1.70138888888889 31.4867424242424  1.02083333333333 30.8238636363636  C 0.340277777777778 30.1609848484848  0 29.3560606060606  0 28.4090909090909  L 0 21.5909090909091  C 0 20.6439393939394  0.340277777777778 19.8390151515151  1.02083333333333 19.1761363636364  C 1.70138888888889 18.5132575757576  2.52777777777778 18.1818181818182  3.5 18.1818181818182  L 10.5 18.1818181818182  C 11.4722222222222 18.1818181818182  12.2986111111111 18.5132575757576  12.9791666666667 19.1761363636364  Z M 12.9791666666667 0.994318181818182  C 13.6597222222222 1.65719696969697  14 2.46212121212121  14 3.40909090909091  L 14 10.2272727272727  C 14 11.1742424242424  13.6597222222222 11.9791666666667  12.9791666666667 12.6420454545455  C 12.2986111111111 13.3049242424242  11.4722222222222 13.6363636363636  10.5 13.6363636363636  L 3.5 13.6363636363636  C 2.52777777777778 13.6363636363636  1.70138888888889 13.3049242424242  1.02083333333333 12.6420454545455  C 0.340277777777778 11.9791666666667  0 11.1742424242424  0 10.2272727272727  L 0 3.40909090909091  C 0 2.46212121212121  0.340277777777778 1.65719696969697  1.02083333333333 0.994318181818182  C 1.70138888888889 0.331439393939392  2.52777777777778 0  3.5 0  L 10.5 0  C 11.4722222222222 0  12.2986111111111 0.331439393939392  12.9791666666667 0.994318181818182  Z " fill-rule="nonzero" fill="#333333" stroke="none" transform="matrix(1 0 0 1 191 418 )" />
  </g>
</svg>