<?xml version="1.0" encoding="utf-8"?>
<svg version="1.1" xmlns:xlink="http://www.w3.org/1999/xlink" width="50px" height="50px" xmlns="http://www.w3.org/2000/svg">
  <g transform="matrix(1 0 0 1 -204 -506 )">
    <path d="M 13.8020833333333 22.8190104166667  L 25.1627604166667 38.2161458333333  L 36.5559895833333 22.8190104166667  C 36.9032118055556 22.3415798611111  37.1690538194445 21.7013888888889  37.353515625 20.8984375  C 37.5379774305556 20.0954861111111  37.4728732638889 19.1731770833333  37.158203125 18.1315104166667  C 36.8435329861111 17.08984375  36.1762152777778 16.2326388888889  35.15625 15.5598958333333  C 34.2881944444445 14.9956597222222  33.3875868055556 14.7189670138889  32.4544270833333 14.7298177083333  C 31.5212673611111 14.7406684027778  30.7237413194444 14.9305555555556  30.0618489583333 15.2994791666667  C 29.3999565972222 15.6684027777778  28.80859375 16.1566840277778  28.2877604166667 16.7643229166667  C 27.5065104166667 17.6323784722222  26.46484375 18.06640625  25.1627604166667 18.06640625  C 23.8823784722222 18.06640625  22.8515625 17.6323784722222  22.0703125 16.7643229166667  C 21.5494791666667 16.1566840277778  20.9581163194444 15.6684027777778  20.2962239583333 15.2994791666667  C 19.6343315972222 14.9305555555556  18.8368055555556 14.7406684027778  17.9036458333333 14.7298177083333  C 16.9704861111111 14.7189670138889  16.0590277777778 14.9956597222222  15.1692708333333 15.5598958333333  C 14.1710069444444 16.2326388888889  13.5145399305556 17.08984375  13.1998697916667 18.1315104166667  C 12.8851996527778 19.1731770833333  12.8200954861111 20.0954861111111  13.0045572916667 20.8984375  C 13.1890190972222 21.7013888888889  13.4548611111111 22.3415798611111  13.8020833333333 22.8190104166667  Z M 46.6471354166667 12.451171875  C 48.8823784722222 16.2814670138889  50 20.4644097222222  50 25  C 50 29.5355902777778  48.8823784722222 33.7185329861111  46.6471354166667 37.548828125  C 44.4118923611111 41.3791232638889  41.3791232638889 44.4118923611111  37.548828125 46.6471354166667  C 33.7185329861111 48.8823784722222  29.5355902777778 50  25 50  C 20.4644097222222 50  16.2814670138889 48.8823784722222  12.451171875 46.6471354166667  C 8.62087673611111 44.4118923611111  5.58810763888889 41.3791232638889  3.35286458333333 37.548828125  C 1.11762152777778 33.7185329861111  0 29.5355902777778  0 25  C 0 20.4644097222222  1.11762152777778 16.2814670138889  3.35286458333333 12.451171875  C 5.58810763888889 8.62087673611111  8.62087673611111 5.58810763888888  12.451171875 3.35286458333333  C 16.2814670138889 1.11762152777777  20.4644097222222 0  25 0  C 29.5355902777778 0  33.7185329861111 1.11762152777777  37.548828125 3.35286458333333  C 41.3791232638889 5.58810763888888  44.4118923611111 8.62087673611111  46.6471354166667 12.451171875  Z " fill-rule="nonzero" fill="#333333" stroke="none" transform="matrix(1 0 0 1 204 506 )" />
  </g>
</svg>