<?xml version="1.0" encoding="utf-8"?>
<svg version="1.1" xmlns:xlink="http://www.w3.org/1999/xlink" width="50px" height="39px" xmlns="http://www.w3.org/2000/svg">
  <g transform="matrix(1 0 0 1 -598 -532 )">
    <path d="M 28.5714285714286 32  L 28.5714285714286 35  L 46.4285714285714 35  L 46.4285714285714 32  L 28.5714285714286 32  Z M 17.8571428571429 18  L 17.8571428571429 21  L 46.4285714285714 21  L 46.4285714285714 18  L 17.8571428571429 18  Z M 35.7142857142857 4  L 35.7142857142857 7  L 46.4285714285714 7  L 46.4285714285714 4  L 35.7142857142857 4  Z M 49.4698660714286 28.8899147727273  C 49.8232886904762 29.2407670454545  50 29.65625  50 30.1363636363636  L 50 37.2272727272727  C 50 37.7073863636364  49.8232886904762 38.1228693181818  49.4698660714286 38.4737215909091  C 49.116443452381 38.8245738636364  48.6979166666667 39  48.2142857142857 39  L 1.78571428571429 39  C 1.30208333333333 39  0.883556547619048 38.8245738636364  0.530133928571429 38.4737215909091  C 0.17671130952381 38.1228693181818  0 37.7073863636364  0 37.2272727272727  L 0 30.1363636363636  C 0 29.65625  0.17671130952381 29.2407670454545  0.530133928571429 28.8899147727273  C 0.883556547619048 28.5390625  1.30208333333333 28.3636363636364  1.78571428571429 28  L 48.2142857142857 28  C 48.6979166666667 28.3636363636364  49.116443452381 28.5390625  49.4698660714286 28.8899147727273  Z M 49.4698660714286 14.7080965909091  C 49.8232886904762 15.0589488636364  50 15.4744318181818  50 15.9545454545455  L 50 23.0454545454545  C 50 23.5255681818182  49.8232886904762 23.9410511363636  49.4698660714286 24.2919034090909  C 49.116443452381 24.6427556818182  48.6979166666667 24.8181818181818  48.2142857142857 24.8181818181818  L 1.78571428571429 24.8181818181818  C 1.30208333333333 24.8181818181818  0.883556547619048 24.6427556818182  0.530133928571429 24.2919034090909  C 0.17671130952381 23.9410511363636  0 23.5255681818182  0 23.0454545454545  L 0 15.9545454545455  C 0 15.4744318181818  0.17671130952381 15.0589488636364  0.530133928571429 14.7080965909091  C 0.883556547619048 14.3572443181818  1.30208333333333 14.1818181818182  1.78571428571429 14.1818181818182  L 48.2142857142857 14.1818181818182  C 48.6979166666667 14.1818181818182  49.116443452381 14.3572443181818  49.4698660714286 14.7080965909091  Z M 49.4698660714286 0.526278409090911  C 49.8232886904762 0.877130681818176  50 1.29261363636363  50 1.77272727272727  L 50 8.86363636363637  C 50 9.34375  49.8232886904762 9.75923295454545  49.4698660714286 10.1100852272727  C 49.116443452381 10.4609375  48.6979166666667 10.6363636363636  48.2142857142857 11  L 1.78571428571429 11  C 1.30208333333333 10.6363636363636  0.883556547619048 10.4609375  0.530133928571429 10.1100852272727  C 0.17671130952381 9.75923295454545  0 9.34375  0 8.86363636363637  L 0 1.77272727272727  C 0 1.29261363636363  0.17671130952381 0.877130681818176  0.530133928571429 0.526278409090911  C 0.883556547619048 0.175426136363633  1.30208333333333 0  1.78571428571429 0  L 48.2142857142857 0  C 48.6979166666667 0  49.116443452381 0.175426136363633  49.4698660714286 0.526278409090911  Z " fill-rule="nonzero" fill="#333333" stroke="none" transform="matrix(1 0 0 1 598 532 )" />
  </g>
</svg>