<?xml version="1.0" encoding="utf-8"?>
<svg version="1.1" xmlns:xlink="http://www.w3.org/1999/xlink" width="41px" height="35px" xmlns="http://www.w3.org/2000/svg">
  <g transform="matrix(1 0 0 1 -1008 -659 )">
    <path d="M 13.7848772321429 12.5211588541667  C 14.3568638392857 13.0908203125  14.6428571428571 13.7782118055556  14.6428571428571 14.5833333333333  C 14.6428571428571 15.3884548611111  14.3568638392857 16.0758463541667  13.7848772321429 16.6455078125  C 13.212890625 17.2151692708333  12.522693452381 17.5  11.7142857142857 17.5  C 10.9058779761905 17.5  10.2156808035714 17.2151692708333  9.64369419642857 16.6455078125  C 9.07170758928572 16.0758463541667  8.78571428571428 15.3884548611111  8.78571428571428 14.5833333333333  C 8.78571428571428 13.7782118055556  9.07170758928572 13.0908203125  9.64369419642857 12.5211588541667  C 10.2156808035714 11.9514973958333  10.9058779761905 11.6666666666667  11.7142857142857 11.6666666666667  C 12.522693452381 11.6666666666667  13.212890625 11.9514973958333  13.7848772321429 12.5211588541667  Z M 22.5705915178571 12.5211588541667  C 23.142578125 13.0908203125  23.4285714285714 13.7782118055556  23.4285714285714 14.5833333333333  C 23.4285714285714 15.3884548611111  23.142578125 16.0758463541667  22.5705915178571 16.6455078125  C 21.9986049107143 17.2151692708333  21.3084077380952 17.5  20.5 17.5  C 19.6915922619048 17.5  19.0013950892857 17.2151692708333  18.4294084821429 16.6455078125  C 17.857421875 16.0758463541667  17.5714285714286 15.3884548611111  17.5714285714286 14.5833333333333  C 17.5714285714286 13.7782118055556  17.857421875 13.0908203125  18.4294084821429 12.5211588541667  C 19.0013950892857 11.9514973958333  19.6915922619048 11.6666666666667  20.5 11.6666666666667  C 21.3084077380952 11.6666666666667  21.9986049107143 11.9514973958333  22.5705915178571 12.5211588541667  Z M 31.3563058035714 12.5211588541667  C 31.9282924107143 13.0908203125  32.2142857142857 13.7782118055556  32.2142857142857 14.5833333333333  C 32.2142857142857 15.3884548611111  31.9282924107143 16.0758463541667  31.3563058035714 16.6455078125  C 30.7843191964286 17.2151692708333  30.0941220238095 17.5  29.2857142857143 17.5  C 28.4773065476191 17.5  27.787109375 17.2151692708333  27.2151227678571 16.6455078125  C 26.6431361607143 16.0758463541667  26.3571428571429 15.3884548611111  26.3571428571429 14.5833333333333  C 26.3571428571429 13.7782118055556  26.6431361607143 13.0908203125  27.2151227678571 12.5211588541667  C 27.787109375 11.9514973958333  28.4773065476191 11.6666666666667  29.2857142857143 11.6666666666667  C 30.0941220238095 11.6666666666667  30.7843191964286 11.9514973958333  31.3563058035714 12.5211588541667  Z M 29.228515625 4.50032552083333  C 26.5211123511905 3.44455295138889  23.6116071428571 2.91666666666667  20.5 2.91666666666667  C 17.3883928571429 2.91666666666667  14.4788876488095 3.44455295138889  11.771484375 4.50032552083333  C 9.06408110119048 5.55609809027778  6.91341145833333 6.98025173611111  5.31947544642857 8.77278645833333  C 3.72553943452381 10.5653211805556  2.92857142857143 12.5021701388889  2.92857142857143 14.5833333333333  C 2.92857142857143 16.2847222222222  3.47386532738095 17.9063585069444  4.564453125 19.4482421875  C 5.65504092261905 20.9901258680556  7.19177827380952 22.3231336805556  9.17466517857143 23.447265625  L 11.1651785714286 24.5865885416667  L 10.5474330357143 26.7740885416667  C 10.1813616071429 28.1564670138889  9.64750744047619 29.462890625  8.94587053571428 30.693359375  C 11.2643229166667 29.736328125  13.3616071428571 28.4375  15.2377232142857 26.796875  L 16.2215401785714 25.9309895833333  L 17.5256696428571 26.0677083333333  C 18.578125 26.1892361111111  19.569568452381 26.25  20.5 26.25  C 23.6116071428571 26.25  26.5211123511905 25.7221137152778  29.228515625 24.6663411458333  C 31.9359188988095 23.6105685763889  34.0865885416667 22.1864149305556  35.6805245535714 20.3938802083333  C 37.2744605654762 18.6013454861111  38.0714285714286 16.6644965277778  38.0714285714286 14.5833333333333  C 38.0714285714286 12.5021701388889  37.2744605654762 10.5653211805556  35.6805245535714 8.77278645833333  C 34.0865885416667 6.98025173611111  31.9359188988095 5.55609809027778  29.228515625 4.50032552083333  Z M 39.3755580357143 8.9208984375  C 40.4585193452381 10.7210286458333  41 12.6085069444444  41 14.5833333333333  C 41 17.2265625  40.0848214285714 19.6685112847222  38.2544642857143 21.9091796875  C 36.4241071428571 24.1498480902778  33.9378720238095 25.9195963541667  30.7957589285714 27.2184244791667  C 27.6536458333333 28.5172526041667  24.2217261904762 29.1666666666667  20.5 29.1666666666667  C 19.4322916666667 29.1666666666667  18.3264508928571 29.1059027777778  17.1824776785714 28.984375  C 14.1623883928571 31.6427951388889  10.6542038690476 33.4809027777778  6.65792410714286 34.4986979166667  C 5.91052827380952 34.7113715277778  5.04110863095238 34.8784722222222  4.04966517857143 35  L 3.93526785714286 35  C 3.70647321428571 35  3.50055803571429 34.9202473958333  3.31752232142857 34.7607421875  C 3.13448660714286 34.6012369791667  3.01246279761905 34.3923611111111  2.95145089285714 34.1341145833333  L 2.95145089285714 34.111328125  C 2.90569196428571 34.0505642361111  2.9018787202381 33.9594184027778  2.94001116071429 33.837890625  C 2.97814360119048 33.7163628472222  2.99339657738095 33.6404079861111  2.98577008928571 33.6100260416667  C 2.97814360119048 33.5796440972222  3.01246279761905 33.5074869791667  3.08872767857143 33.3935546875  L 3.22600446428571 33.1884765625  C 3.22600446428571 33.1884765625  3.27938988095238 33.1239149305556  3.38616071428571 32.9947916666667  C 3.49293154761905 32.8656684027778  3.55394345238095 32.7973090277778  3.56919642857143 32.7897135416667  C 3.67596726190476 32.6681857638889  3.91238839285714 32.4061414930556  4.27845982142857 32.0035807291667  C 4.64453125 31.6010199652778  4.90764508928571 31.3123914930556  5.06780133928571 31.1376953125  C 5.22795758928571 30.9629991319444  5.4643787202381 30.6629774305556  5.77706473214286 30.2376302083333  C 6.08975074404762 29.8122829861111  6.33761160714286 29.4249131944444  6.52064732142857 29.0755208333333  C 6.70368303571429 28.7261284722222  6.90959821428571 28.2779947916667  7.13839285714286 27.7311197916667  C 7.3671875 27.1842447916667  7.56547619047619 26.6069878472222  7.73325892857143 25.9993489583333  C 5.33854166666667 24.6473524305556  3.45098586309524 22.9763454861111  2.07059151785714 20.986328125  C 0.690197172619048 18.9963107638889  0 16.8619791666667  0 14.5833333333333  C 0 12.6085069444444  0.541480654761905 10.7210286458333  1.62444196428571 8.9208984375  C 2.70740327380952 7.12076822916667  4.1640625 5.56749131944444  5.99441964285714 4.26106770833333  C 7.82477678571429 2.95464409722222  10.0059523809524 1.91786024305555  12.5379464285714 1.15071614583333  C 15.0699404761905 0.383572048611109  17.7239583333333 0  20.5 0  C 23.2760416666667 0  25.9300595238095 0.383572048611109  28.4620535714286 1.15071614583333  C 30.9940476190476 1.91786024305555  33.1752232142857 2.95464409722222  35.0055803571429 4.26106770833333  C 36.8359375 5.56749131944444  38.2925967261905 7.12076822916667  39.3755580357143 8.9208984375  Z " fill-rule="nonzero" fill="#333333" stroke="none" transform="matrix(1 0 0 1 1008 659 )" />
  </g>
</svg>