<?xml version="1.0" encoding="utf-8"?>
<svg version="1.1" xmlns:xlink="http://www.w3.org/1999/xlink" width="50px" height="43px" xmlns="http://www.w3.org/2000/svg">
  <g transform="matrix(1 0 0 1 -357 -221 )">
    <path d="M 34.1238839285714 24.103515625  C 34.4587053571429 24.7567274305556  34.9888392857143 25.0833333333333  35.7142857142857 25.0833333333333  L 44.2243303571429 25.0833333333333  C 44.1313244047619 25.1953125  44.038318452381 25.2932942708333  43.9453125 25.3772786458333  C 43.8523065476191 25.4612630208333  43.7686011904762 25.53125  43.6941964285714 25.5872395833333  L 43.6104910714286 25.69921875  L 26.2276785714286 42.49609375  C 25.8928571428571 42.83203125  25.483630952381 43  25 43  C 24.5163690476191 43  24.1071428571429 42.83203125  23.7723214285714 42.49609375  L 6.36160714285714 25.6432291666667  C 6.26860119047619 25.6059027777778  6.07328869047619 25.4192708333333  5.77566964285714 25  L 16.0714285714286 25  C 16.4806547619048 25.0833333333333  16.8480282738095 24.9573567708333  17.1735491071429 24.7054036458333  C 17.4990699404762 24.4534505208333  17.7083333333333 24.1315104166667  17.8013392857143 23.7395833333333  L 19.7544642857143 15.873046875  L 25.0558035714286 34.5455729166667  C 25.1674107142857 34.9188368055556  25.3813244047619 35.2267795138889  25.6975446428571 35.4694010416667  C 26.0137648809524 35.7120225694444  26.3764880952381 35.8333333333333  26.7857142857143 35.8333333333333  C 27.1763392857143 35.8333333333333  27.5297619047619 35.7120225694444  27.8459821428571 35.4694010416667  C 28.1622023809524 35.2267795138889  28.3761160714286 34.9188368055556  28.4877232142857 34.5455729166667  L 32.5613839285714 20.9680989583333  L 34.1238839285714 24.103515625  Z M 46.4564732142857 3.47135416666667  C 48.8188244047619 5.78559027777778  50 8.99565972222222  50 13.1015625  C 50 15.8077256944444  49.0420386904762 18.6072048611111  47.1261160714286 21  L 36.8303571428571 21  L 33.7332589285714 15.3131510416667  C 33.5844494047619 14.9958767361111  33.3472842261905 14.7439236111111  33.0217633928571 14.5572916666667  C 32.6962425595238 14.3706597222222  32.3567708333333 14.2960069444444  32.0033482142857 14.3333333333333  C 31.1662946428571 14.4266493055556  30.6454613095238 14.8559027777778  30.4408482142857 15.62109375  L 26.8415178571429 27.6588541666667  L 21.3727678571429 8.45442708333334  C 21.2611607142857 8.08116319444444  21.0425967261905 7.77322048611111  20.7170758928571 7.53059895833333  C 20.3915550595238 7.28797743055556  20.0241815476191 7.16666666666667  19.6149553571429 7.16666666666667  C 19.2057291666667 7.16666666666667  18.843005952381 7.29264322916667  18.5267857142857 7.54459635416667  C 18.2105654761905 7.79654947916667  18.0059523809524 8.11848958333334  17.9129464285714 8.51041666666666  L 14.6763392857143 21  L 2.87388392857143 21  C 0.957961309523809 18.6072048611111  0 15.8077256944444  0 13.1015625  C 0 8.99565972222222  1.1811755952381 5.78559027777778  3.54352678571429 3.47135416666667  C 5.90587797619048 1.15711805555555  9.1703869047619 0  13.3370535714286 0  C 14.4903273809524 0  15.6668526785714 0.200629340277775  16.8666294642857 0.601888020833335  C 18.06640625 1.00314670138889  19.1824776785714 1.54437934027778  20.21484375 2.2255859375  C 21.2472098214286 2.90679253472222  22.1354166666667 3.54600694444444  22.8794642857143 4.14322916666667  C 23.6235119047619 4.74045138888888  24.3303571428571 5.375  25 6.046875  C 25.6696428571429 5.375  26.3764880952381 4.74045138888888  27.1205357142857 4.14322916666667  C 27.8645833333333 3.54600694444444  28.7527901785714 2.90679253472222  29.78515625 2.2255859375  C 30.8175223214286 1.54437934027778  31.93359375 1.00314670138889  33.1333705357143 0.601888020833335  C 34.3331473214286 0.200629340277775  35.5096726190476 0  36.6629464285714 0  C 40.8296130952381 0  44.0941220238095 1.15711805555555  46.4564732142857 3.47135416666667  Z " fill-rule="nonzero" fill="#333333" stroke="none" transform="matrix(1 0 0 1 357 221 )" />
  </g>
</svg>