<?xml version="1.0" encoding="utf-8"?>
<svg version="1.1" xmlns:xlink="http://www.w3.org/1999/xlink" width="50px" height="48px" xmlns="http://www.w3.org/2000/svg">
  <g transform="matrix(1 0 0 1 -469 -357 )">
    <path d="M 48.3173076923077 17.2098298676748  C 49.4391025641025 17.3913043478261  50 17.8550724637681  50 18.601134215501  C 50 19.0447385003151  49.7395833333333 19.528670447385  49.21875 20.0529300567108  L 38.3112980769231 30.7599243856333  L 40.8954326923077 45.882797731569  C 40.9154647435897 46.0239445494644  40.9254807692308 46.2255828607435  40.9254807692308 46.4877126654064  C 40.9254807692308 46.9111531190927  40.8203125 47.2690611216131  40.6099759615385 47.5614366729678  C 40.3996394230769 47.8538122243226  40.0941506410256 48  39.6935096153846 48  C 39.3129006410256 48  38.9122596153846 47.8790170132325  38.4915865384615 47.6370510396976  L 25 40.4990548204159  L 11.5084134615385 47.6370510396976  C 11.0677083333333 47.8790170132325  10.6670673076923 48  10.3064903846154 48  C 9.88581730769232 48  9.5703125 47.8538122243226  9.35997596153845 47.5614366729678  C 9.14963942307691 47.2690611216131  9.04447115384613 46.9111531190927  9.04447115384613 46.4877126654064  C 9.04447115384613 46.3667296786389  9.06450320512823 46.1650913673598  9.10456730769232 45.882797731569  L 11.6887019230769 30.7599243856333  L 0.751201923076906 20.0529300567108  C 0.250400641025635 19.5085066162571  0 19.0245746691871  0 18.601134215501  C 0 17.8550724637681  0.560897435897459 17.3913043478261  1.68269230769232 17.2098298676748  L 16.7668269230769 15.0018903591682  L 23.5276442307692 1.24007561436673  C 23.9082532051282 0.413358538122225  24.3990384615385 0  25 0  C 25.6009615384615 0  26.0917467948718 0.413358538122225  26.4723557692308 1.24007561436673  L 30.9540996848197 10.3627787866297  L 33.2331730769231 15.0018903591682  L 48.3173076923077 17.2098298676748  Z " fill-rule="nonzero" fill="#999999" stroke="none" transform="matrix(1 0 0 1 469 357 )" />
  </g>
</svg>