<?xml version="1.0" encoding="utf-8"?>
<svg version="1.1" xmlns:xlink="http://www.w3.org/1999/xlink" width="50px" height="50px" xmlns="http://www.w3.org/2000/svg">
  <g transform="matrix(1 0 0 1 -200 -636 )">
    <path d="M 45.7845052083333 45.7845052083333  C 47.2059461805556 44.3630642361111  47.9166666666667 42.6432291666667  48 40.625  L 48 25  L 25 25  L 25 2  L 9.375 2  C 7.35677083333333 2.08333333333333  5.63693576388889 2.79405381944444  4.21549479166667 4.21549479166667  C 2.79405381944444 5.63693576388888  2.08333333333333 7.35677083333333  2 9.375  L 2 25  L 25 25  L 25 48  L 40.625 48  C 42.6432291666667 47.9166666666667  44.3630642361111 47.2059461805556  45.7845052083333 45.7845052083333  Z M 47.2493489583333 2.75065104166667  C 49.0831163194444 4.58441840277777  50 6.79253472222222  50 9.375  L 50 40.625  C 50 43.2074652777778  49.0831163194444 45.4155815972222  47.2493489583333 47.2493489583333  C 45.4155815972222 49.0831163194444  43.2074652777778 50  40.625 50  L 9.375 50  C 6.79253472222222 50  4.58441840277778 49.0831163194444  2.75065104166667 47.2493489583333  C 0.916883680555555 45.4155815972222  0 43.2074652777778  0 40.625  L 0 9.375  C 0 6.79253472222222  0.916883680555555 4.58441840277777  2.75065104166667 2.75065104166667  C 4.58441840277778 0.916883680555552  6.79253472222222 0  9.375 0  L 40.625 0  C 43.2074652777778 0  45.4155815972222 0.916883680555552  47.2493489583333 2.75065104166667  Z " fill-rule="nonzero" fill="#333333" stroke="none" transform="matrix(1 0 0 1 200 636 )" />
  </g>
</svg>