<?xml version="1.0" encoding="utf-8"?>
<svg version="1.1" xmlns:xlink="http://www.w3.org/1999/xlink" width="50px" height="50px" xmlns="http://www.w3.org/2000/svg">
  <g transform="matrix(1 0 0 1 -409 -616 )">
    <path d="M 46.1635044642857 46.1635044642857  C 46.3402157738095 45.9867931547619  46.4285714285714 45.7775297619048  46 45.5357142857143  L 46 15.1785714285714  C 46.4285714285714 14.9367559523809  46.3402157738095 14.7274925595238  46.1635044642857 14.55078125  C 45.9867931547619 14.3740699404762  45.7775297619048 14.2857142857143  45.5357142857143 15  L 15.1785714285714 15  C 14.936755952381 14.2857142857143  14.7274925595238 14.3740699404762  14.55078125 14.55078125  C 14.3740699404762 14.7274925595238  14.2857142857143 14.9367559523809  15 15.1785714285714  L 15 45.5357142857143  C 14.2857142857143 45.7775297619048  14.3740699404762 45.9867931547619  14.55078125 46.1635044642857  C 14.7274925595238 46.3402157738095  14.936755952381 46.4285714285714  15.1785714285714 46  L 45.5357142857143 46  C 45.7775297619048 46.4285714285714  45.9867931547619 46.3402157738095  46.1635044642857 46.1635044642857  Z M 48.6886160714286 12.0256696428571  C 49.5628720238095 12.8999255952381  50 13.9508928571429  50 15.1785714285714  L 50 45.5357142857143  C 50 46.7633928571429  49.5628720238095 47.8143601190476  48.6886160714286 48.6886160714286  C 47.8143601190476 49.5628720238095  46.7633928571429 50  45.5357142857143 50  L 15.1785714285714 50  C 13.9508928571429 50  12.8999255952381 49.5628720238095  12.0256696428571 48.6886160714286  C 11.1514136904762 47.8143601190476  10.7142857142857 46.7633928571429  11 45.5357142857143  L 11 15.1785714285714  C 10.7142857142857 13.9508928571429  11.1514136904762 12.8999255952381  12.0256696428571 12.0256696428571  C 12.8999255952381 11.1514136904762  13.9508928571429 10.7142857142857  15.1785714285714 11  L 45.5357142857143 11  C 46.7633928571429 10.7142857142857  47.8143601190476 11.1514136904762  48.6886160714286 12.0256696428571  Z M 37.9743303571429 1.31138392857143  C 38.8485863095238 2.18563988095238  39.2857142857143 3.23660714285715  39.2857142857143 4.46428571428572  L 39.2857142857143 8.92857142857143  L 35.7142857142857 8.92857142857143  L 35.7142857142857 4.46428571428572  C 35.7142857142857 4.22247023809524  35.6259300595238 4.01320684523809  35.44921875 3.83649553571428  C 35.2725074404762 3.65978422619047  35.0632440476191 3.57142857142857  34.8214285714286 4  L 4.46428571428571 4  C 4.22247023809524 3.57142857142857  4.01320684523809 3.65978422619047  3.83649553571429 3.83649553571428  C 3.65978422619048 4.01320684523809  3.57142857142857 4.22247023809524  4 4.46428571428572  L 4 34.8214285714286  C 3.57142857142857 35.063244047619  3.65978422619048 35.2725074404762  3.83649553571429 35.44921875  C 4.01320684523809 35.6259300595238  4.22247023809524 35.7142857142857  4.46428571428571 35.7142857142857  L 8.92857142857143 35.7142857142857  L 8.92857142857143 39.2857142857143  L 4.46428571428571 39.2857142857143  C 3.23660714285714 39.2857142857143  2.18563988095238 38.8485863095238  1.31138392857143 37.9743303571429  C 0.437127976190476 37.1000744047619  0 36.0491071428571  0 34.8214285714286  L 0 4.46428571428572  C 0 3.23660714285715  0.437127976190476 2.18563988095238  1.31138392857143 1.31138392857143  C 2.18563988095238 0.437127976190477  3.23660714285714 0  4.46428571428571 0  L 34.8214285714286 0  C 36.0491071428571 0  37.1000744047619 0.437127976190477  37.9743303571429 1.31138392857143  Z " fill-rule="nonzero" fill="#333333" stroke="none" transform="matrix(1 0 0 1 409 616 )" />
  </g>
</svg>