<?xml version="1.0" encoding="utf-8"?>
<svg version="1.1" xmlns:xlink="http://www.w3.org/1999/xlink" width="50px" height="50px" xmlns="http://www.w3.org/2000/svg">
  <g transform="matrix(1 0 0 1 -130 -191 )">
    <path d="M 32.2541233964569 14.4777031154551  L 35.5222968845449 17.7458766035431  L 44.4715943799633 8.79657910812462  L 41.2034208918754 5.52840562003665  L 32.2541233964569 14.4777031154551  Z M 48.6255345143555 7.42211362248015  C 48.9920586438607 7.78863775198534  49.1753207086133 8.24679291386683  49.1753207086133 8.79657910812462  C 49.1753207086133 9.34636530238241  48.9920586438607 9.8045204642639  48.6255345143555 10.1710445937691  L 9.34636530238241 49.4502138057422  C 8.97984117287722 49.8167379352474  8.52168601099572 50  7.97189981673793 50  C 7.42211362248015 50  6.96395846059866 49.8167379352474  6.59743433109346 49.4502138057422  L 0.549786194257789 43.4025656689065  C 0.183262064752596 43.0360415394013  0 42.5778863775199  0 42.0281001832621  C 0 41.4783139890043  0.183262064752596 41.0201588271228  0.549786194257789 40.6536346976176  L 39.8289554062309 1.37446548564447  C 40.1954795357361 1.00794135613928  40.6536346976176 0.824679291386682  41.2034208918754 0.824679291386682  C 41.7532070861332 0.824679291386682  42.2113622480147 1.00794135613928  42.5778863775199 1.37446548564447  L 48.6255345143555 7.42211362248015  Z M 6.99450213805742 0  L 7.9108124618204 2.99328039095907  L 10.9040928527795 3.90959071472205  L 7.9108124618204 4.82590103848503  L 6.99450213805742 7.81918142944411  L 6.07819181429444 4.82590103848503  L 3.08491142333537 3.90959071472205  L 6.07819181429444 2.99328039095907  L 6.99450213805742 0  Z M 16.7684789248626 1.95479535736103  L 18.6010995723885 7.94135613927917  L 24.5876603543067 9.77397678680513  L 18.6010995723885 11.6065974343311  L 16.7684789248626 17.5931582162492  L 14.9358582773366 11.6065974343311  L 8.94929749541845 9.77397678680513  L 14.9358582773366 7.94135613927917  L 16.7684789248626 1.95479535736103  Z M 46.090409285278 19.5479535736103  L 47.0067196090409 22.5412339645693  L 50 23.4575442883323  L 47.0067196090409 24.3738546120953  L 46.090409285278 27.3671350030544  L 45.174098961515 24.3738546120953  L 42.1808185705559 23.4575442883323  L 45.174098961515 22.5412339645693  L 46.090409285278 19.5479535736103  Z M 26.5424557116677 0  L 27.4587660354307 2.99328039095907  L 30.4520464263897 3.90959071472205  L 27.4587660354307 4.82590103848503  L 26.5424557116677 7.81918142944411  L 25.6261453879047 4.82590103848503  L 22.6328649969456 3.90959071472205  L 25.6261453879047 2.99328039095907  L 26.5424557116677 0  Z " fill-rule="nonzero" fill="#333333" stroke="none" transform="matrix(1 0 0 1 130 191 )" />
  </g>
</svg>