<?xml version="1.0" encoding="utf-8"?>
<svg version="1.1" xmlns:xlink="http://www.w3.org/1999/xlink" width="50px" height="50px" xmlns="http://www.w3.org/2000/svg">
  <g transform="matrix(1 0 0 1 -622 -375 )">
    <path d="M 47.193287037037 13.2780686445608  C 49.0644290123457 16.8751211944929  50 20.738801628854  50 24.869109947644  C 50 28.2819468683343  49.3393132716049 31.5396548380842  48.0179398148148 34.6422338568935  C 46.6965663580247 37.7448128757029  44.921875 40.4159394997091  42.6938657407407 42.6556137289122  C 40.4658564814815 44.8952879581152  37.8086419753086 46.6792708939306  34.7222222222222 48.0075625363584  C 31.6358024691358 49.3358541787861  28.3950617283951 50  25 50  C 21.6049382716049 50  18.3641975308642 49.3358541787861  15.2777777777778 48.0075625363584  C 12.1913580246914 46.6792708939306  9.53414351851852 44.8952879581152  7.30613425925926 42.6556137289122  C 5.078125 40.4159394997091  3.30343364197531 37.7448128757029  1.98206018518519 34.6422338568935  C 0.660686728395062 31.5396548380842  0 28.2819468683343  0 24.869109947644  C 0 20.738801628854  0.935570987654321 16.8751211944929  2.80671296296296 13.2780686445608  C 4.67785493827161 9.68101609462866  7.2337962962963 6.71902268760908  10.474537037037 4.39208842350204  C 13.7152777777778 2.065154159395  17.3225308641975 0.601124684894316  21.2962962962963 0  L 21.2962962962963 6.63176265270506  C 17.0331790123457 7.5043630017452  13.4982638888889 9.64708163661043  10.6915509259259 13.0599185573008  C 7.88483796296296 16.4727554779911  6.48148148148148 20.4091526081055  6.48148148148148 24.869109947644  C 6.48148148148148 27.3899554004266  6.97337962962963 29.7993019197208  7.95717592592593 32.0971495055265  C 8.94097222222222 34.3949970913322  10.2575231481481 36.3728912158232  11.9068287037037 38.0308318789994  C 13.5561342592593 39.6887725421757  15.5237268518519 41.0122164048866  17.8096064814815 42.0011634671321  C 20.0954861111111 42.9901105293775  22.4922839506173 43.4845840605003  25 43.4845840605003  C 27.5077160493827 43.4845840605003  29.9045138888889 42.9901105293775  32.1903935185185 42.0011634671321  C 34.4762731481481 41.0122164048866  36.4438657407407 39.6887725421757  38.0931712962963 38.0308318789994  C 39.7424768518519 36.3728912158232  41.0590277777778 34.3949970913322  42.0428240740741 32.0971495055265  C 43.0266203703704 29.7993019197208  43.5185185185185 27.3899554004266  43.5185185185185 24.869109947644  C 43.5185185185185 20.4091526081055  42.115162037037 16.4727554779911  39.3084490740741 13.0599185573008  C 36.5017361111111 9.64708163661043  32.9668209876543 7.5043630017452  28.7037037037037 6.63176265270506  L 28.7037037037037 0  C 32.6774691358025 0.601124684894316  36.2847222222222 2.065154159395  39.525462962963 4.39208842350204  C 42.7662037037037 6.71902268760908  45.3221450617284 9.68101609462866  47.193287037037 13.2780686445608  Z " fill-rule="nonzero" fill="#333333" stroke="none" transform="matrix(1 0 0 1 622 375 )" />
  </g>
</svg>