<?xml version="1.0" encoding="utf-8"?>
<svg version="1.1" xmlns:xlink="http://www.w3.org/1999/xlink" width="48px" height="50px" xmlns="http://www.w3.org/2000/svg">
  <g transform="matrix(1 0 0 1 -439 -175 )">
    <path d="M 43.7811408614668 4.35267857142857  L 47.720605355064 8.28683035714285  C 47.906868451688 8.47284226190476  48 8.68675595238095  48 8.92857142857143  C 48 9.1703869047619  47.906868451688 9.38430059523809  47.720605355064 9.5703125  L 43.7811408614668 13.5044642857143  C 43.2596041909197 14.0252976190476  42.6263096623981 14.2857142857143  41.8812572759022 15  L 4.33061699650757 15  C 3.84633294528522 14.2857142857143  3.42724097788126 14.1090029761905  3.07334109429569 13.7555803571429  C 2.71944121071013 13.4021577380952  2.54249126891735 12.9836309523809  2.54249126891735 12.5  L 2.54249126891735 5.35714285714286  C 2.54249126891735 4.8735119047619  2.71944121071013 4.45498511904762  3.07334109429569 4.1015625  C 3.42724097788126 3.74813988095238  3.84633294528522 3.57142857142857  4.33061699650757 4  L 20.4237485448196 4  L 20.4237485448196 1.78571428571428  C 20.4237485448196 1.30208333333333  20.6006984866123 0.883556547619041  20.9545983701979 0.53013392857143  C 21.3084982537835 0.176711309523814  21.7275902211874 0  22.2118742724098 0  L 25.7881257275902 0  C 26.2724097788126 0  26.6915017462165 0.176711309523814  27.0454016298021 0.53013392857143  C 27.3993015133877 0.883556547619041  27.5762514551804 1.30208333333333  27.5762514551804 1.78571428571428  L 27.5762514551804 4  L 41.8812572759022 4  C 42.6263096623981 3.57142857142857  43.2596041909197 3.83184523809524  43.7811408614668 4.35267857142857  Z M 21 48.2142857142857  L 21 33.9285714285714  L 27 33.9285714285714  L 27 48.2142857142857  C 27.5762514551804 48.6979166666667  27.3993015133877 49.116443452381  27.0454016298021 49.4698660714286  C 26.6915017462165 49.8232886904762  26.2724097788126 50  25.7881257275902 50  L 22.2118742724098 50  C 21.7275902211874 50  21.3084982537835 49.8232886904762  20.9545983701979 49.4698660714286  C 20.6006984866123 49.116443452381  20.4237485448196 48.6979166666667  21 48.2142857142857  Z M 27.5762514551804 22  L 43.6693830034924 22  C 44.1536670547148 21.4285714285714  44.5727590221187 21.6052827380952  44.9266589057043 21.9587053571429  C 45.2805587892899 22.3121279761905  45.4575087310827 22.7306547619048  45.4575087310827 23.2142857142857  L 45.4575087310827 30.3571428571429  C 45.4575087310827 30.8407738095238  45.2805587892899 31.2593005952381  44.9266589057043 31.6127232142857  C 44.5727590221187 31.9661458333333  44.1536670547148 32.1428571428571  43.6693830034924 32  L 6.11874272409779 32  C 5.37369033760186 32.1428571428571  4.74039580908033 31.8824404761905  4.21885913853318 31.3616071428571  L 0.279394644935972 27.4274553571429  C 0.0931315483119907 27.241443452381  0 27.0275297619048  0 26.7857142857143  C 0 26.5438988095238  0.0931315483119907 26.3299851190476  0.279394644935972 26.1439732142857  L 4.21885913853318 22.2098214285714  C 4.74039580908033 21.6889880952381  5.37369033760186 21.4285714285714  6.11874272409779 22  L 20.4237485448196 22  L 20.4237485448196 16.0714285714286  L 27.5762514551804 16.0714285714286  L 27.5762514551804 22  Z " fill-rule="nonzero" fill="#333333" stroke="none" transform="matrix(1 0 0 1 439 175 )" />
  </g>
</svg>