<?xml version="1.0" encoding="utf-8"?>
<svg version="1.1" xmlns:xlink="http://www.w3.org/1999/xlink" width="50px" height="50px" xmlns="http://www.w3.org/2000/svg">
  <g transform="matrix(1 0 0 1 -862 -402 )">
    <path d="M 24.2513020833333 29.4596354166667  C 24.4683159722222 29.6766493055556  24.5768229166667 29.9262152777778  24.5768229166667 30.2083333333333  C 24.5768229166667 30.4904513888889  24.4683159722222 30.7400173611111  24.2513020833333 30.95703125  L 13.4440104166667 41.7643229166667  L 18.1315104166667 46.4518229166667  C 18.5438368055556 46.8641493055556  18.75 47.3524305555556  18.75 47.9166666666667  C 18.75 48.4809027777778  18.5438368055556 48.9691840277778  18.1315104166667 49.3815104166667  C 17.7191840277778 49.7938368055556  17.2309027777778 50  16.6666666666667 50  L 2.08333333333333 50  C 1.51909722222222 50  1.03081597222222 49.7938368055556  0.618489583333333 49.3815104166667  C 0.206163194444444 48.9691840277778  0 48.4809027777778  0 47.9166666666667  L 0 33.3333333333333  C 0 32.7690972222222  0.206163194444444 32.2808159722222  0.618489583333333 31.8684895833333  C 1.03081597222222 31.4561631944444  1.51909722222222 31.25  2.08333333333333 31.25  C 2.64756944444444 31.25  3.13585069444444 31.4561631944444  3.54817708333333 31.8684895833333  L 8.23567708333333 36.5559895833333  L 19.04296875 25.7486979166667  C 19.2599826388889 25.5316840277778  19.5095486111111 25.4231770833333  19.7916666666667 25.4231770833333  C 20.0737847222222 25.4231770833333  20.3233506944444 25.5316840277778  20.5403645833333 25.7486979166667  L 24.2513020833333 29.4596354166667  Z M 49.3815104166667 0.618489583333331  C 49.7938368055556 1.03081597222222  50 1.51909722222222  50 2.08333333333333  L 50 16.6666666666667  C 50 17.2309027777778  49.7938368055556 17.7191840277778  49.3815104166667 18.1315104166667  C 48.9691840277778 18.5438368055556  48.4809027777778 18.75  47.9166666666667 18.75  C 47.3524305555556 18.75  46.8641493055556 18.5438368055556  46.4518229166667 18.1315104166667  L 41.7643229166667 13.4440104166667  L 30.95703125 24.2513020833333  C 30.7400173611111 24.4683159722222  30.4904513888889 24.5768229166667  30.2083333333333 24.5768229166667  C 29.9262152777778 24.5768229166667  29.6766493055556 24.4683159722222  29.4596354166667 24.2513020833333  L 25.7486979166667 20.5403645833333  C 25.5316840277778 20.3233506944444  25.4231770833333 20.0737847222222  25.4231770833333 19.7916666666667  C 25.4231770833333 19.5095486111111  25.5316840277778 19.2599826388889  25.7486979166667 19.04296875  L 36.5559895833333 8.23567708333333  L 31.8684895833333 3.54817708333333  C 31.4561631944444 3.13585069444444  31.25 2.64756944444444  31.25 2.08333333333333  C 31.25 1.51909722222222  31.4561631944444 1.03081597222222  31.8684895833333 0.618489583333331  C 32.2808159722222 0.206163194444442  32.7690972222222 0  33.3333333333333 0  L 47.9166666666667 0  C 48.4809027777778 0  48.9691840277778 0.206163194444442  49.3815104166667 0.618489583333331  Z " fill-rule="nonzero" fill="#333333" stroke="none" transform="matrix(1 0 0 1 862 402 )" />
  </g>
</svg>