<?xml version="1.0" encoding="utf-8"?>
<svg version="1.1" xmlns:xlink="http://www.w3.org/1999/xlink" width="25px" height="25px" xmlns="http://www.w3.org/2000/svg">
  <g transform="matrix(1 0 0 1 -401 -171 )">
    <path d="M 413.5 171  C 420.5 171  426 176.5  426 183.5  C 426 190.5  420.5 196  413.5 196  C 406.5 196  401 190.5  401 183.5  C 401 176.5  406.5 171  413.5 171  Z " fill-rule="nonzero" fill="#949494" stroke="none" />
    <path d="M 413.5 171.5  C 420.22 171.5  425.5 176.78  425.5 183.5  C 425.5 190.22  420.22 195.5  413.5 195.5  C 406.78 195.5  401.5 190.22  401.5 183.5  C 401.5 176.78  406.78 171.5  413.5 171.5  Z " stroke-width="1" stroke="#797979" fill="none" />
  </g>
</svg>