<?xml version="1.0" encoding="utf-8"?>
<svg version="1.1" xmlns:xlink="http://www.w3.org/1999/xlink" width="15px" height="14px" xmlns="http://www.w3.org/2000/svg">
  <g transform="matrix(1 0 0 1 -406 -177 )">
    <path d="M 14.6464646464646 10.4646464646465  C 14.8821548821549 10.6846240179574  15 10.9517396184063  15 11.2659932659933  C 15 11.5802469135802  14.8821548821549 11.8473625140292  14.6464646464646 12.0673400673401  L 12.9292929292929 13.6700336700337  C 12.6936026936027 13.8900112233446  12.4074074074074 14  12.0707070707071 14  C 11.7340067340067 14  11.4478114478114 13.8900112233446  11.2121212121212 13.6700336700337  L 7.5 10.2053872053872  L 3.78787878787879 13.6700336700337  C 3.55218855218855 13.8900112233446  3.26599326599327 14  2.92929292929293 14  C 2.59259259259259 14  2.30639730639731 13.8900112233446  2.07070707070707 13.6700336700337  L 0.353535353535354 12.0673400673401  C 0.117845117845118 11.8473625140292  0 11.5802469135802  0 11.2659932659933  C 0 10.9517396184063  0.117845117845118 10.6846240179574  0.353535353535354 10.4646464646465  L 4.06565656565657 7  L 0.353535353535354 3.53535353535353  C 0.117845117845118 3.31537598204265  0 3.04826038159371  0 2.73400673400673  C 0 2.41975308641975  0.117845117845118 2.15263748597082  0.353535353535354 1.93265993265993  L 2.07070707070707 0.32996632996633  C 2.30639730639731 0.109988776655443  2.59259259259259 0  2.92929292929293 0  C 3.26599326599327 0  3.55218855218855 0.109988776655443  3.78787878787879 0.32996632996633  L 7.5 3.7946127946128  L 11.2121212121212 0.32996632996633  C 11.4478114478114 0.109988776655443  11.7340067340067 0  12.0707070707071 0  C 12.4074074074074 0  12.6936026936027 0.109988776655443  12.9292929292929 0.32996632996633  L 14.6464646464646 1.93265993265993  C 14.8821548821549 2.15263748597082  15 2.41975308641975  15 2.73400673400673  C 15 3.04826038159371  14.8821548821549 3.31537598204265  14.6464646464646 3.53535353535353  L 10.9343434343434 7  L 14.6464646464646 10.4646464646465  Z " fill-rule="nonzero" fill="#ffffff" stroke="none" transform="matrix(1 0 0 1 406 177 )" />
  </g>
</svg>