<?xml version="1.0" encoding="utf-8"?>
<svg version="1.1" xmlns:xlink="http://www.w3.org/1999/xlink" width="18px" height="25px" xmlns="http://www.w3.org/2000/svg">
  <g transform="matrix(1 0 0 1 -222 -156 )">
    <path d="M 17.666015625 15.1100852272727  C 17.888671875 15.334990530303  18 15.6013257575758  18 15.9090909090909  C 18 16.2168560606061  17.888671875 16.4831912878788  17.666015625 16.7080965909091  L 9.791015625 24.6626420454545  C 9.568359375 24.8875473484848  9.3046875 25  9 25  C 8.6953125 25  8.431640625 24.8875473484848  8.208984375 24.6626420454545  L 0.333984375 16.7080965909091  C 0.111328125 16.4831912878788  0 16.2168560606061  0 15.9090909090909  C 0 15.6013257575758  0.111328125 15.334990530303  0.333984375 15.1100852272727  C 0.556640625 14.8851799242424  0.8203125 14.7727272727273  1.125 14.7727272727273  L 16.875 14.7727272727273  C 17.1796875 14.7727272727273  17.443359375 14.8851799242424  17.666015625 15.1100852272727  Z M 17.666015625 8.29190340909091  C 17.888671875 8.51680871212121  18 8.78314393939394  18 9.09090909090909  C 18 9.39867424242424  17.888671875 9.66500946969697  17.666015625 9.88991477272727  C 17.443359375 10.1148200757576  17.1796875 10.2272727272727  16.875 10.2272727272727  L 1.125 10.2272727272727  C 0.8203125 10.2272727272727  0.556640625 10.1148200757576  0.333984375 9.88991477272727  C 0.111328125 9.66500946969697  0 9.39867424242424  0 9.09090909090909  C 0 8.78314393939394  0.111328125 8.51680871212121  0.333984375 8.29190340909091  L 8.208984375 0.337357954545456  C 8.431640625 0.112452651515149  8.6953125 0  9 0  C 9.3046875 0  9.568359375 0.112452651515149  9.791015625 0.337357954545456  L 17.666015625 8.29190340909091  Z " fill-rule="nonzero" fill="#333333" stroke="none" transform="matrix(1 0 0 1 222 156 )" />
  </g>
</svg>