<?xml version="1.0" encoding="utf-8"?>
<svg version="1.1" xmlns:xlink="http://www.w3.org/1999/xlink" width="364px" height="228px" viewBox="43 190  364 228" xmlns="http://www.w3.org/2000/svg">
  <path d="M 44 210  A 19 19 0 0 1 63 191 L 387 191  A 19 19 0 0 1 406 210 L 406 398  A 19 19 0 0 1 387 417 L 63 417  A 19 19 0 0 1 44 398 L 44 210  Z " fill-rule="nonzero" fill="#f0f0f0" stroke="none" />
  <path d="M 43.5 210  A 19.5 19.5 0 0 1 63 190.5 L 387 190.5  A 19.5 19.5 0 0 1 406.5 210 L 406.5 398  A 19.5 19.5 0 0 1 387 417.5 L 63 417.5  A 19.5 19.5 0 0 1 43.5 398 L 43.5 210  Z " stroke-width="1" stroke="#61a584" fill="none" stroke-opacity="0.976470588235294" />
</svg>