<?xml version="1.0" encoding="utf-8"?>
<svg version="1.1" xmlns:xlink="http://www.w3.org/1999/xlink" width="20px" height="29px" xmlns="http://www.w3.org/2000/svg">
  <g transform="matrix(1 0 0 1 -377 -431 )">
    <path d="M 13.53515625 13.083984375  C 14.51171875 12.1399739583333  15 11.0008680555556  15 9.66666666666667  C 15 8.33246527777778  14.51171875 7.193359375  13.53515625 6.24934895833333  C 12.55859375 5.30533854166667  11.3802083333333 4.83333333333333  10 4.83333333333333  C 8.61979166666667 4.83333333333333  7.44140625 5.30533854166667  6.46484375 6.24934895833333  C 5.48828125 7.193359375  5 8.33246527777778  5 9.66666666666667  C 5 11.0008680555556  5.48828125 12.1399739583333  6.46484375 13.083984375  C 7.44140625 14.0279947916667  8.61979166666667 14.5  10 14.5  C 11.3802083333333 14.5  12.55859375 14.0279947916667  13.53515625 13.083984375  Z M 17.0703125 2.83203125  C 19.0234375 4.72005208333333  20 6.99826388888888  20 9.66666666666667  C 20 11.0386284722222  19.78515625 12.1651475694444  19.35546875 13.0462239583333  L 12.24609375 27.6595052083333  C 12.0377604166667 28.0748697916667  11.728515625 28.4021267361111  11.318359375 28.6412760416667  C 10.908203125 28.8804253472222  10.46875 29  10 29  C 9.53125 29  9.091796875 28.8804253472222  8.681640625 28.6412760416667  C 8.271484375 28.4021267361111  7.96875 28.0748697916667  7.7734375 27.6595052083333  L 0.64453125 13.0462239583333  C 0.21484375 12.1651475694444  0 11.0386284722222  0 9.66666666666667  C 0 6.99826388888888  0.9765625 4.72005208333333  2.9296875 2.83203125  C 4.8828125 0.944010416666668  7.23958333333333 0  10 0  C 12.7604166666667 0  15.1171875 0.944010416666668  17.0703125 2.83203125  Z " fill-rule="nonzero" fill="#61a584" stroke="none" transform="matrix(1 0 0 1 377 431 )" />
  </g>
</svg>