<?xml version="1.0" encoding="utf-8"?>
<svg version="1.1" xmlns:xlink="http://www.w3.org/1999/xlink" width="20px" height="21px" xmlns="http://www.w3.org/2000/svg">
  <g transform="matrix(1 0 0 1 -377 -120 )">
    <path d="M 19.5286195286195 15.6969696969697  C 19.8428731762065 16.026936026936  20 16.4276094276094  20 16.8989898989899  C 20 17.3703703703704  19.8428731762065 17.7710437710438  19.5286195286195 18.1010101010101  L 17.2390572390572 20.5050505050505  C 16.9248035914703 20.8350168350168  16.5432098765432 21  16.0942760942761 21  C 15.645342312009 21  15.2637485970819 20.8350168350168  14.949494949495 20.5050505050505  L 10 15.3080808080808  L 5.05050505050502 20.5050505050505  C 4.73625140291807 20.8350168350168  4.35465768799099 21  3.9057239057239 21  C 3.45679012345681 21  3.07519640852973 20.8350168350168  2.76094276094278 20.5050505050505  L 0.471380471380485 18.1010101010101  C 0.157126823793476 17.7710437710438  0 17.3703703703704  0 16.8989898989899  C 0 16.4276094276094  0.157126823793476 16.026936026936  0.471380471380485 15.6969696969697  L 5.4208754208754 10.5  L 0.471380471380485 5.3030303030303  C 0.157126823793476 4.97306397306398  0 4.57239057239057  0 4.1010101010101  C 0 3.62962962962962  0.157126823793476 3.22895622895622  0.471380471380485 2.89898989898989  L 2.76094276094278 0.494949494949509  C 3.07519640852973 0.16498316498315  3.45679012345681 0  3.9057239057239 0  C 4.35465768799099 0  4.73625140291807 0.16498316498315  5.05050505050502 0.494949494949509  L 10 5.6919191919192  L 14.949494949495 0.494949494949509  C 15.2637485970819 0.16498316498315  15.645342312009 0  16.0942760942761 0  C 16.5432098765432 0  16.9248035914703 0.16498316498315  17.2390572390572 0.494949494949509  L 19.5286195286195 2.89898989898989  C 19.8428731762065 3.22895622895622  20 3.62962962962962  20 4.1010101010101  C 20 4.57239057239057  19.8428731762065 4.97306397306398  19.5286195286195 5.3030303030303  L 10 10.5  L 19.5286195286195 15.6969696969697  Z " fill-rule="nonzero" fill="#61a584" stroke="none" fill-opacity="0.996078431372549" transform="matrix(1 0 0 1 377 120 )" />
  </g>
</svg>