<?xml version="1.0" encoding="utf-8"?>
<svg version="1.1" xmlns:xlink="http://www.w3.org/1999/xlink" width="18px" height="25px" xmlns="http://www.w3.org/2000/svg">
  <g transform="matrix(1 0 0 1 -237 -558 )">
    <path d="M 10.9629990262902 24.8313210227273  C 10.8519961051607 24.9437736742424  10.7205452775073 25  10.5686465433301 25  L 7.55404089581305 25  C 7.40214216163583 25  7.27069133398247 24.9467329545455  7.15968841285297 24.8401988636364  C 7.04868549172347 24.7336647727273  6.99318403115872 24.5975378787879  6.99318403115871 24.4318181818182  L 6.99318403115871 18.5724431818182  L 1.94547224926972 18.5724431818182  C 1.7935735150925 18.5724431818182  1.66212268743914 18.5191761363636  1.55111976630964 18.4126420454545  C 1.44011684518014 18.3061079545455  1.38461538461538 18.1699810606061  1.38461538461538 18.0042613636364  L 1.38461538461538 16.1754261363636  C 1.38461538461538 16.0215435606061  1.44011684518014 15.8883759469697  1.55111976630964 15.7759232954545  C 1.66212268743914 15.6634706439394  1.7935735150925 15.6072443181818  1.94547224926972 15.6072443181818  L 6.99318403115871 15.6072443181818  L 6.99318403115871 14.0980113636364  L 1.94547224926972 14.0980113636364  C 1.7935735150925 14.0980113636364  1.66212268743914 14.0447443181818  1.55111976630964 13.9382102272727  C 1.44011684518014 13.8316761363636  1.38461538461538 13.6955492424242  1.38461538461538 13.5298295454545  L 1.38461538461538 11.6832386363636  C 1.38461538461538 11.5293560606061  1.44011684518014 11.3961884469697  1.55111976630964 11.2837357954545  C 1.66212268743914 11.1712831439394  1.7935735150925 11.1150568181818  1.94547224926972 11.1150568181818  L 5.69620253164557 11.1150568181818  L 0.0701071080817916 0.852272727272727  C -0.0233690360272639 0.662878787878787  -0.0233690360272639 0.473484848484845  0.0701071080817916 0.284090909090909  C 0.186952288218111 0.0946969696969696  0.350535540408958 0  0.560856864654333 0  L 3.96105160662123 0  C 4.18305744888023 0  4.3524829600779 0.106534090909091  4.46932814021422 0.319602272727273  L 8.23758519961052 7.86576704545454  C 8.45959104186952 8.31557765151515  8.78675754625122 9.05539772727273  9.2190847127556 10.0852272727273  C 9.33592989289192 9.80113636363636  9.5141187925998 9.39867424242424  9.75365141187926 8.87784090909091  C 9.99318403115872 8.35700757575757  10.1538461538462 7.99597537878788  10.2356377799416 7.79474431818182  L 13.5832521908471 0.337357954545456  C 13.6767283349562 0.112452651515149  13.8461538461538 0  14.0915287244401 0  L 17.4391431353457 0  C 17.6377799415774 0  17.7955209347614 0.0946969696969696  17.9123661148978 0.284090909090909  C 18.0175267770204 0.449810606060605  18.0233690360273 0.633285984848483  17.9298928919182 0.834517045454544  L 12.444011684518 11.1150568181818  L 16.2122687439143 11.1150568181818  C 16.3641674780915 11.1150568181818  16.4956183057449 11.1712831439394  16.6066212268744 11.2837357954545  C 16.7176241480039 11.3961884469697  16.7731256085686 11.5293560606061  16.7731256085686 11.6832386363636  L 16.7731256085686 13.5298295454545  C 16.7731256085686 13.6955492424242  16.7176241480039 13.8316761363636  16.6066212268744 13.9382102272727  C 16.4956183057449 14.0447443181818  16.3641674780915 14.0980113636364  16.2122687439143 14.0980113636364  L 11.1295034079844 14.0980113636364  L 11.1295034079844 15.6072443181818  L 16.2122687439143 15.6072443181818  C 16.3641674780915 15.6072443181818  16.4956183057449 15.6634706439394  16.6066212268744 15.7759232954545  C 16.7176241480039 15.8883759469697  16.7731256085686 16.0215435606061  16.7731256085686 16.1754261363636  L 16.7731256085686 18.0042613636364  C 16.7731256085686 18.1699810606061  16.7176241480039 18.3061079545455  16.6066212268744 18.4126420454545  C 16.4956183057449 18.5191761363636  16.3641674780915 18.5724431818182  16.2122687439143 18.5724431818182  L 11.1295034079844 18.5724431818182  L 11.1295034079844 24.4318181818182  C 11.1295034079844 24.5857007575758  11.0740019474197 24.7188683712121  10.9629990262902 24.8313210227273  Z " fill-rule="nonzero" fill="#f59a23" stroke="none" transform="matrix(1 0 0 1 237 558 )" />
  </g>
</svg>