<?xml version="1.0" encoding="utf-8"?>
<svg version="1.1" xmlns:xlink="http://www.w3.org/1999/xlink" width="22px" height="30px" xmlns="http://www.w3.org/2000/svg">
  <g transform="matrix(1 0 0 1 -17 -43 )">
    <path d="M 21.6219931271478 1.80360721442886  C 21.8739977090493 2.00400801603206  22 2.23446893787575  22 2.49498997995992  C 22 2.75551102204409  21.8739977090493 2.98597194388778  21.6219931271478 3.18637274549098  L 11.7775924901974 11.0149041319527  L 6.76632302405498 15  L 21.6219931271478 26.813627254509  C 21.8739977090493 27.0140280561122  22 27.2444889779559  22 27.5050100200401  C 22 27.7655310621243  21.8739977090493 27.9959919839679  21.6219931271478 28.1963927855711  L 19.7319587628866 29.6993987975952  C 19.4799541809851 29.8997995991984  19.1901489117984 30  18.8625429553265 30  C 18.5349369988545 30  18.2451317296678 29.8997995991984  17.9931271477663 29.6993987975952  L 0.378006872852232 15.6913827655311  C 0.126002290950744 15.4909819639279  0 15.2605210420842  0 15  C 0 14.7394789579158  0.126002290950744 14.5090180360721  0.378006872852232 14.3086172344689  L 17.9931271477663 0.300601202404813  C 18.2451317296678 0.100200400801604  18.5349369988545 0  18.8625429553265 0  C 19.1901489117984 0  19.4799541809851 0.100200400801604  19.7319587628866 0.300601202404813  L 21.6219931271478 1.80360721442886  Z " fill-rule="nonzero" fill="#d4d4d4" stroke="none" transform="matrix(1 0 0 1 17 43 )" />
  </g>
</svg>