<?xml version="1.0" encoding="utf-8"?>
<svg version="1.1" xmlns:xlink="http://www.w3.org/1999/xlink" width="25px" height="25px" xmlns="http://www.w3.org/2000/svg">
  <g transform="matrix(1 0 0 1 -28 -144 )">
    <path d="M 40.5 144  C 47.5 144  53 149.5  53 156.5  C 53 163.5  47.5 169  40.5 169  C 33.5 169  28 163.5  28 156.5  C 28 149.5  33.5 144  40.5 144  Z " fill-rule="nonzero" fill="#ffffff" stroke="none" />
    <path d="M 40.5 144.5  C 47.22 144.5  52.5 149.78  52.5 156.5  C 52.5 163.22  47.22 168.5  40.5 168.5  C 33.78 168.5  28.5 163.22  28.5 156.5  C 28.5 149.78  33.78 144.5  40.5 144.5  Z " stroke-width="1" stroke="#999999" fill="none" />
  </g>
</svg>