<?xml version="1.0" encoding="utf-8"?>
<svg version="1.1" xmlns:xlink="http://www.w3.org/1999/xlink" width="86px" height="86px" xmlns="http://www.w3.org/2000/svg">
  <g transform="matrix(1 0 0 1 -182 -195 )">
    <path d="M 225 195  C 249.08 195  268 213.92  268 238  C 268 262.08  249.08 281  225 281  C 200.92 281  182 262.08  182 238  C 182 213.92  200.92 195  225 195  Z " fill-rule="nonzero" fill="#ffffff" stroke="none" />
    <path d="M 225 195.5  C 248.8 195.5  267.5 214.2  267.5 238  C 267.5 261.8  248.8 280.5  225 280.5  C 201.2 280.5  182.5 261.8  182.5 238  C 182.5 214.2  201.2 195.5  225 195.5  Z " stroke-width="1" stroke="#7f7f7f" fill="none" />
  </g>
</svg>