<?xml version="1.0" encoding="utf-8"?>
<svg version="1.1" xmlns:xlink="http://www.w3.org/1999/xlink" width="20px" height="30px" xmlns="http://www.w3.org/2000/svg">
  <g transform="matrix(1 0 0 1 -22 -40 )">
    <path d="M 19.6563573883162 1.80360721442886  C 19.8854524627721 2.00400801603206  20 2.23446893787575  20 2.49498997995992  C 20 2.75551102204409  19.8854524627721 2.98597194388778  19.6563573883162 3.18637274549098  L 10.7069022638158 11.0149041319527  L 6.15120274914089 15  L 19.6563573883162 26.813627254509  C 19.8854524627721 27.0140280561122  20 27.2444889779559  20 27.5050100200401  C 20 27.7655310621243  19.8854524627721 27.9959919839679  19.6563573883162 28.1963927855711  L 17.9381443298969 29.6993987975952  C 17.709049255441 29.8997995991984  17.4455899198167 30  17.1477663230241 30  C 16.8499427262314 30  16.5864833906071 29.8997995991984  16.3573883161512 29.6993987975952  L 0.343642611683848 15.6913827655311  C 0.114547537227949 15.4909819639279  0 15.2605210420842  0 15  C 0 14.7394789579158  0.114547537227949 14.5090180360721  0.343642611683848 14.3086172344689  L 16.3573883161512 0.300601202404813  C 16.5864833906071 0.100200400801604  16.8499427262314 0  17.1477663230241 0  C 17.4455899198167 0  17.709049255441 0.100200400801604  17.9381443298969 0.300601202404813  L 19.6563573883162 1.80360721442886  Z " fill-rule="nonzero" fill="#d4d4d4" stroke="none" transform="matrix(1 0 0 1 22 40 )" />
  </g>
</svg>