<?xml version="1.0" encoding="utf-8"?>
<svg version="1.1" xmlns:xlink="http://www.w3.org/1999/xlink" width="25px" height="28px" xmlns="http://www.w3.org/2000/svg">
  <g transform="matrix(1 0 0 1 -99 -421 )">
    <path d="M 18.8151041666667 1.0625  L 23.8932291666667 5.9375  C 24.1970486111111 6.22916666666666  24.4574652777778 6.625  24.6744791666667 7.125  C 24.8914930555556 7.625  25 8.08333333333333  25 8.5  L 25 26.5  C 25 26.9166666666667  24.8480902777778 27.2708333333333  24.5442708333333 27.5625  C 24.2404513888889 27.8541666666667  23.8715277777778 28  23.4375 28  L 1.5625 28  C 1.12847222222222 28  0.759548611111111 27.8541666666667  0.455729166666667 27.5625  C 0.151909722222222 27.2708333333333  0 26.9166666666667  0 26.5  L 0 1.5  C 0 1.08333333333333  0.151909722222222 0.729166666666666  0.455729166666667 0.4375  C 0.759548611111111 0.145833333333334  1.12847222222222 0  1.5625 0  L 16.1458333333333 0  C 16.5798611111111 0  17.0572916666667 0.104166666666668  17.578125 0.3125  C 18.0989583333333 0.520833333333333  18.5112847222222 0.770833333333332  18.8151041666667 1.0625  Z M 17.333984375 2.46875  C 17.2037760416667 2.34375  16.9813368055556 2.22916666666666  16.6666666666667 2.125  L 16.6666666666667 8  L 22.7864583333333 8  C 22.6779513888889 7.69791666666666  22.55859375 7.484375  22.4283854166667 7.359375  L 17.333984375 2.46875  Z M 2 26  L 23 26  L 23 10  L 16.1458333333333 10  C 15.7118055555556 10  15.3428819444444 9.85416666666666  15.0390625 9.5625  C 14.7352430555556 9.27083333333333  14.5833333333333 8.91666666666666  14.5833333333333 8.5  L 14.5833333333333 2  L 2 2  L 2 26  Z M 15.625 14  L 20.8333333333333 19  L 20.8333333333333 24  L 4.16666666666667 24  L 4.16666666666667 21  L 7.29166666666667 18  L 9.375 20  L 15.625 14  Z M 9.50520833333333 15.125  C 8.89756944444445 15.7083333333333  8.15972222222222 16  7.29166666666667 16  C 6.42361111111111 16  5.68576388888889 15.7083333333333  5.078125 15.125  C 4.47048611111111 14.5416666666667  4.16666666666667 13.8333333333333  4.16666666666667 13  C 4.16666666666667 12.1666666666667  4.47048611111111 11.4583333333333  5.078125 10.875  C 5.68576388888889 10.2916666666667  6.42361111111111 10  7.29166666666667 10  C 8.15972222222222 10  8.89756944444445 10.2916666666667  9.50520833333333 10.875  C 10.1128472222222 11.4583333333333  10.4166666666667 12.1666666666667  10.4166666666667 13  C 10.4166666666667 13.8333333333333  10.1128472222222 14.5416666666667  9.50520833333333 15.125  Z " fill-rule="nonzero" fill="#333333" stroke="none" transform="matrix(1 0 0 1 99 421 )" />
  </g>
</svg>