<?xml version="1.0" encoding="utf-8"?>
<svg version="1.1" xmlns:xlink="http://www.w3.org/1999/xlink" width="110px" height="110px" xmlns="http://www.w3.org/2000/svg">
  <defs>
    <filter x="177px" y="483px" width="110px" height="110px" filterUnits="userSpaceOnUse" id="filter42">
      <feOffset dx="1" dy="1" in="SourceAlpha" result="shadowOffsetInner" />
      <feGaussianBlur stdDeviation="2.5" in="shadowOffsetInner" result="shadowGaussian" />
      <feComposite in2="shadowGaussian" operator="atop" in="SourceAlpha" result="shadowComposite" />
      <feColorMatrix type="matrix" values="0 0 0 0 0  0 0 0 0 0  0 0 0 0 0  0 0 0 0.698039215686274 0  " in="shadowComposite" />
    </filter>
    <g id="widget43">
      <path d="M 231 487  C 259 487  281 509  281 537  C 281 565  259 587  231 587  C 203 587  181 565  181 537  C 181 509  203 487  231 487  Z " fill-rule="nonzero" fill="#ffffff" stroke="none" />
      <path d="M 231 487.5  C 258.72 487.5  280.5 509.28  280.5 537  C 280.5 564.72  258.72 586.5  231 586.5  C 203.28 586.5  181.5 564.72  181.5 537  C 181.5 509.28  203.28 487.5  231 487.5  Z " stroke-width="1" stroke="#ffffff" fill="none" />
    </g>
  </defs>
  <g transform="matrix(1 0 0 1 -177 -483 )">
    <use xlink:href="#widget43" filter="url(#filter42)" />
    <use xlink:href="#widget43" />
  </g>
</svg>