<?xml version="1.0" encoding="utf-8"?>
<svg version="1.1" xmlns:xlink="http://www.w3.org/1999/xlink" width="18px" height="25px" xmlns="http://www.w3.org/2000/svg">
  <g transform="matrix(1 0 0 1 -418 -290 )">
    <path d="M 17.6907216494845 11.9238476953908  C 17.8969072164948 12.0908483633935  18 12.2828991315965  18 12.5  C 18 12.7171008684035  17.8969072164948 12.9091516366065  17.6907216494845 13.0761523046092  L 3.27835051546392 24.749498997996  C 3.07216494845361 24.9164996659987  2.83505154639175 25  2.56701030927835 25  C 2.29896907216495 25  2.06185567010309 24.9164996659987  1.85567010309278 24.749498997996  L 0.309278350515464 23.496993987976  C 0.103092783505155 23.3299933199733  0 23.1379425517702  0 22.9208416833667  C 0 22.7037408149633  0.103092783505155 22.5116900467602  0.309278350515464 22.3446893787575  L 12.4639175257732 12.5  L 0.309278350515464 2.65531062124249  C 0.103092783505155 2.48830995323981  0 2.29625918503674  0 2.07915831663327  C 0 1.86205744822979  0.103092783505155 1.67000668002672  0.309278350515464 1.50300601202405  L 1.85567010309278 0.250501002004008  C 2.06185567010309 0.0835003340013352  2.29896907216495 0  2.56701030927835 0  C 2.83505154639175 0  3.07216494845361 0.0835003340013352  3.27835051546392 0.250501002004008  L 17.6907216494845 11.9238476953908  Z " fill-rule="nonzero" fill="#cccccc" stroke="none" transform="matrix(1 0 0 1 418 290 )" />
  </g>
</svg>