<?xml version="1.0" encoding="utf-8"?>
<svg version="1.1" xmlns:xlink="http://www.w3.org/1999/xlink" width="160px" height="40px" xmlns="http://www.w3.org/2000/svg">
  <g transform="matrix(1 0 0 1 -147 -221 )">
    <path d="M 149 241  A 18 18 0 0 1 167 223 L 287 223  A 18 18 0 0 1 305 241 A 18 18 0 0 1 287 259 L 167 259  A 18 18 0 0 1 149 241 Z " fill-rule="nonzero" fill="#ffffff" stroke="none" />
    <path d="M 148 241  A 19 19 0 0 1 167 222 L 287 222  A 19 19 0 0 1 306 241 A 19 19 0 0 1 287 260 L 167 260  A 19 19 0 0 1 148 241 Z " stroke-width="2" stroke="#61a584" fill="none" stroke-opacity="0.996078431372549" />
  </g>
</svg>