<?xml version="1.0" encoding="utf-8"?>
<svg version="1.1" xmlns:xlink="http://www.w3.org/1999/xlink" width="24px" height="40px" xmlns="http://www.w3.org/2000/svg">
  <g transform="matrix(1 0 0 1 -14 -30 )">
    <path d="M 23.5876288659794 2.40480961923848  C 23.8625429553265 2.67201068804275  24 2.97929191716766  24 3.32665330661322  C 24 3.67401469605879  23.8625429553265 3.9812959251837  23.5876288659794 4.24849699398798  L 12.848282716579 14.6865388426036  L 7.38144329896907 20  L 23.5876288659794 35.751503006012  C 23.8625429553265 36.0187040748163  24 36.3259853039412  24 36.6733466933868  C 24 37.0207080828323  23.8625429553265 37.3279893119573  23.5876288659794 37.5951903807615  L 21.5257731958763 39.5991983967936  C 21.2508591065292 39.8663994655979  20.9347079037801 40  20.5773195876289 40  C 20.2199312714777 40  19.9037800687285 39.8663994655979  19.6288659793814 39.5991983967936  L 0.412371134020617 20.9218436873747  C 0.137457044673539 20.6546426185705  0 20.3473613894456  0 20  C 0 19.6526386105544  0.137457044673539 19.3453573814295  0.412371134020617 19.0781563126253  L 19.6288659793814 0.400801603206418  C 19.9037800687285 0.133600534402139  20.2199312714777 0  20.5773195876289 0  C 20.9347079037801 0  21.2508591065292 0.133600534402139  21.5257731958763 0.400801603206418  L 23.5876288659794 2.40480961923848  Z " fill-rule="nonzero" fill="#d4d4d4" stroke="none" transform="matrix(1 0 0 1 14 30 )" />
  </g>
</svg>