<?xml version="1.0" encoding="utf-8"?>
<svg version="1.1" xmlns:xlink="http://www.w3.org/1999/xlink" width="19px" height="28px" xmlns="http://www.w3.org/2000/svg">
  <g transform="matrix(1 0 0 1 -23 -41 )">
    <path d="M 18.6735395189003 1.68336673346693  C 18.8911798396335 1.87040748162992  19 2.08550434201736  19 2.32865731462926  C 19 2.57181028724115  18.8911798396335 2.78690714762859  18.6735395189003 2.97394789579158  L 5.84364261168385 14  L 18.6735395189003 25.0260521042084  C 18.8911798396335 25.2130928523714  19 25.4281897127589  19 25.6713426853707  C 19 25.9144956579826  18.8911798396335 26.1295925183701  18.6735395189003 26.3166332665331  L 17.0412371134021 27.7194388777555  C 16.823596792669 27.9064796259185  16.5733104238259 28  16.2903780068729 28  C 16.0074455899198 28  15.7571592210767 27.9064796259185  15.5395189003436 27.7194388777555  L 0.326460481099656 14.6452905811623  C 0.108820160366552 14.4582498329993  0 14.2431529726119  0 14  C 0 13.7568470273881  0.108820160366552 13.5417501670007  0.326460481099656 13.3547094188377  L 15.5395189003436 0.280561122244489  C 15.7571592210767 0.0935203740814954  16.0074455899198 0  16.2903780068729 0  C 16.5733104238259 0  16.823596792669 0.0935203740814954  17.0412371134021 0.280561122244489  L 18.6735395189003 1.68336673346693  Z " fill-rule="nonzero" fill="#d4d4d4" stroke="none" fill-opacity="0.996078431372549" transform="matrix(1 0 0 1 23 41 )" />
  </g>
</svg>