<?xml version="1.0" encoding="utf-8"?>
<svg version="1.1" xmlns:xlink="http://www.w3.org/1999/xlink" width="23px" height="22px" xmlns="http://www.w3.org/2000/svg">
  <g transform="matrix(1 0 0 1 -363 -108 )">
    <path d="M 2.90827546296296 0.537109375  C 3.24103009259259 0.895182291666666  3.40740740740741 1.32725694444444  3.40740740740741 1.83333333333333  C 3.40740740740741 2.52083333333333  3.12345679012346 3.04600694444444  3 3.40885416666667  L 3 21.5416666666667  C 2.55555555555556 21.6657986111111  2.51340663580247 21.7732204861111  2.4291087962963 21.8639322916667  C 2.34481095679012 21.9546440972222  2.24498456790124 22  2.12962962962963 22  L 1.27777777777778 22  C 1.16242283950617 22  1.06259645061728 21.9546440972222  0.978298611111111 21.8639322916667  C 0.894000771604939 21.7732204861111  0.851851851851852 21.6657986111111  1 21.5416666666667  L 1 3.40885416666667  C 0.283950617283951 3.04600694444444  0 2.52083333333333  0 1.83333333333333  C 0 1.32725694444444  0.166377314814815 0.895182291666666  0.499131944444444 0.537109375  C 0.831886574074074 0.179036458333334  1.23341049382716 0  1.7037037037037 0  C 2.17399691358025 0  2.57552083333333 0.179036458333334  2.90827546296296 0.537109375  Z M 22.7471064814815 2.10546875  C 22.9157021604938 2.28689236111111  23 2.50173611111111  23 2.75  L 23 13.6783854166667  C 23 13.9171006944444  22.9445408950617 14.1009114583333  22.8336226851852 14.2298177083333  C 22.7227044753086 14.3587239583333  22.5474537037037 14.4900173611111  22.3078703703704 14.6236979166667  C 20.4000771604938 15.7313368055556  18.7629243827161 16.28515625  17.396412037037 16.28515625  C 16.8551311728395 16.28515625  16.3071952160494 16.1801215277778  15.7526041666667 15.9700520833333  C 15.198013117284 15.7599826388889  14.7166280864198 15.5308159722222  14.3084490740741 15.2825520833333  C 13.9002700617284 15.0342881944444  13.3878279320988 14.8051215277778  12.7711226851852 14.5950520833333  C 12.1544174382716 14.3849826388889  11.5221836419753 14.2799479166667  10.8744212962963 14.2799479166667  C 9.17071759259259 14.2799479166667  7.11207561728395 14.9769965277778  4.69849537037037 16.37109375  C 4.54764660493827 16.45703125  4.40123456790124 16.5  4.25925925925926 16.5  C 4.02854938271605 16.5  3.82889660493827 16.4092881944444  3.66030092592593 16.2278645833333  C 3.49170524691358 16.0464409722222  3.40740740740741 15.8315972222222  3.40740740740741 15.5833333333333  L 3.40740740740741 4.95572916666667  C 3.40740740740741 4.65017361111111  3.54494598765432 4.38758680555555  3.82002314814815 4.16796875  C 4.00636574074074 4.03428819444444  4.35686728395062 3.82899305555555  4.87152777777778 3.55208333333333  C 6.96566358024691 2.40625  8.8335262345679 1.83333333333333  10.4751157407407 1.83333333333333  C 11.424575617284 1.83333333333333  12.3119212962963 1.97178819444444  13.1371527777778 2.24869791666667  C 13.9623842592593 2.52560763888889  14.9340277777778 2.94574652777778  16.0520833333333 3.50911458333333  C 16.389274691358 3.69053819444444  16.7797067901235 3.78125  17.2233796296296 3.78125  C 17.7025462962963 3.78125  18.2238618827161 3.68098958333333  18.7873263888889 3.48046875  C 19.3507908950617 3.27994791666667  19.8388310185185 3.05555555555555  20.2514467592593 2.80729166666667  C 20.6640625 2.55902777777778  21.0544945987654 2.33463541666667  21.4227430555556 2.13411458333333  C 21.7909915123457 1.93359375  22.0327932098765 1.83333333333333  22.1481481481481 1.83333333333333  C 22.3788580246914 1.83333333333333  22.5785108024691 1.92404513888889  22.7471064814815 2.10546875  Z " fill-rule="nonzero" fill="#f59a23" stroke="none" transform="matrix(1 0 0 1 363 108 )" />
  </g>
</svg>