<?xml version="1.0" encoding="utf-8"?>
<svg version="1.1" xmlns:xlink="http://www.w3.org/1999/xlink" width="24px" height="30px" xmlns="http://www.w3.org/2000/svg">
  <g transform="matrix(1 0 0 1 -49 -316 )">
    <path d="M 13.765625 28.32421875  C 14.2552083333333 27.95703125  14.5 27.515625  14.5 27  C 14.5 26.484375  14.2552083333333 26.04296875  13.765625 25.67578125  C 13.2760416666667 25.30859375  12.6875 25.125  12 25.125  C 11.3125 25.125  10.7239583333333 25.30859375  10.234375 25.67578125  C 9.74479166666667 26.04296875  9.5 26.484375  9.5 27  C 9.5 27.515625  9.74479166666667 27.95703125  10.234375 28.32421875  C 10.7239583333333 28.69140625  11.3125 28.875  12 28.875  C 12.6875 28.875  13.2760416666667 28.69140625  13.765625 28.32421875  Z M 20.703125 23.77734375  C 20.9010416666667 23.62890625  21 23.453125  21 23.25  L 21 6.75  C 21 6.546875  20.9010416666667 6.37109375  20.703125 6.22265625  C 20.5052083333333 6.07421875  20.2708333333333 6  20 6  L 4 6  C 3.72916666666667 6  3.49479166666667 6.07421875  3.296875 6.22265625  C 3.09895833333333 6.37109375  3 6.546875  3 6.75  L 3 23.25  C 3 23.453125  3.09895833333333 23.62890625  3.296875 23.77734375  C 3.49479166666667 23.92578125  3.72916666666667 24  4 24  L 20 24  C 20.2708333333333 24  20.5052083333333 23.92578125  20.703125 23.77734375  Z M 14.5 3.75  C 14.8333333333333 3.75  15 3.625  15 3.375  C 15 3.125  14.8333333333333 3  14.5 3  L 9.5 3  C 9.16666666666667 3  9 3.125  9 3.375  C 9 3.625  9.16666666666667 3.75  9.5 3.75  L 14.5 3.75  Z M 22.8125 0.890624999999999  C 23.6041666666667 1.484375  24 2.1875  24 3  L 24 27  C 24 27.8125  23.6041666666667 28.515625  22.8125 29.109375  C 22.0208333333333 29.703125  21.0833333333333 30  20 30  L 4 30  C 2.91666666666667 30  1.97916666666667 29.703125  1.1875 29.109375  C 0.395833333333333 28.515625  0 27.8125  0 27  L 0 3  C 0 2.1875  0.395833333333333 1.484375  1.1875 0.890624999999999  C 1.97916666666667 0.296874999999996  2.91666666666667 0  4 0  L 20 0  C 21.0833333333333 0  22.0208333333333 0.296874999999996  22.8125 0.890624999999999  Z " fill-rule="nonzero" fill="#61a584" stroke="none" transform="matrix(1 0 0 1 49 316 )" />
  </g>
</svg>