<?xml version="1.0" encoding="utf-8"?>
<svg version="1.1" xmlns:xlink="http://www.w3.org/1999/xlink" width="24px" height="28px" xmlns="http://www.w3.org/2000/svg">
  <g transform="matrix(1 0 0 1 -49 -250 )">
    <path d="M 23.9403409090909 21.3919270833333  C 23.9801136363636 22.0056423611111  24 22.6345486111111  24 23.2786458333333  C 24 24.7369791666667  23.5852272727273 25.8884548611111  22.7556818181818 26.7330729166667  C 21.9261363636364 27.5776909722222  20.8238636363636 28  19.4488636363636 28  L 4.55113636363636 28  C 3.17613636363636 28  2.07386363636364 27.5776909722222  1.24431818181818 26.7330729166667  C 0.414772727272727 25.8884548611111  0 24.7369791666667  0 23.2786458333333  C 0 22.6345486111111  0.0198863636363636 22.0056423611111  0.0596590909090909 21.3919270833333  C 0.0994318181818182 20.7782118055556  0.178977272727273 20.1158854166667  0.298295454545455 19.4049479166667  C 0.417613636363636 18.6940104166667  0.568181818181818 18.0347222222222  0.75 17.4270833333333  C 0.931818181818182 16.8194444444444  1.17613636363636 16.2269965277778  1.48295454545455 15.6497395833333  C 1.78977272727273 15.0724826388889  2.14204545454546 14.5802951388889  2.53977272727273 14.1731770833333  C 2.9375 13.7660590277778  3.42329545454545 13.4409722222222  3.99715909090909 13.1979166666667  C 4.57102272727273 12.9548611111111  5.20454545454546 12.8333333333333  5.89772727272727 12.8333333333333  C 6 12.8333333333333  6.23863636363636 12.9639756944444  6.61363636363636 13.2252604166667  C 6.98863636363636 13.4865451388889  7.41193181818182 13.7782118055556  7.88352272727273 14.1002604166667  C 8.35511363636364 14.4223090277778  8.96875 14.7139756944444  9.72443181818182 14.9752604166667  C 10.4801136363636 15.2365451388889  11.2386363636364 15.3671875  12 15.3671875  C 12.7613636363636 15.3671875  13.5198863636364 15.2365451388889  14.2755681818182 14.9752604166667  C 15.03125 14.7139756944444  15.6448863636364 14.4223090277778  16.1164772727273 14.1002604166667  C 16.5880681818182 13.7782118055556  17.0113636363636 13.4865451388889  17.3863636363636 13.2252604166667  C 17.7613636363636 12.9639756944444  18 12.8333333333333  18.1022727272727 12.8333333333333  C 18.7954545454545 12.8333333333333  19.4289772727273 12.9548611111111  20.0028409090909 13.1979166666667  C 20.5767045454545 13.4409722222222  21.0625 13.7660590277778  21.4602272727273 14.1731770833333  C 21.8579545454545 14.5802951388889  22.2102272727273 15.0724826388889  22.5170454545455 15.6497395833333  C 22.8238636363636 16.2269965277778  23.0681818181818 16.8194444444444  23.25 17.4270833333333  C 23.4318181818182 18.0347222222222  23.5823863636364 18.6940104166667  23.7017045454545 19.4049479166667  C 23.8210227272727 20.1158854166667  23.9005681818182 20.7782118055556  23.9403409090909 21.3919270833333  Z M 16.6278409090909 2.05078125  C 17.90625 3.41796875  18.5454545454545 5.06770833333333  18.5454545454545 7  C 18.5454545454545 8.93229166666667  17.90625 10.58203125  16.6278409090909 11.94921875  C 15.3494318181818 13.31640625  13.8068181818182 14  12 14  C 10.1931818181818 14  8.65056818181818 13.31640625  7.37215909090909 11.94921875  C 6.09375 10.58203125  5.45454545454545 8.93229166666667  5.45454545454545 7  C 5.45454545454545 5.06770833333333  6.09375 3.41796875  7.37215909090909 2.05078125  C 8.65056818181818 0.68359375  10.1931818181818 0  12 0  C 13.8068181818182 0  15.3494318181818 0.68359375  16.6278409090909 2.05078125  Z " fill-rule="nonzero" fill="#61a584" stroke="none" transform="matrix(1 0 0 1 49 250 )" />
  </g>
</svg>