<?xml version="1.0" encoding="utf-8"?>
<svg version="1.1" xmlns:xlink="http://www.w3.org/1999/xlink" width="25px" height="23px" xmlns="http://www.w3.org/2000/svg">
  <g transform="matrix(1 0 0 1 -73 -123 )">
    <path d="M 23.2142857142857 1.91417425227568  L 23.2142857142857 7.65669700910273  C 23.7072172619048 7.65669700910273  24.1280691964286 7.84362808842653  24.4768415178571 8.21749024707412  C 24.8256138392857 8.59135240572172  25 9.04247941048981  25 9.57087126137841  C 25 10.099263112267  24.8256138392857 10.5503901170351  24.4768415178571 10.9242522756827  C 24.1280691964286 11.2981144343303  23.7072172619048 11.4850455136541  23.2142857142857 11.4850455136541  L 23.2142857142857 17.2275682704811  C 23.2142857142857 17.7459904638058  23.0375744047619 18.1946250541829  22.6841517857143 18.5734720416125  C 22.3307291666667 18.952319029042  21.9122023809524 19.1417425227568  21.4285714285714 19.1417425227568  C 17.5502232142857 15.6822713480711  13.774181547619 13.7880364109233  10.1004464285714 13.4590377113134  C 9.56101190476191 13.6484612050282  9.13783482142857 13.9774599046381  8.83091517857143 14.446033810143  C 8.52399553571429 14.914607715648  8.37983630952381 15.4155830082358  8.3984375 15.9489596879064  C 8.41703869047619 16.4823363675769  8.6030505952381 16.943433029909  8.95647321428571 17.3322496749025  C 8.77046130952381 17.6612483745124  8.66350446428571 17.9877546597313  8.63560267857143 18.3117685305592  C 8.60770089285714 18.6357824013871  8.63560267857143 18.9249024707412  8.71930803571429 19.1791287386216  C 8.80301339285714 19.433355006502  8.95879836309524 19.7075205895102  9.18666294642857 20.0016254876463  C 9.41452752976191 20.2957303857824  9.63774181547619 20.5449718248808  9.85630580357143 20.7493498049415  C 10.0748697916667 20.9537277850022  10.3608630952381 21.2054616384915  10.7142857142857 21.5045513654096  C 10.444568452381 22.0827915041179  9.92606026785714 22.4965322930212  9.15876116071429 22.7457737321196  C 8.39146205357143 22.995015171218  7.60788690476191 23.0523407022107  6.80803571428571 22.9177503250975  C 6.00818452380952 22.7831599479844  5.39434523809524 22.5065019505852  4.96651785714286 22.0877763328999  C 4.90141369047619 21.8584742089293  4.76422991071429 21.4223016905072  4.55496651785714 20.7792587776333  C 4.345703125 20.1362158647594  4.19689360119048 19.6651495448635  4.10853794642857 19.3660598179454  C 4.02018229166667 19.0669700910273  3.91322544642857 18.6233203294322  3.78766741071429 18.0351105331599  C 3.662109375 17.4469007368877  3.59235491071429 16.943433029909  3.57840401785714 16.5247074122237  C 3.564453125 16.1059817945384  3.58072916666667 15.6149761595145  3.62723214285714 15.0516905071521  C 3.67373511904762 14.4884048547898  3.77604166666667 13.9375812743823  3.93415178571429 13.3992197659298  L 2.23214285714286 13.3992197659298  C 1.61830357142857 13.3992197659298  1.09281994047619 13.1649328131773  0.655691964285714 12.6963589076723  C 0.218563988095238 12.2277850021673  0 11.6644993498049  0 11.0065019505852  L 0 8.13524057217165  C 0 7.47724317295189  0.218563988095238 6.91395752058951  0.655691964285714 6.44538361508452  C 1.09281994047619 5.97680970957954  1.61830357142857 5.74252275682705  2.23214285714286 5.74252275682705  L 8.92857142857143 5.74252275682705  C 12.9743303571429 5.74252275682705  17.1409970238095 3.82834850455136  21.4285714285714 0  C 21.9122023809524 0  22.3307291666667 0.189423493714779  22.6841517857143 0.568270481144344  C 23.0375744047619 0.947117468573904  23.2142857142857 1.39575205895102  23.2142857142857 1.91417425227568  Z M 10.7142857142857 11.5897269180754  C 14.2206101190476 12.0084525357607  17.7920386904762 13.7082791504118  21 16.6892067620286  L 21 2.42262678803641  C 17.7641369047619 5.43346337234504  14.1927083333333 7.14325964456003  10.7142857142857 7.55201560468141  L 10.7142857142857 11.5897269180754  Z " fill-rule="nonzero" fill="#f59a23" stroke="none" transform="matrix(1 0 0 1 73 123 )" />
  </g>
</svg>