<?xml version="1.0" encoding="utf-8"?>
<svg version="1.1" xmlns:xlink="http://www.w3.org/1999/xlink" width="268px" height="50px" xmlns="http://www.w3.org/2000/svg">
  <g transform="matrix(1 0 0 1 -92 -327 )">
    <path d="M 95 352  A 22 22 0 0 1 117 330 L 335 330  A 22 22 0 0 1 357 352 A 22 22 0 0 1 335 374 L 117 374  A 22 22 0 0 1 95 352 Z " fill-rule="nonzero" fill="#61a584" stroke="none" fill-opacity="0" />
    <path d="M 93.5 352  A 23.5 23.5 0 0 1 117 328.5 L 335 328.5  A 23.5 23.5 0 0 1 358.5 352 A 23.5 23.5 0 0 1 335 375.5 L 117 375.5  A 23.5 23.5 0 0 1 93.5 352 Z " stroke-width="3" stroke="#61a584" fill="none" stroke-opacity="0.996078431372549" />
  </g>
</svg>