<?xml version="1.0" encoding="utf-8"?>
<svg version="1.1" xmlns:xlink="http://www.w3.org/1999/xlink" width="14px" height="16px" xmlns="http://www.w3.org/2000/svg">
  <g transform="matrix(1 0 0 1 -235 -577 )">
    <path d="M 8.52677702044791 15.8920454545455  C 8.44044141512496 15.9640151515152  8.33820188250568 16  8.22005842259007 16  L 5.87536514118793 16  C 5.75722168127231 16  5.65498214865304 15.9659090909091  5.56864654333009 15.8977272727273  C 5.48231093800714 15.8295454545455  5.43914313534567 15.7424242424242  5.43914313534567 15.6363636363636  L 5.43914313534567 11.8863636363636  L 1.51314508276534 11.8863636363636  C 1.39500162284972 11.8863636363636  1.29276209023044 11.8522727272727  1.2064264849075 11.7840909090909  C 1.12009087958455 11.7159090909091  1.07692307692308 11.6287878787879  1.07692307692308 11.5227272727273  L 1.07692307692308 10.3522727272727  C 1.07692307692308 10.2537878787879  1.12009087958455 10.1685606060606  1.2064264849075 10.0965909090909  C 1.29276209023044 10.0246212121212  1.39500162284972 9.98863636363636  1.51314508276534 9.98863636363636  L 5.43914313534567 9.98863636363636  L 5.43914313534567 9.02272727272727  L 1.51314508276534 9.02272727272727  C 1.39500162284972 9.02272727272727  1.29276209023044 8.98863636363636  1.2064264849075 8.92045454545455  C 1.12009087958455 8.85227272727273  1.07692307692308 8.76515151515152  1.07692307692308 8.65909090909091  L 1.07692307692308 7.47727272727273  C 1.07692307692308 7.37878787878788  1.12009087958455 7.29356060606061  1.2064264849075 7.22159090909091  C 1.29276209023044 7.14962121212121  1.39500162284972 7.11363636363636  1.51314508276534 7.11363636363636  L 4.43037974683544 7.11363636363636  L 0.0545277507302824 0.545454545454545  C -0.0181759169100941 0.424242424242424  -0.0181759169100941 0.303030303030301  0.0545277507302824 0.181818181818182  C 0.145407335280753 0.0606060606060606  0.272638753651412 0  0.436222005842259 0  L 3.08081791626095 0  C 3.25348912690685 0  3.38526452450503 0.0681818181818183  3.4761441090555 0.204545454545455  L 6.40701071080818 5.03409090909091  C 6.57968192145407 5.3219696969697  6.83414475819539 5.79545454545455  7.17039922103213 6.45454545454546  C 7.2612788055826 6.27272727272727  7.39987017202207 6.01515151515151  7.58617332035054 5.68181818181818  C 7.772476468679 5.34848484848485  7.8974358974359 5.11742424242424  7.96105160662123 4.98863636363636  L 10.5647517039922 0.215909090909092  C 10.6374553716326 0.0719696969696955  10.7692307692308 0  10.9600778967868 0  L 13.5637779941577 0  C 13.7182732878935 0  13.8409607270367 0.0606060606060606  13.9318403115871 0.181818181818182  C 14.0136319376826 0.287878787878787  14.0181759169101 0.405303030303029  13.9454722492697 0.534090909090908  L 9.67867575462512 7.11363636363636  L 12.6095423563778 7.11363636363636  C 12.7276858162934 7.11363636363636  12.8299253489127 7.14962121212121  12.9162609542356 7.22159090909091  C 13.0025965595586 7.29356060606061  13.0457643622201 7.37878787878788  13.0457643622201 7.47727272727273  L 13.0457643622201 8.65909090909091  C 13.0457643622201 8.76515151515152  13.0025965595586 8.85227272727273  12.9162609542356 8.92045454545455  C 12.8299253489127 8.98863636363636  12.7276858162934 9.02272727272727  12.6095423563778 9.02272727272727  L 8.65628042843233 9.02272727272727  L 8.65628042843233 9.98863636363636  L 12.6095423563778 9.98863636363636  C 12.7276858162934 9.98863636363636  12.8299253489127 10.0246212121212  12.9162609542356 10.0965909090909  C 13.0025965595586 10.1685606060606  13.0457643622201 10.2537878787879  13.0457643622201 10.3522727272727  L 13.0457643622201 11.5227272727273  C 13.0457643622201 11.6287878787879  13.0025965595586 11.7159090909091  12.9162609542356 11.7840909090909  C 12.8299253489127 11.8522727272727  12.7276858162934 11.8863636363636  12.6095423563778 11.8863636363636  L 8.65628042843233 11.8863636363636  L 8.65628042843233 15.6363636363636  C 8.65628042843233 15.7348484848485  8.61311262577085 15.8200757575758  8.52677702044791 15.8920454545455  Z " fill-rule="nonzero" fill="#f59a23" stroke="none" transform="matrix(1 0 0 1 235 577 )" />
  </g>
</svg>