<?xml version="1.0" encoding="utf-8"?>
<svg version="1.1" xmlns:xlink="http://www.w3.org/1999/xlink" width="27px" height="25px" xmlns="http://www.w3.org/2000/svg">
  <g transform="matrix(1 0 0 1 -389 -746 )">
    <path d="M 26.9328835227273 19.0999348958333  C 26.9776278409091 19.6478949652778  27 20.2094184027778  27 20.7845052083333  C 27 22.0865885416667  26.5333806818182 23.1146918402778  25.6001420454545 23.8688151041667  C 24.6669034090909 24.6229383680556  23.4268465909091 25  21.8799715909091 25  L 5.12002840909091 25  C 3.57315340909091 25  2.33309659090909 24.6229383680556  1.39985795454545 23.8688151041667  C 0.466619318181818 23.1146918402778  0 22.0865885416667  0 20.7845052083333  C 0 20.2094184027778  0.0223721590909091 19.6478949652778  0.0671164772727273 19.0999348958333  C 0.111860795454545 18.5519748263889  0.201349431818182 17.9606119791667  0.335582386363636 17.3258463541667  C 0.469815340909091 16.6910807291667  0.639204545454546 16.1024305555556  0.84375 15.5598958333333  C 1.04829545454545 15.0173611111111  1.32315340909091 14.4883897569444  1.66832386363636 13.9729817708333  C 2.01349431818182 13.4575737847222  2.40980113636364 13.0181206597222  2.85724431818182 12.6546223958333  C 3.3046875 12.2911241319444  3.85120738636364 12.0008680555556  4.49680397727273 11.7838541666667  C 5.14240056818182 11.5668402777778  5.85511363636364 11.4583333333333  6.63494318181818 11.4583333333333  C 6.75 11.4583333333333  7.01846590909091 11.5749782986111  7.44034090909091 11.8082682291667  C 7.86221590909091 12.0415581597222  8.33842329545455 12.3019748263889  8.86896306818182 12.5895182291667  C 9.39950284090909 12.8770616319444  10.08984375 13.1374782986111  10.9399857954545 13.3707682291667  C 11.7901278409091 13.6040581597222  12.6434659090909 13.720703125  13.5 13.720703125  C 14.3565340909091 13.720703125  15.2098721590909 13.6040581597222  16.0600142045455 13.3707682291667  C 16.91015625 13.1374782986111  17.6004971590909 12.8770616319444  18.1310369318182 12.5895182291667  C 18.6615767045455 12.3019748263889  19.1377840909091 12.0415581597222  19.5596590909091 11.8082682291667  C 19.9815340909091 11.5749782986111  20.25 11.4583333333333  20.3650568181818 11.4583333333333  C 21.1448863636364 11.4583333333333  21.8575994318182 11.5668402777778  22.5031960227273 11.7838541666667  C 23.1487926136364 12.0008680555556  23.6953125 12.2911241319444  24.1427556818182 12.6546223958333  C 24.5901988636364 13.0181206597222  24.9865056818182 13.4575737847222  25.3316761363636 13.9729817708333  C 25.6768465909091 14.4883897569444  25.9517045454546 15.0173611111111  26.15625 15.5598958333333  C 26.3607954545455 16.1024305555556  26.5301846590909 16.6910807291667  26.6644176136364 17.3258463541667  C 26.7986505681818 17.9606119791667  26.8881392045455 18.5519748263889  26.9328835227273 19.0999348958333  Z M 18.7063210227273 1.8310546875  C 20.14453125 3.0517578125  20.8636363636364 4.52473958333333  20.8636363636364 6.25  C 20.8636363636364 7.97526041666667  20.14453125 9.4482421875  18.7063210227273 10.6689453125  C 17.2681107954545 11.8896484375  15.5326704545455 12.5  13.5 12.5  C 11.4673295454545 12.5  9.73188920454545 11.8896484375  8.29367897727273 10.6689453125  C 6.85546875 9.4482421875  6.13636363636364 7.97526041666667  6.13636363636364 6.25  C 6.13636363636364 4.52473958333333  6.85546875 3.0517578125  8.29367897727273 1.8310546875  C 9.73188920454545 0.6103515625  11.4673295454545 0  13.5 0  C 15.5326704545455 0  17.2681107954545 0.6103515625  18.7063210227273 1.8310546875  Z " fill-rule="nonzero" fill="#7f7f7f" stroke="none" transform="matrix(1 0 0 1 389 746 )" />
  </g>
</svg>