<?xml version="1.0" encoding="utf-8"?>
<svg version="1.1" xmlns:xlink="http://www.w3.org/1999/xlink" width="27px" height="16px" xmlns="http://www.w3.org/2000/svg">
  <g transform="matrix(1 0 0 1 -26 -296 )">
    <path d="M 5.0625 8  L 8.4375 8  L 8.4375 13.3333333333333  L 5.0625 13.3333333333333  L 5.0625 8  Z M 10.125 2.66666666666666  L 13 2.66666666666666  L 13 13.3333333333333  L 10.125 13.3333333333333  L 10.125 2.66666666666666  Z M 2 14.6666666666667  L 27 14.6666666666667  L 27 16  L 16.6050000000007 16  L 0 16  L 0 0  L 2 0  L 2 14.6666666666667  Z M 15.1875 5.33333333333334  L 18.5625 5.33333333333334  L 18.5625 13.3333333333333  L 15.1875 13.3333333333333  L 15.1875 5.33333333333334  Z M 20 1.33333333333334  L 23.625 1.33333333333334  L 23.625 13.3333333333333  L 20 13.3333333333333  L 20 1.33333333333334  Z " fill-rule="nonzero" fill="#61a584" stroke="none" fill-opacity="0.996078431372549" transform="matrix(1 0 0 1 26 296 )" />
  </g>
</svg>