<?xml version="1.0" encoding="utf-8"?>
<svg version="1.1" xmlns:xlink="http://www.w3.org/1999/xlink" width="10px" height="10px" xmlns="http://www.w3.org/2000/svg">
  <g transform="matrix(1 0 0 1 -107 -432 )">
    <path d="M 112 432  C 114.8 432  117 434.2  117 437  C 117 439.8  114.8 442  112 442  C 109.2 442  107 439.8  107 437  C 107 434.2  109.2 432  112 432  Z " fill-rule="nonzero" fill="#ffffff" stroke="none" fill-opacity="0" />
    <path d="M 112 432.5  C 114.52 432.5  116.5 434.48  116.5 437  C 116.5 439.52  114.52 441.5  112 441.5  C 109.48 441.5  107.5 439.52  107.5 437  C 107.5 434.48  109.48 432.5  112 432.5  Z " stroke-width="1" stroke="#ffffff" fill="none" />
  </g>
</svg>