<?xml version="1.0" encoding="utf-8"?>
<svg version="1.1" xmlns:xlink="http://www.w3.org/1999/xlink" width="20px" height="16px" xmlns="http://www.w3.org/2000/svg">
  <g transform="matrix(1 0 0 1 -421 -151 )">
    <path d="M 19.7995991983968 1.64948453608247  C 19.9331997327989 1.83276059564719  20 2.04352806414662  20 2.28178694158076  C 20 2.52004581901489  19.9331997327989 2.73081328751432  19.7995991983968 2.91408934707904  L 10.4609218436874 15.7250859106529  C 10.3273213092852 15.9083619702176  10.1736806947228 16  10 16  C 9.82631930527722 16  9.67267869071476 15.9083619702176  9.53907815631263 15.7250859106529  L 0.200400801603206 2.91408934707904  C 0.066800267201069 2.73081328751432  0 2.52004581901489  0 2.28178694158076  C 0 2.04352806414662  0.066800267201069 1.83276059564719  0.200400801603206 1.64948453608247  L 1.20240480961924 0.27491408934708  C 1.33600534402138 0.0916380297823576  1.48964595858383 0  1.66332665330661 0  C 1.83700734802939 0  1.99064796259185 0.0916380297823576  2.12424849699399 0.27491408934708  L 10 11.0790378006873  L 17.875751503006 0.27491408934708  C 18.0093520374081 0.0916380297823576  18.1629926519706 0  18.3366733466934 0  C 18.5103540414162 0  18.6639946559786 0.0916380297823576  18.7975951903808 0.27491408934708  L 19.7995991983968 1.64948453608247  Z " fill-rule="nonzero" fill="#d4d4d4" stroke="none" transform="matrix(1 0 0 1 421 151 )" />
  </g>
</svg>