<?xml version="1.0" encoding="utf-8"?>
<svg version="1.1" xmlns:xlink="http://www.w3.org/1999/xlink" width="20px" height="17px" xmlns="http://www.w3.org/2000/svg">
  <g transform="matrix(1 0 0 1 -316 -9 )">
    <path d="M 7.46534653465346 14.5809151785714  L 15.2871287128713 8.08258928571429  C 15.6897689768977 10.3340773809524  16.6732673267327 12.0922619047619  18.2376237623762 13.3571428571429  C 18.2376237623762 13.6860119047619  18.1122112211221 13.9706101190476  17.8613861386139 14.2109375  C 17.6105610561056 14.4512648809524  17.3135313531353 14.5714285714286  16.970297029703 14.5714285714286  L 12.5346534653465 14.5714285714286  C 12.5346534653465 15.2418154761905  12.2871287128713 15.8141741071429  11.7920792079208 16.2885044642857  C 11.2970297029703 16.7628348214286  10.6996699669967 17  10 17  C 9.3003300330033 17  8.70462046204621 16.764415922619  8.21287128712871 16.2932477678571  C 7.72112211221122 15.8220796130952  7.47194719471947 15.2513020833333  7.46534653465346 14.5809151785714  Z M 8.76732673267327 15.7525111607143  C 9.10726072607261 16.0782180059524  9.51815181518152 16.2410714285714  10 16.2410714285714  C 10.1056105610561 16.2410714285714  10.1584158415842 16.1904761904762  10.1584158415842 16.0892857142857  C 10.1584158415842 15.9880952380952  10.1056105610561 15.9375  10 15.9375  C 9.61056105610561 15.9375  9.27557755775578 15.8031063988095  8.9950495049505 15.5343191964286  C 8.71452145214522 15.2655319940476  8.57425742574257 14.944568452381  8.57425742574257 14.5714285714286  C 8.57425742574257 14.4702380952381  8.52145214521452 14.4196428571429  8.41584158415842 14.4196428571429  C 8.31023102310231 14.4196428571429  8.25742574257426 14.4702380952381  8.25742574257426 14.5714285714286  C 8.25742574257426 15.0331101190476  8.42739273927393 15.4268043154762  8.76732673267327 15.7525111607143  Z M 19.0891089108911 0.151785714285714  L 19.9207920792079 1.0625  C 19.973597359736 1.12574404761905  19.9983498349835 1.20005580357143  19.9950495049505 1.28543526785714  C 19.9917491749175 1.37081473214286  19.957095709571 1.44196428571429  19.8910891089109 1.49888392857143  L 1.35643564356436 16.8861607142857  C 1.29042904290429 16.936755952381  1.21287128712871 16.9588913690476  1.12376237623762 16.9525669642857  C 1.03465346534653 16.9462425595238  0.963696369636964 16.9114583333333  0.910891089108911 16.8482142857143  L 0.0792079207920792 15.9375  C 0.0264026402640264 15.874255952381  0.00165016501650166 15.7999441964286  0.00495049504950495 15.7145647321429  C 0.00825082508250827 15.6291852678571  0.0429042904290429 15.5611979166667  0.108910891089109 15.5106026785714  L 1.95049504950495 13.9832589285714  C 1.82508250825082 13.7808779761905  1.76237623762376 13.5721726190476  1.76237623762376 13.3571428571429  C 2.09240924092409 13.0915178571429  2.39273927392739 12.813244047619  2.66336633663366 12.5223214285714  C 2.93399339933993 12.2313988095238  3.21452145214522 11.853515625  3.5049504950495 11.388671875  C 3.7953795379538 10.923828125  4.04125412541254 10.422619047619  4.24257425742574 9.88504464285714  C 4.44389438943894 9.34747023809524  4.60891089108911 8.69605654761905  4.73762376237624 7.93080357142857  C 4.86633663366337 7.16555059523809  4.93069306930693 6.34337797619047  4.93069306930693 5.46428571428571  C 4.93069306930693 4.50297619047619  5.31683168316832 3.60965401785714  6.08910891089109 2.78431919642857  C 6.86138613861386 1.958984375  7.87458745874588 1.45777529761905  9.12871287128713 1.28069196428571  C 9.07590759075908 1.16052827380952  9.04950495049505 1.03720238095238  9.04950495049505 0.910714285714286  C 9.04950495049505 0.657738095238095  9.14191419141914 0.442708333333333  9.32673267326733 0.265625  C 9.51155115511551 0.0885416666666673  9.73597359735974 0  10 0  C 10.2640264026403 0  10.4884488448845 0.0885416666666673  10.6732673267327 0.265625  C 10.8580858085809 0.442708333333333  10.950495049505 0.657738095238095  10.950495049505 0.910714285714286  C 10.950495049505 1.03720238095238  10.9240924092409 1.16052827380952  10.8712871287129 1.28069196428571  C 11.6897689768977 1.39453125  12.4125412541254 1.65541294642857  13.039603960396 2.06333705357143  C 13.6666666666667 2.47126116071429  14.1551155115512 2.96930803571429  14.5049504950495 3.55747767857143  L 18.6435643564356 0.113839285714286  C 18.7095709570957 0.0632440476190465  18.7871287128713 0.041108630952381  18.8762376237624 0.0474330357142863  C 18.9653465346535 0.0537574404761896  19.036303630363 0.0885416666666654  19.0891089108911 0.151785714285714  Z " fill-rule="nonzero" fill="#333333" stroke="none" transform="matrix(1 0 0 1 316 9 )" />
  </g>
</svg>