<?xml version="1.0" encoding="utf-8"?>
<svg version="1.1" xmlns:xlink="http://www.w3.org/1999/xlink" width="25px" height="25px" xmlns="http://www.w3.org/2000/svg">
  <g transform="matrix(1 0 0 1 -406 -66 )">
    <path d="M 16.2434895833333 15.9830729166667  C 17.2417534722222 15.0499131944444  18.4244791666667 14.5833333333333  19.7916666666667 14.5833333333333  C 21.2348090277778 14.5833333333333  22.4636501736111 15.0906032986111  23.4781901041667 16.1051432291667  C 24.4927300347222 17.1196831597222  25 18.3485243055556  25 19.7916666666667  C 25 21.2348090277778  24.4927300347222 22.4636501736111  23.4781901041667 23.4781901041667  C 22.4636501736111 24.4927300347222  21.2348090277778 25  19.7916666666667 25  C 18.3485243055556 25  17.1196831597222 24.4927300347222  16.1051432291667 23.4781901041667  C 15.0906032986111 22.4636501736111  14.5833333333333 21.2348090277778  14.5833333333333 19.7916666666667  C 14.5833333333333 19.6614583333333  14.5941840277778 19.4769965277778  14.6158854166667 19.23828125  L 8.75651041666667 16.30859375  C 7.75824652777778 17.2417534722222  6.57552083333333 17.7083333333333  5.20833333333333 17.7083333333333  C 3.76519097222222 17.7083333333333  2.53634982638889 17.2010633680556  1.52180989583333 16.1865234375  C 0.507269965277778 15.1719835069444  0 13.9431423611111  0 12.5  C 0 11.0568576388889  0.507269965277778 9.82801649305556  1.52180989583333 8.8134765625  C 2.53634982638889 7.79893663194444  3.76519097222222 7.29166666666667  5.20833333333333 7.29166666666667  C 6.57552083333333 7.29166666666667  7.75824652777778 7.75824652777778  8.75651041666667 8.69140625  L 14.6158854166667 5.76171875  C 14.5941840277778 5.52300347222222  14.5833333333333 5.33854166666667  14.5833333333333 5.20833333333333  C 14.5833333333333 3.76519097222222  15.0906032986111 2.53634982638889  16.1051432291667 1.52180989583333  C 17.1196831597222 0.507269965277776  18.3485243055556 0  19.7916666666667 0  C 21.2348090277778 0  22.4636501736111 0.507269965277776  23.4781901041667 1.52180989583333  C 24.4927300347222 2.53634982638889  25 3.76519097222222  25 5.20833333333333  C 25 6.65147569444444  24.4927300347222 7.88031684027778  23.4781901041667 8.89485677083333  C 22.4636501736111 9.90939670138889  21.2348090277778 10.4166666666667  19.7916666666667 10.4166666666667  C 18.4244791666667 10.4166666666667  17.2417534722222 9.95008680555556  16.2434895833333 9.01692708333333  L 10.3841145833333 11.9466145833333  C 10.4058159722222 12.1853298611111  10.4166666666667 12.3697916666667  10.4166666666667 12.5  C 10.4166666666667 12.6302083333333  10.4058159722222 12.8146701388889  10.3841145833333 13.0533854166667  L 16.2434895833333 15.9830729166667  Z " fill-rule="nonzero" fill="#d4d4d4" stroke="none" fill-opacity="0.996078431372549" transform="matrix(1 0 0 1 406 66 )" />
  </g>
</svg>