<?xml version="1.0" encoding="utf-8"?>
<svg version="1.1" xmlns:xlink="http://www.w3.org/1999/xlink" width="20px" height="25px" xmlns="http://www.w3.org/2000/svg">
  <g transform="matrix(1 0 0 1 -23 -65 )">
    <path d="M 0.34364261168385 11.9238476953908  C 0.114547537227947 12.0908483633935  0 12.2828991315965  0 12.5  C 0 12.7171008684035  0.114547537227947 12.9091516366065  0.34364261168385 13.0761523046092  L 16.3573883161512 24.749498997996  C 16.5864833906071 24.9164996659987  16.8499427262314 25  17.1477663230241 25  C 17.4455899198167 25  17.709049255441 24.9164996659987  17.9381443298969 24.749498997996  L 19.6563573883161 23.496993987976  C 19.8854524627721 23.3299933199733  20 23.1379425517702  20 22.9208416833667  C 20 22.7037408149633  19.8854524627721 22.5116900467602  19.6563573883161 22.3446893787575  L 6.15120274914089 12.5  L 19.6563573883161 2.65531062124249  C 19.8854524627721 2.48830995323981  20 2.29625918503674  20 2.07915831663327  C 20 1.86205744822979  19.8854524627721 1.67000668002672  19.6563573883161 1.50300601202405  L 17.9381443298969 0.250501002004008  C 17.709049255441 0.0835003340013352  17.4455899198167 0  17.1477663230241 0  C 16.8499427262314 0  16.5864833906071 0.0835003340013352  16.3573883161512 0.250501002004008  L 0.34364261168385 11.9238476953908  Z " fill-rule="nonzero" fill="#d4d4d4" stroke="none" fill-opacity="0.996078431372549" transform="matrix(1 0 0 1 23 65 )" />
  </g>
</svg>